<svg xmlns="http://www.w3.org/2000/svg" viewBox="0 0 701.7 431.32"><defs><style>.cls-1{fill:#fff;}.cls-2{fill:#e0e0e0;}.cls-10,.cls-3{opacity:0.3;}.cls-4{fill:#ebebeb;}.cls-5{fill:#f5f5f5;}.cls-6{fill:#455a64;}.cls-7{fill:#263238;}.cls-8{fill:#ff725e;}.cls-9{fill:#fafafa;}.cls-11{fill:#ffbe9d;}.cls-12{fill:#eb996e;}.cls-13{fill:#0f0e0e;}</style></defs><g id="Layer_2" data-name="Layer 2"><g id="Background_Complete" data-name="Background Complete"><rect class="cls-1" x="0.27" y="49.76" width="152.3" height="101.97"/><path class="cls-2" d="M152.57,151.73s0-.64,0-1.85,0-3,0-5.38c0-4.72,0-11.65-.05-20.51,0-17.72-.07-43.18-.12-74.23l.22.22L.29,50h0l.28-.27c0,36.33,0,70.87,0,102l-.25-.25,109.72.13,31.35.06,8.34,0,2.15,0h.74l-.71,0h-2.12l-8.29,0-31.29.07L.27,152H0v-.25c0-31.1,0-65.64,0-102v-.27H.29l152.28,0h.22v.22c0,31.1-.09,56.62-.12,74.36,0,8.85,0,15.76,0,20.46,0,2.34,0,4.13,0,5.34S152.57,151.73,152.57,151.73Z"/><path class="cls-2" d="M.27,58.86c0-.15,34.07-.27,76.08-.27s76.09.12,76.09.27-34.06.27-76.09.27S.27,59,.27,58.86Z"/><g class="cls-3"><path class="cls-2" d="M6.28,54.27a1.22,1.22,0,1,1-1.22-1.22A1.22,1.22,0,0,1,6.28,54.27Z"/></g><g class="cls-3"><path class="cls-2" d="M10.46,54.27a1.22,1.22,0,1,1-1.22-1.22A1.22,1.22,0,0,1,10.46,54.27Z"/></g><g class="cls-3"><path class="cls-2" d="M14.59,54.27a1.22,1.22,0,0,1-2.44,0,1.22,1.22,0,1,1,2.44,0Z"/></g><rect class="cls-2" x="13.37" y="69.49" width="40.62" height="40.63"/><path class="cls-2" d="M131.69,81c0,.15-15.85.27-35.39.27S60.91,81.13,60.91,81s15.84-.28,35.39-.28S131.69,80.83,131.69,81Z"/><path class="cls-2" d="M131.69,88.53c0,.15-15.85.27-35.39.27s-35.39-.12-35.39-.27,15.84-.28,35.39-.28S131.69,88.38,131.69,88.53Z"/><path class="cls-2" d="M131.69,96.08c0,.15-15.85.27-35.39.27s-35.39-.12-35.39-.27,15.84-.28,35.39-.28S131.69,95.92,131.69,96.08Z"/><path class="cls-2" d="M102.74,103.62a8.69,8.69,0,0,1-1.64.11l-4.49.09c-3.78.05-9,.08-14.78.08s-11,0-14.79-.08l-4.48-.09a8.75,8.75,0,0,1-1.65-.11,11,11,0,0,1,1.65-.1l4.48-.09c3.78-.05,9-.08,14.79-.08s11,0,14.78.08l4.49.09A10.88,10.88,0,0,1,102.74,103.62Z"/><rect class="cls-2" x="15.91" y="123.82" width="19.09" height="19.09"/><rect class="cls-2" x="50.53" y="123.82" width="19.09" height="19.09"/><rect class="cls-2" x="85.16" y="123.82" width="19.09" height="19.09"/><rect class="cls-2" x="119.78" y="123.82" width="19.09" height="19.09"/><rect class="cls-1" x="175.04" y="0.21" width="131.19" height="53.29"/><path class="cls-2" d="M306.23,53.49s0-.32,0-1,0-1.55,0-2.76c0-2.43,0-6,0-10.61,0-9.19-.05-22.5-.08-39l.14.14L175.05.42h0l.21-.21c0,18.66,0,36.67,0,53.28l-.2-.19,94.06.09,27.29.06,7.3,0h2.54l-.62,0h-1.87l-7.26,0-27.24.06-94.2.09h-.2V0h.21L306.23.06h.15V.21c0,16.5-.06,29.83-.08,39.05,0,4.59,0,8.15,0,10.57,0,1.2,0,2.12,0,2.74S306.23,53.49,306.23,53.49Z"/><path class="cls-2" d="M175.17,7.39c0-.11,29.33-.2,65.49-.2s65.5.09,65.5.2-29.32.21-65.5.21S175.17,7.51,175.17,7.39Z"/><g class="cls-3"><path class="cls-4" d="M180.67,4.18a1,1,0,1,1-1-.95A1,1,0,0,1,180.67,4.18Z"/></g><g class="cls-3"><path class="cls-4" d="M183.93,4.18a1,1,0,1,1-1-.95A.95.95,0,0,1,183.93,4.18Z"/></g><g class="cls-3"><circle class="cls-4" cx="186.19" cy="4.18" r="0.95"/></g><rect class="cls-2" x="186.19" y="16.06" width="31.69" height="31.69"/><path class="cls-2" d="M297.16,24.55c0,.11-16.31.2-36.42.2s-36.42-.09-36.42-.2,16.3-.21,36.42-.21S297.16,24.43,297.16,24.55Z"/><path class="cls-2" d="M297.16,31c0,.12-16.31.21-36.42.21s-36.42-.09-36.42-.21,16.3-.21,36.42-.21S297.16,30.89,297.16,31Z"/><path class="cls-2" d="M271.21,37.46a2.32,2.32,0,0,1-.48,0l-1.36,0-5,.06-16.57.07-16.58-.07-5-.06-1.36,0a2.2,2.2,0,0,1-.48,0,1.61,1.61,0,0,1,.48,0l1.36,0,5-.07,16.58-.06,16.57.06,5,.07,1.36,0A1.68,1.68,0,0,1,271.21,37.46Z"/><path class="cls-2" d="M660.2,71.32a4.77,4.77,0,0,1,.74-.84l2.16-2.17c1.83-1.81,4.39-4.29,7.24-7l.06-.06v.37c-2.87-2.67-5.45-5.1-7.3-6.88-.85-.83-1.58-1.54-2.16-2.12s-.78-.8-.75-.83a5.48,5.48,0,0,1,.88.69l2.27,2c1.91,1.71,4.53,4.1,7.4,6.77l.19.18-.19.18-.07.07c-2.84,2.71-5.44,5.15-7.34,6.9l-2.27,2.05A4.46,4.46,0,0,1,660.2,71.32Z"/><path class="cls-2" d="M638.05,51.78a4.55,4.55,0,0,1-.75.85l-2.15,2.16c-1.84,1.82-4.4,4.3-7.25,7l-.06.07V61.5c2.87,2.66,5.44,5.1,7.29,6.87l2.17,2.12a5.64,5.64,0,0,1,.75.83,4.23,4.23,0,0,1-.88-.68l-2.28-2c-1.91-1.71-4.52-4.1-7.39-6.76l-.2-.18.2-.19.06-.06c2.85-2.72,5.45-5.16,7.34-6.9l2.27-2A4.83,4.83,0,0,1,638.05,51.78Z"/><path class="cls-2" d="M643.73,75.93c-.13-.05,2.2-6.59,5.19-14.6s5.54-14.47,5.67-14.42-2.2,6.58-5.2,14.6S643.86,76,643.73,75.93Z"/><path class="cls-2" d="M685.37,89.91s0-.38,0-1.09,0-1.78,0-3.15c0-2.76,0-6.78-.05-11.9,0-10.26-.07-24.9-.11-42.57l.21.21-72,0h0l.25-.25c0,21.22,0,41.27,0,58.71l-.22-.23,52,.12,14.75.06,3.91,0,1,0h-1l-3.87,0L665.49,90l-52.17.11h-.23v-.22c0-17.44,0-37.49,0-58.71V31h.25l72,0h.21v.21c-.05,17.72-.09,32.41-.11,42.7,0,5.1,0,9.11-.06,11.86,0,1.35,0,2.38,0,3.1S685.37,89.91,685.37,89.91Z"/><path class="cls-2" d="M685.93,39.91c0,.14-16.26.25-36.32.25s-36.32-.11-36.32-.25,16.26-.25,36.32-.25S685.93,39.77,685.93,39.91Z"/><path class="cls-2" d="M619.2,35.63a1,1,0,1,1-1-1A1,1,0,0,1,619.2,35.63Z"/><path class="cls-2" d="M622.73,35.63a1,1,0,0,1-1.94,0,1,1,0,1,1,1.94,0Z"/><path class="cls-2" d="M626.27,35.63a1,1,0,1,1-1-1A1,1,0,0,1,626.27,35.63Z"/><path class="cls-4" d="M668.77,348.07c4.16-2.15,9.06-2.43,13.69-1.67,2.48.41,5.07,1.16,6.76,3s2,5.15.07,6.75a6.51,6.51,0,0,1-4.27,1.08c-3.62,0-7.63-.68-10.52,1.5-1.65,1.24-2.75,3.31-4.72,3.92a4.66,4.66,0,0,1-5.13-2.28,8,8,0,0,1-.58-5.88A9,9,0,0,1,668.77,348.07Z"/><path class="cls-4" d="M659.23,329.65c2.54,3.64,7.49,2.43,9.79.21s3.26-5.43,4.14-8.5c2-7,4.05-14.36,2.55-21.5A11.85,11.85,0,0,0,673,294a6.24,6.24,0,0,0-5.91-2c-2.5.66-4,3.1-5.17,5.43a51.22,51.22,0,0,0-5.06,22c0,3.54.4,7.26,2.4,10.18"/><path class="cls-4" d="M652.24,334.87c2.76-3.28,3.29-8.07,2.06-12.18a23.51,23.51,0,0,0-7.21-10.46,39,39,0,0,0-12.92-7.62,13.78,13.78,0,0,0-5.8-1,6.08,6.08,0,0,0-4.88,2.95c-1.36,2.59,0,5.73,1.36,8.3a97.68,97.68,0,0,0,8.48,12.91c2.54,3.28,5.45,6.51,9.32,8s7.9,1.31,10-1.38"/><path class="cls-2" d="M659.06,384.5a9.3,9.3,0,0,0,.23-1.65c.11-1.2.26-2.71.44-4.51a63.66,63.66,0,0,1,1-6.61,52.18,52.18,0,0,1,2.4-7.81,28.77,28.77,0,0,1,4-7.06,14.81,14.81,0,0,1,5-4.19,13.93,13.93,0,0,1,4.24-1.32,8.62,8.62,0,0,0,1.65-.24,7.26,7.26,0,0,0-1.68,0,13,13,0,0,0-4.42,1.15,14.92,14.92,0,0,0-5.32,4.23,28.32,28.32,0,0,0-4.13,7.2,49.1,49.1,0,0,0-2.39,7.94,55.64,55.64,0,0,0-.87,6.7c-.15,1.91-.2,3.46-.23,4.53A7.52,7.52,0,0,0,659.06,384.5Z"/><path class="cls-2" d="M659.37,381a3.24,3.24,0,0,0,0-.77v-2.19c0-1.9,0-4.65.09-8.05.17-6.8.76-14.12,1.89-24.44,1.07-9.7,2.51-21,4-28.33.33-1.67.66-3.17,1-4.49s.55-2.45.79-3.37.38-1.57.51-2.13a3.75,3.75,0,0,0,.14-.76,3,3,0,0,0-.27.72q-.25.82-.63,2.1c-.29.91-.58,2-.91,3.35s-.7,2.81-1.06,4.48a248.63,248.63,0,0,0-4.23,26.29c-1.13,10.34-1.64,19.75-1.69,26.57,0,3.41,0,6.17.12,8.07.05.89.1,1.61.13,2.19A2.72,2.72,0,0,0,659.37,381Z"/><path class="cls-2" d="M659.41,362.87a14.32,14.32,0,0,0,0-2.29c-.09-1.47-.29-3.59-.7-6.2a82.83,82.83,0,0,0-2-9,74.44,74.44,0,0,0-3.78-10.7,57.16,57.16,0,0,0-11.1-17.28,28.05,28.05,0,0,0-2.62-2.43c-.4-.34-.75-.68-1.11-.94l-1-.7a14.64,14.64,0,0,0-1.93-1.24,68.67,68.67,0,0,1,6.32,5.64,60.18,60.18,0,0,1,10.82,17.22,82.9,82.9,0,0,1,3.8,10.6c1,3.32,1.65,6.38,2.15,8.95s.75,4.69.91,6.15A16.26,16.26,0,0,0,659.41,362.87Z"/><polygon class="cls-2" points="641.86 394.9 643.68 419.83 675.7 419.83 677.52 394.9 641.86 394.9"/><rect class="cls-2" x="638.77" y="385.08" width="42.57" height="9.82"/><polygon class="cls-4" points="638.77 418.87 638.77 421.6 640.77 421.6 680.64 421.6 680.64 418.87 638.77 418.87"/><polygon class="cls-2" points="642.73 426.39 640.77 421.6 679.12 421.6 676.83 426.39 642.73 426.39"/><path class="cls-5" d="M676.93,403.05a1.83,1.83,0,0,1-.15.23l-.48.63-1.86,2.39-.09.11-.08-.12L669.69,400H670l-4.51,6.39-.14.2-.16-.19L659.79,400h.31l-.3.37-4.78,6-.16.2-.15-.2L650.2,400h.26l-5.56,6.34-.1.11-.07-.13L643,403.37l-.45-.78a1.9,1.9,0,0,1-.14-.28,1.11,1.11,0,0,1,.19.25l.5.75,1.82,2.87-.17,0,5.47-6.41.14-.16.12.18,4.56,6.35h-.31l4.77-6,.3-.37.15-.19.16.18,5.33,6.38-.3,0,4.56-6.36.13-.19.13.19,4.49,6.41h-.16l1.94-2.33.52-.6C676.86,403.11,676.92,403,676.93,403.05Z"/><path class="cls-5" d="M678,394.74c0,.11-8,.2-17.92.2s-17.92-.09-17.92-.2,8-.2,17.92-.2S678,394.63,678,394.74Z"/><path class="cls-5" d="M679.59,421.87c0,.11-8.72.2-19.48.2s-19.47-.09-19.47-.2,8.71-.2,19.47-.2S679.59,421.76,679.59,421.87Z"/></g><g id="Device"><path class="cls-6" d="M85.32,74.26H596.21A6.74,6.74,0,0,1,602.95,81V407.12a14.57,14.57,0,0,1-14.57,14.57H92.14a14.57,14.57,0,0,1-14.57-14.57V82A7.75,7.75,0,0,1,85.32,74.26Z"/><path class="cls-6" d="M55.6,396H624.81a0,0,0,0,1,0,0v16.68a13.72,13.72,0,0,1-13.72,13.72H69.32A13.72,13.72,0,0,1,55.6,412.67V396a0,0,0,0,1,0,0Z"/><rect class="cls-2" x="91.67" y="88.06" width="495.7" height="293.4"/><polygon class="cls-7" points="288.47 395.99 295.53 407.23 394.92 407.23 401.48 395.99 288.47 395.99"/><rect class="cls-7" x="106.38" y="105.06" width="467.48" height="276.4"/><path class="cls-2" d="M142.25,373.35c-.25,0-.44-58.87-.44-131.47s.19-131.48.44-131.48.43,58.85.43,131.48S142.49,373.35,142.25,373.35Z"/><path class="cls-2" d="M132.82,134.23c0,.25-3.4.44-7.6.44s-7.59-.19-7.59-.44,3.4-.43,7.59-.43S132.82,134,132.82,134.23Z"/><path class="cls-2" d="M133.4,119.31c0,.25-3.4.44-7.59.44s-7.6-.19-7.6-.44,3.4-.43,7.6-.43S133.4,119.07,133.4,119.31Z"/><path class="cls-2" d="M132.82,150.32c0,.24-3.4.44-7.6.44s-7.59-.2-7.59-.44,3.4-.44,7.59-.44S132.82,150.07,132.82,150.32Z"/><path class="cls-2" d="M132.82,166.4c0,.24-3.4.44-7.6.44s-7.59-.2-7.59-.44,3.4-.44,7.59-.44S132.82,166.16,132.82,166.4Z"/><path class="cls-2" d="M132.82,182.48c0,.24-3.4.44-7.6.44s-7.59-.2-7.59-.44,3.4-.44,7.59-.44S132.82,182.24,132.82,182.48Z"/><path class="cls-2" d="M132.82,198.56c0,.25-3.4.44-7.6.44s-7.59-.19-7.59-.44,3.4-.43,7.59-.43S132.82,198.32,132.82,198.56Z"/><path class="cls-2" d="M132.82,214.65c0,.24-3.4.44-7.6.44s-7.59-.2-7.59-.44,3.4-.44,7.59-.44S132.82,214.4,132.82,214.65Z"/><path class="cls-2" d="M132.82,230.73c0,.24-3.4.44-7.6.44s-7.59-.2-7.59-.44,3.4-.44,7.59-.44S132.82,230.49,132.82,230.73Z"/><path class="cls-2" d="M132.82,246.81c0,.24-3.4.44-7.6.44s-7.59-.2-7.59-.44,3.4-.44,7.59-.44S132.82,246.57,132.82,246.81Z"/><path class="cls-2" d="M132.82,262.89c0,.25-3.4.44-7.6.44s-7.59-.19-7.59-.44,3.4-.43,7.59-.43S132.82,262.65,132.82,262.89Z"/><path class="cls-2" d="M132.82,279c0,.24-3.4.43-7.6.43s-7.59-.19-7.59-.43,3.4-.44,7.59-.44S132.82,278.73,132.82,279Z"/><path class="cls-2" d="M132.82,295.06c0,.24-3.4.44-7.6.44s-7.59-.2-7.59-.44,3.4-.44,7.59-.44S132.82,294.82,132.82,295.06Z"/><path class="cls-2" d="M132.82,311.14c0,.24-3.4.44-7.6.44s-7.59-.2-7.59-.44,3.4-.44,7.59-.44S132.82,310.9,132.82,311.14Z"/><path class="cls-2" d="M132.82,327.22c0,.25-3.4.44-7.6.44s-7.59-.19-7.59-.44,3.4-.44,7.59-.44S132.82,327,132.82,327.22Z"/><path class="cls-2" d="M132.82,343.31c0,.24-3.4.43-7.6.43s-7.59-.19-7.59-.43,3.4-.44,7.59-.44S132.82,343.06,132.82,343.31Z"/><path class="cls-2" d="M132.82,359.39c0,.24-3.4.44-7.6.44s-7.59-.2-7.59-.44,3.4-.44,7.59-.44S132.82,359.15,132.82,359.39Z"/><path class="cls-8" d="M193.69,133.29c0,.24-8.82.43-19.71.43s-19.7-.19-19.7-.43,8.82-.44,19.7-.44S193.69,133,193.69,133.29Z"/><path class="cls-8" d="M193.69,359.39c0,.24-8.82.44-19.71.44s-19.7-.2-19.7-.44S163.1,359,174,359,193.69,359.15,193.69,359.39Z"/><path class="cls-8" d="M248.58,166.4c0,.24-16.51.44-36.87.44s-36.87-.2-36.87-.44,16.5-.44,36.87-.44S248.58,166.16,248.58,166.4Z"/><path class="cls-2" d="M333.85,166.4c0,.24-16.51.44-36.87.44s-36.87-.2-36.87-.44S276.61,166,297,166,333.85,166.16,333.85,166.4Z"/><path class="cls-2" d="M301.26,182.48c0,.24-24.33.44-54.33.44s-54.35-.2-54.35-.44,24.33-.44,54.35-.44S301.26,182.24,301.26,182.48Z"/><path class="cls-2" d="M301.26,198.56c0,.25-24.33.44-54.33.44s-54.35-.19-54.35-.44,24.33-.43,54.35-.43S301.26,198.32,301.26,198.56Z"/><path class="cls-2" d="M376.07,246.81c0,.24-24.33.44-54.34.44s-54.34-.2-54.34-.44,24.33-.44,54.34-.44S376.07,246.57,376.07,246.81Z"/><path class="cls-2" d="M343.79,214.65c0,.24-24.33.44-54.34.44s-54.34-.2-54.34-.44,24.33-.44,54.34-.44S343.79,214.4,343.79,214.65Z"/><path class="cls-2" d="M476.6,214.65c0,.24-24.33.44-54.34.44s-54.34-.2-54.34-.44,24.33-.44,54.34-.44S476.6,214.4,476.6,214.65Z"/><path class="cls-9" d="M430.41,182.48c0,.24-24.33.44-54.33.44s-54.35-.2-54.35-.44,24.33-.44,54.35-.44S430.41,182.24,430.41,182.48Z"/><path class="cls-9" d="M505.49,246.81c0,.24-24.34.44-54.34.44s-54.35-.2-54.35-.44,24.33-.44,54.35-.44S505.49,246.57,505.49,246.81Z"/><path class="cls-6" d="M490.49,198.56c0,.25-37.78.44-84.37.44s-84.39-.19-84.39-.44,37.78-.43,84.39-.43S490.49,198.32,490.49,198.56Z"/><path class="cls-9" d="M193.69,150.32c0,.24-8.82.44-19.71.44s-19.7-.2-19.7-.44,8.82-.44,19.7-.44S193.69,150.07,193.69,150.32Z"/><path class="cls-9" d="M193.69,343.31c0,.24-8.82.43-19.71.43s-19.7-.19-19.7-.43,8.82-.44,19.7-.44S193.69,343.06,193.69,343.31Z"/><path class="cls-9" d="M213.22,214.65c0,.24-8.83.44-19.71.44s-19.71-.2-19.71-.44,8.82-.44,19.71-.44S213.22,214.4,213.22,214.65Z"/><path class="cls-8" d="M529.11,214.65c0,.24-8.82.44-19.71.44s-19.7-.2-19.7-.44,8.82-.44,19.7-.44S529.11,214.4,529.11,214.65Z"/><path class="cls-8" d="M248.58,278.88c0,.24-16.51.44-36.87.44s-36.87-.2-36.87-.44,16.5-.44,36.87-.44S248.58,278.64,248.58,278.88Z"/><path class="cls-2" d="M333.85,278.88c0,.24-16.51.44-36.87.44s-36.87-.2-36.87-.44,16.5-.44,36.87-.44S333.85,278.64,333.85,278.88Z"/><path class="cls-2" d="M301.26,295c0,.25-24.33.44-54.33.44s-54.35-.19-54.35-.44,24.33-.43,54.35-.43S301.26,294.72,301.26,295Z"/><path class="cls-2" d="M301.26,311.05c0,.24-24.33.44-54.33.44s-54.35-.2-54.35-.44,24.33-.44,54.35-.44S301.26,310.8,301.26,311.05Z"/><path class="cls-2" d="M343.79,327.13c0,.24-24.33.44-54.34.44s-54.34-.2-54.34-.44,24.33-.44,54.34-.44S343.79,326.89,343.79,327.13Z"/><path class="cls-2" d="M476.6,327.13c0,.24-24.33.44-54.34.44s-54.34-.2-54.34-.44,24.33-.44,54.34-.44S476.6,326.89,476.6,327.13Z"/><path class="cls-9" d="M430.41,295c0,.25-24.33.44-54.33.44s-54.35-.19-54.35-.44,24.33-.43,54.35-.43S430.41,294.72,430.41,295Z"/><path class="cls-6" d="M490.49,311.05c0,.24-37.78.44-84.37.44s-84.39-.2-84.39-.44,37.78-.44,84.39-.44S490.49,310.8,490.49,311.05Z"/><path class="cls-9" d="M213.22,327.13c0,.24-8.83.44-19.71.44s-19.71-.2-19.71-.44,8.82-.44,19.71-.44S213.22,326.89,213.22,327.13Z"/><path class="cls-8" d="M529.11,327.13c0,.24-8.82.44-19.71.44s-19.7-.2-19.7-.44,8.82-.44,19.7-.44S529.11,326.89,529.11,327.13Z"/><path class="cls-7" d="M539.61,406.14c0,.15-100.64.26-224.75.26s-224.78-.11-224.78-.26,100.62-.26,224.78-.26S539.61,406,539.61,406.14Z"/></g><g id="Plant"><path class="cls-8" d="M73.25,318A57.08,57.08,0,0,0,18.8,303.05a99.12,99.12,0,0,0,55.09,17.21"/><path class="cls-8" d="M54.78,252.59c2.27-16-4-34.09-16-45.76-.4,15.91,6.32,33.8,16,45.76"/><path class="cls-8" d="M64.39,282.9A85.71,85.71,0,0,0,25,245.3a54.07,54.07,0,0,0,39.49,37.77"/><path class="cls-8" d="M66.38,288.75c-9.69.27-19.5-.07-28.87-2.55S19.16,279,12.92,271.53a96.41,96.41,0,0,1,53.31,16.28"/><path class="cls-8" d="M61.46,269.49C66.38,251.05,74.49,238.3,89,228a38.36,38.36,0,0,1-27.52,41.53"/><path class="cls-8" d="M98,301.28A27.31,27.31,0,0,0,81.46,276c.81,9.53,8.28,20.54,16.58,25.28"/><path class="cls-8" d="M102.67,285.74a40.66,40.66,0,0,1,26.64-34.69c-3.35,15.41-12.26,28.23-26.64,34.69"/><path class="cls-8" d="M95.69,313.32c3.42-4.89,9-7.93,14.77-9.44s11.8-1.64,17.76-1.77a41.46,41.46,0,0,1-32.07,13.36"/><path class="cls-8" d="M88.77,352.62a45.51,45.51,0,0,1,55.56,26.32c-20.18-3.83-40.1-12.79-55.56-26.32"/><path class="cls-8" d="M66.61,339c3.36,9.91,2.71,21.89-4.74,30.44A36.4,36.4,0,0,1,66.61,339"/><path class="cls-8" d="M53.52,333.46a37.28,37.28,0,0,1-20.59,30.25,2.32,2.32,0,0,1-1.83.3c-.9-.37-1-1.61-.87-2.58,1.46-12.7,10.86-25,23.29-28"/><path class="cls-8" d="M45,332.17A31,31,0,0,1,22.68,342,31,31,0,0,1,.3,332.4c14.2-1.56,30.58-2.59,44.67-.23"/><path class="cls-7" d="M42.84,218.66a3.37,3.37,0,0,0,.13.41l.43,1.21c.41,1.07,1,2.62,1.72,4.59s1.64,4.44,2.66,7.29l1.65,4.56,1.77,5.14c2.52,7.19,5.31,15.82,8.33,25.43s6.07,20.25,9.13,31.46,5.69,22,8,31.79,4.11,18.69,5.49,26.18q.52,2.8,1,5.34c.28,1.69.55,3.29.81,4.78.51,3,1,5.55,1.25,7.66s.57,3.71.74,4.85l.21,1.26a2.39,2.39,0,0,0,.09.42,2,2,0,0,0,0-.43c0-.31-.08-.73-.15-1.27-.15-1.14-.37-2.77-.64-4.86s-.68-4.69-1.16-7.68c-.24-1.5-.5-3.1-.77-4.79s-.63-3.47-1-5.35c-1.33-7.5-3.2-16.39-5.39-26.23s-4.91-20.58-7.93-31.81S63,276.76,60,267.14s-5.87-18.23-8.44-25.41q-.95-2.68-1.81-5.12t-1.68-4.55c-1-2.84-2-5.28-2.76-7.26l-1.8-4.56c-.21-.5-.37-.9-.49-1.19A2.59,2.59,0,0,0,42.84,218.66Z"/><path class="cls-7" d="M120.83,259.27l-.24.23-.68.72c-.59.63-1.45,1.58-2.53,2.82A100.13,100.13,0,0,0,109,274.19a74.57,74.57,0,0,0-8.75,18.7c-2.34,7.45-3.79,15.91-5.24,24.75-2.89,17.71-6.43,33.56-9,45-1.3,5.71-2.34,10.34-3.08,13.58-.35,1.58-.62,2.82-.82,3.7-.08.4-.15.72-.2,1a1.63,1.63,0,0,0,0,.34,1.41,1.41,0,0,0,.11-.32c.06-.25.14-.56.25-1,.22-.87.52-2.1.92-3.67.77-3.23,1.88-7.85,3.24-13.54,2.66-11.45,6.27-27.31,9.16-45,1.44-8.85,2.88-17.28,5.18-24.69a75.5,75.5,0,0,1,8.59-18.64,107.82,107.82,0,0,1,8.2-11.22c1-1.27,1.87-2.23,2.44-2.89l.64-.75C120.77,259.37,120.84,259.28,120.83,259.27Z"/><path class="cls-7" d="M40.72,331.57a1.88,1.88,0,0,0,.52.09l1.47.16,1.06.11,1.25.19c.9.13,1.93.26,3,.51l1.76.35,1.89.48c1.32.3,2.68.78,4.12,1.21a59.51,59.51,0,0,1,9,4,50.28,50.28,0,0,1,8.06,5.59c1.12,1,2.2,2,3.1,3A32.61,32.61,0,0,1,78.43,350c.76.86,1.28,1.76,1.82,2.49a19.88,19.88,0,0,1,1.24,2l.75,1.27c.18.29.28.44.3.43a3,3,0,0,0-.2-.48l-.67-1.33a17.41,17.41,0,0,0-1.17-2,27.74,27.74,0,0,0-1.76-2.57,32.53,32.53,0,0,0-2.42-2.89,35.88,35.88,0,0,0-3.1-3,48.33,48.33,0,0,0-8.12-5.7,57.91,57.91,0,0,0-9.1-4c-1.46-.43-2.84-.9-4.17-1.18l-1.91-.45-1.78-.32c-1.13-.22-2.17-.33-3.08-.44l-1.26-.14-1.08-.06-1.48-.06A1.65,1.65,0,0,0,40.72,331.57Z"/><path class="cls-7" d="M36.68,259.61a7.3,7.3,0,0,0,1,1l2.93,2.53c2.48,2.13,5.93,5,9.77,8.21s7.33,6,9.88,8.09l3,2.4a6.67,6.67,0,0,0,1.16.82,6.82,6.82,0,0,0-1-1l-2.92-2.54c-2.48-2.12-5.94-5-9.77-8.21s-7.33-6-9.87-8.08l-3-2.4A7.53,7.53,0,0,0,36.68,259.61Z"/><path class="cls-7" d="M33.19,278.4c0,.14,7.41,2.47,16.65,5.2s16.76,4.83,16.81,4.68-7.42-2.47-16.66-5.2S33.23,278.25,33.19,278.4Z"/><path class="cls-7" d="M60.72,270.92a6.43,6.43,0,0,0,.77-1.07l2-3c1.67-2.52,4-6,6.84-9.62s5.49-6.85,7.48-9.13l2.36-2.7a6.87,6.87,0,0,0,.83-1,5.57,5.57,0,0,0-1,.88c-.61.59-1.46,1.47-2.49,2.58-2.07,2.22-4.82,5.38-7.64,9.06s-5.13,7.17-6.72,9.75c-.79,1.29-1.42,2.35-1.82,3.09A6.28,6.28,0,0,0,60.72,270.92Z"/><path class="cls-7" d="M86.61,281.34a25.57,25.57,0,0,0,1.75,2.88c1.11,1.75,2.62,4.19,4.19,6.93s2.88,5.3,3.82,7.15a24.82,24.82,0,0,0,1.58,3,18.6,18.6,0,0,0-1.23-3.13c-.85-1.9-2.13-4.49-3.7-7.25s-3.14-5.18-4.34-6.88A17.52,17.52,0,0,0,86.61,281.34Z"/><path class="cls-7" d="M95.47,313.84c0,.07,1.46-.63,3.79-1.67s5.58-2.42,9.25-3.71,7.07-2.24,9.54-2.87,4-1,4-1.06a4.39,4.39,0,0,0-1.11.12c-.7.1-1.72.29-3,.56a84.22,84.22,0,0,0-9.63,2.74,82.34,82.34,0,0,0-9.24,3.87c-1.14.57-2.06,1.05-2.68,1.41A4.07,4.07,0,0,0,95.47,313.84Z"/><path class="cls-7" d="M88.49,352.68a1.9,1.9,0,0,0,.46.16l1.35.34,5,1.14a162.73,162.73,0,0,1,16.19,4.28,72,72,0,0,1,15.11,7.09c1.81,1.16,3.21,2.17,4.16,2.9a14.81,14.81,0,0,0,1.5,1.11s-.1-.13-.33-.35-.57-.54-1-.92a44.26,44.26,0,0,0-4.09-3.06,66.3,66.3,0,0,0-15.14-7.29A135,135,0,0,0,95.34,354l-5-1A11.92,11.92,0,0,0,88.49,352.68Z"/><path class="cls-7" d="M63.28,362.25c.14,0,1-5.2,2-11.67s1.59-11.74,1.44-11.76-1,5.2-2,11.68S63.13,362.23,63.28,362.25Z"/><path class="cls-7" d="M37,352.72a26.5,26.5,0,0,0,2.37-2.81c1.42-1.77,3.38-4.2,5.6-6.85s4.29-5,5.78-6.7a26.46,26.46,0,0,0,2.36-2.81,3.46,3.46,0,0,0-.75.64c-.46.44-1.1,1.09-1.89,1.91-1.57,1.64-3.68,4-5.91,6.62s-4.15,5.13-5.5,7c-.67.91-1.2,1.66-1.55,2.19A3.51,3.51,0,0,0,37,352.72Z"/><polygon class="cls-8" points="106.5 377.07 106.5 390.05 103.26 390.05 91.73 426.44 66.16 426.44 54.98 390.4 50.66 390.05 50.66 377.07 106.5 377.07"/><g class="cls-3"><polygon points="106.5 377.07 106.5 390.05 103.26 390.05 91.73 426.44 66.16 426.44 54.98 390.4 50.66 390.05 50.66 377.07 106.5 377.07"/></g><path class="cls-7" d="M52.82,390.41c0,.15,11.29.27,25.22.27s25.22-.12,25.22-.27S92,390.13,78,390.13,52.82,390.26,52.82,390.41Z"/><path class="cls-7" d="M34.43,307a11.41,11.41,0,0,0,1.64.44l4.49,1.08c3.78.94,9,2.36,14.61,4.25s10.63,3.91,14.21,5.45L73.61,320a9,9,0,0,0,1.58.63,11.51,11.51,0,0,0-1.48-.82c-1-.51-2.4-1.2-4.17-2a147.1,147.1,0,0,0-14.2-5.6,145.67,145.67,0,0,0-14.7-4.11c-1.9-.43-3.45-.74-4.53-.92A8.91,8.91,0,0,0,34.43,307Z"/><path class="cls-9" d="M61.31,410.62c0,.15,7.92.27,17.69.27s17.7-.12,17.7-.27-7.92-.27-17.7-.27S61.31,410.47,61.31,410.62Z"/><path class="cls-9" d="M60.32,407.61c0,.15,8.39.27,18.75.27s18.75-.12,18.75-.27-8.39-.27-18.75-.27S60.32,407.46,60.32,407.61Z"/></g><g id="Floor"><path class="cls-7" d="M685.63,426.65c0,.14-152.44.26-340.44.26s-340.47-.12-340.47-.26,152.41-.26,340.47-.26S685.63,426.51,685.63,426.65Z"/></g><g id="Speech_Bubbles" data-name="Speech Bubbles"><polygon class="cls-9" points="592.21 46.29 324.23 46.29 324.23 212.26 549.83 212.26 563.79 244.39 576.18 212.26 592.21 212.26 592.21 46.29"/><path class="cls-7" d="M592.21,46.29c0,1.61.08,64,.2,166v.2H576.18l.19-.13c-3.88,10.07-8.06,20.93-12.37,32.14l-.19.5-.22-.49c-4.38-10.07-9.11-21-14-32.13l.22.14-204,0H324v-.26c0-59.15,0-115.29,0-166v-.24h.24l268,.24-268,.24.24-.24c0,50.68,0,106.82,0,166l-.26-.26h21.58l204,0H550l.06.14c4.86,11.18,9.58,22.07,14,32.14h-.41L576,212.18l0-.13h16.18l-.2.2C592.14,110.25,592.21,47.9,592.21,46.29Z"/><path class="cls-7" d="M592.07,62.49c0,.2-59.87.36-133.71.36s-133.73-.16-133.73-.36,59.86-.37,133.73-.37S592.07,62.28,592.07,62.49Z"/><path class="cls-7" d="M338.47,55.15a2.2,2.2,0,1,1-2.2-2.19A2.19,2.19,0,0,1,338.47,55.15Z"/><path class="cls-7" d="M346.42,55.15a2.2,2.2,0,1,1-2.2-2.19A2.19,2.19,0,0,1,346.42,55.15Z"/><path class="cls-7" d="M354.37,55.15a2.2,2.2,0,1,1-2.2-2.19A2.2,2.2,0,0,1,354.37,55.15Z"/><path class="cls-7" d="M353.46,92.18l-6.37,2.45,6.37,2.46v1.49l-8-3.18V93.86l8-3.17Z"/><path class="cls-7" d="M360.08,85.81h1.56l-5.92,16.89h-1.56Z"/><path class="cls-7" d="M370.21,93.86V95.4l-8,3.18V97.09l6.38-2.46-6.38-2.45V90.69Z"/><path class="cls-7" d="M372.24,99.78a1.2,1.2,0,0,1,1.22-1.22,1.17,1.17,0,0,1,1.18,1.22,1.19,1.19,0,0,1-1.18,1.23A1.21,1.21,0,0,1,372.24,99.78Z"/><path class="cls-7" d="M376.31,99.78a1.2,1.2,0,0,1,1.22-1.22,1.18,1.18,0,0,1,1.19,1.22,1.2,1.2,0,0,1-1.19,1.23A1.21,1.21,0,0,1,376.31,99.78Z"/><path class="cls-7" d="M380.38,99.78a1.2,1.2,0,0,1,1.22-1.22,1.18,1.18,0,0,1,1.19,1.22A1.2,1.2,0,0,1,381.6,101,1.21,1.21,0,0,1,380.38,99.78Z"/><path class="cls-6" d="M522.68,115.87c0,.2-39.61.37-88.47.37s-88.48-.17-88.48-.37,39.61-.36,88.48-.36S522.68,115.67,522.68,115.87Z"/><path class="cls-7" d="M551.58,116.4c0,.2-3.81.36-8.5.36s-8.5-.16-8.5-.36,3.8-.37,8.5-.37S551.58,116.19,551.58,116.4Z"/><path class="cls-7" d="M576.43,116.4c0,.2-4.16.36-9.29.36s-9.28-.16-9.28-.36,4.15-.37,9.28-.37S576.43,116.19,576.43,116.4Z"/><path class="cls-6" d="M458.41,130.78c0,.2-25.18.37-56.24.37s-56.24-.17-56.24-.37,25.18-.36,56.24-.36S458.41,130.58,458.41,130.78Z"/><path class="cls-6" d="M457.6,186.41c0,.21-25.18.37-56.23.37s-56.24-.16-56.24-.37,25.17-.36,56.24-.36S457.6,186.21,457.6,186.41Z"/><path class="cls-7" d="M499.27,130.78c0,.2-6.85.37-15.3.37s-15.31-.17-15.31-.37,6.85-.36,15.31-.36S499.27,130.58,499.27,130.78Z"/><path class="cls-7" d="M499,186.41c0,.21-6.85.37-15.3.37s-15.31-.16-15.31-.37,6.85-.36,15.31-.36S499,186.21,499,186.41Z"/><path class="cls-8" d="M353.31,138.37c0,.2-1.69.36-3.79.36s-3.79-.16-3.79-.36,1.7-.37,3.79-.37S353.31,138.16,353.31,138.37Z"/><path class="cls-7" d="M379.47,138.52c0,.21-3.69.37-8.24.37s-8.24-.16-8.24-.37,3.69-.36,8.24-.36S379.47,138.32,379.47,138.52Z"/><path class="cls-7" d="M396.21,138.52c0,.21-3.16.37-7.06.37s-7.06-.16-7.06-.37,3.16-.36,7.06-.36S396.21,138.32,396.21,138.52Z"/><path class="cls-7" d="M417.4,138.52c0,.21-3.22.37-7.2.37s-7.19-.16-7.19-.37,3.22-.36,7.19-.36S417.4,138.32,417.4,138.52Z"/><path class="cls-7" d="M436,138.52c0,.21-2.93.37-6.54.37s-6.54-.16-6.54-.37,2.93-.36,6.54-.36S436,138.32,436,138.52Z"/><path class="cls-7" d="M497.44,138.52c0,.21-12.89.37-28.77.37s-28.78-.16-28.78-.37,12.88-.36,28.78-.36S497.44,138.32,497.44,138.52Z"/><path class="cls-8" d="M352.27,148c0,.21-1.47.37-3.27.37s-3.27-.16-3.27-.37,1.46-.36,3.27-.36S352.27,147.84,352.27,148Z"/><path class="cls-8" d="M352.53,158c0,.21-1.52.37-3.4.37s-3.4-.16-3.4-.37,1.52-.36,3.4-.36S352.53,157.78,352.53,158Z"/><path class="cls-8" d="M352.53,169.23c0,.2-1.52.37-3.4.37s-3.4-.17-3.4-.37,1.52-.36,3.4-.36S352.53,169,352.53,169.23Z"/><path class="cls-7" d="M414.52,168.71c0,.2-11.36.36-25.37.36s-25.37-.16-25.37-.36,11.35-.37,25.37-.37S414.52,168.51,414.52,168.71Z"/><path class="cls-7" d="M410.07,158c0,.21-10.83.37-24.19.37s-24.2-.16-24.2-.37,10.83-.36,24.2-.36S410.07,157.78,410.07,158Z"/><path class="cls-7" d="M527,147.52c0,.2-36.89.37-82.39.37s-82.39-.17-82.39-.37,36.88-.36,82.39-.36S527,147.32,527,147.52Z"/><polygon class="cls-9" points="608.68 114.16 608.68 255.2 586.75 273.5 608.68 273.5 610.83 273.5 701.44 273.5 701.44 114.16 608.68 114.16"/><path class="cls-7" d="M608.68,114.16l1.62,0,4.8,0,18.46-.05,67.88-.1h.19v.2c0,42.57,0,98.17.07,159.34v.26H685.35l-98.6,0h-.67l.52-.43L608.53,255l-.08.17c0-42.17.09-77.45.12-102.2,0-12.34,0-22.06.06-28.7,0-3.3,0-5.84,0-7.56,0-.85,0-1.49,0-1.93s0-.65,0-.65,0,.23,0,.67,0,1.1,0,2c0,1.73,0,4.28,0,7.6,0,6.66,0,16.39.06,28.76,0,24.71.07,59.95.12,102v.11l-.08.07-21.92,18.31-.16-.43,98.6,0h16.09l-.26.26c0-61.17,0-116.77.06-159.34l.2.2-67.76-.11-18.51,0-4.83,0C609.25,114.18,608.68,114.16,608.68,114.16Z"/><path class="cls-7" d="M617.1,121.18a1.88,1.88,0,1,1-1.87-1.88A1.88,1.88,0,0,1,617.1,121.18Z"/><path class="cls-7" d="M623.91,121.18A1.88,1.88,0,1,1,622,119.3,1.88,1.88,0,0,1,623.91,121.18Z"/><path class="cls-7" d="M630.71,121.18a1.88,1.88,0,1,1-1.88-1.88A1.88,1.88,0,0,1,630.71,121.18Z"/><path class="cls-8" d="M675.94,164.64c0,.16-11.76.3-26.26.3s-26.27-.14-26.27-.3,11.76-.31,26.27-.31S675.94,164.47,675.94,164.64Z"/><path class="cls-8" d="M686.89,177.39c0,.17-14.31.3-32,.3s-32-.13-32-.3,14.31-.3,32-.3S686.89,177.23,686.89,177.39Z"/><path class="cls-8" d="M689.5,225c0,.16-15.26.3-34.08.3s-34.08-.14-34.08-.3,15.25-.3,34.08-.3S689.5,224.83,689.5,225Z"/><path class="cls-8" d="M628.34,183.88a17.7,17.7,0,0,1-6.49,0,17.7,17.7,0,0,1,6.49,0Z"/><path class="cls-8" d="M650.72,184a83,83,0,0,1-14.1,0c0-.17,3.16-.3,7-.3S650.72,183.85,650.72,184Z"/><path class="cls-8" d="M665.05,184A61.05,61.05,0,0,1,653,184c0-.17,2.71-.3,6-.3S665.05,183.85,665.05,184Z"/><path class="cls-8" d="M627.45,192.17a13.22,13.22,0,0,1-5.6,0,12.8,12.8,0,0,1,5.6,0Z"/><path class="cls-8" d="M627.67,200.67a14.26,14.26,0,0,1-5.82,0,14.26,14.26,0,0,1,5.82,0Z"/><path class="cls-8" d="M627.67,210.29a13.81,13.81,0,0,1-5.82,0,14.26,14.26,0,0,1,5.82,0Z"/><path class="cls-8" d="M680.72,209.85c0,.16-9.73.3-21.71.3s-21.72-.14-21.72-.3,9.72-.3,21.72-.3S680.72,209.68,680.72,209.85Z"/><path class="cls-8" d="M676.91,200.67c0,.17-9.27.3-20.7.3s-20.71-.13-20.71-.3,9.27-.3,20.71-.3S676.91,200.5,676.91,200.67Z"/><path class="cls-8" d="M631.91,237.71a14.26,14.26,0,0,1-5.82,0,14.26,14.26,0,0,1,5.82,0Z"/><path class="cls-8" d="M631.91,247.33a14.26,14.26,0,0,1-5.82,0,14.26,14.26,0,0,1,5.82,0Z"/><path class="cls-8" d="M685,246.88c0,.17-9.72.3-21.71.3s-21.71-.13-21.71-.3,9.72-.3,21.71-.3S685,246.72,685,246.88Z"/><path class="cls-8" d="M681.15,237.71c0,.16-9.27.3-20.7.3s-20.71-.14-20.71-.3,9.27-.3,20.71-.3S681.15,237.54,681.15,237.71Z"/><path class="cls-8" d="M692.31,191.72c0,.16-12.62.3-28.18.3s-28.18-.14-28.18-.3,12.62-.3,28.18-.3S692.31,191.55,692.31,191.72Z"/><path class="cls-7" d="M700.57,128.54c0,.17-20.37.3-45.49.3s-45.49-.13-45.49-.3,20.36-.3,45.49-.3S700.57,128.38,700.57,128.54Z"/><path class="cls-8" d="M642.6,156.94c0,.17-4.3.3-9.6.3s-9.61-.13-9.61-.3a153.91,153.91,0,0,1,19.21,0Z"/><path class="cls-8" d="M631.73,139.54c0,.17-2,.3-4.53.3s-4.54-.13-4.54-.3,2-.3,4.54-.3S631.73,139.37,631.73,139.54Z"/></g><g id="Character"><path class="cls-8" d="M551.45,344.93,571.59,325,535.67,263.5a34.76,34.76,0,0,0-13.78-9.59l-12.65-4.8-31.45-5.77-22.33,8.79a13.34,13.34,0,0,0-8.36,14l5.84,49.16,3.44,64,81.13-14.07-8.16-23.68.27-36.91Z"/><path class="cls-7" d="M530.09,340c.19,0,.24-12.79.11-28.56s-.39-28.56-.58-28.55-.24,12.78-.11,28.56S529.9,340,530.09,340Z"/><path class="cls-8" d="M527.12,349.36l-49-19.73a11.2,11.2,0,0,1-7-9.54l-3.59-47s.43-20-12.06-21l-7.1,2.8c-9.18,4.87-11.45,18.24-10.2,28.56,1.77,14.66,2.51,35.41,4.5,48.13,1.62,10.41,7.88,18.65,17.77,22.25l60.38,13.07Z"/><path class="cls-7" d="M468.23,280.26a7.89,7.89,0,0,1,.15,1.08c.08.76.18,1.8.32,3.1.25,2.75.6,6.63,1,11.39s.91,10.56,1.46,16.91c.13,1.59.27,3.23.41,4.89a35.8,35.8,0,0,0,.62,5,8.33,8.33,0,0,0,2.44,4.4,16.67,16.67,0,0,0,4.52,2.82c13.52,5.85,26,10.68,35,14.06l10.74,4,2.92,1.08a7.16,7.16,0,0,1,1,.41,7,7,0,0,1-1.05-.29l-3-1c-2.56-.85-6.26-2.12-10.81-3.76-9.09-3.28-21.57-8-35.13-13.9a17.22,17.22,0,0,1-4.7-2.94,9,9,0,0,1-2.61-4.73,37.25,37.25,0,0,1-.63-5.12q-.2-2.51-.39-4.89c-.49-6.36-.93-12.09-1.31-16.93s-.63-8.66-.83-11.42c-.08-1.3-.14-2.33-.19-3.1A5.31,5.31,0,0,1,468.23,280.26Z"/><path class="cls-7" d="M440.14,305.81a3,3,0,0,1,.1.63c0,.49.1,1.09.16,1.82.15,1.67.34,3.93.58,6.67s.61,6.16,1.1,9.86a94,94,0,0,0,2.21,11.9,17.73,17.73,0,0,0,2.4,5.68,32.43,32.43,0,0,0,3.66,4.5,31.37,31.37,0,0,0,7.84,5.88,29.28,29.28,0,0,0,8.61,2.82,2.39,2.39,0,0,1-.64,0,13.52,13.52,0,0,1-1.81-.24,24,24,0,0,1-6.37-2.15,30.71,30.71,0,0,1-8.06-5.88,32.43,32.43,0,0,1-3.77-4.56,18.23,18.23,0,0,1-2.49-5.86,88.1,88.1,0,0,1-2.18-12c-.46-3.71-.75-7.07-1-9.89s-.32-5.12-.37-6.7c0-.73,0-1.33,0-1.82A2.63,2.63,0,0,1,440.14,305.81Z"/><path class="cls-7" d="M461.1,338.7a7.22,7.22,0,0,1,.9-2.61,16.69,16.69,0,0,1,4.11-5.25,16.93,16.93,0,0,1,5.83-3.25,7.13,7.13,0,0,1,2.72-.47c0,.11-1,.31-2.57.91a19.19,19.19,0,0,0-9.69,8.28A26.27,26.27,0,0,1,461.1,338.7Z"/><g class="cls-3"><path d="M513,343.76c-5.24-3-10.37-5.23-15.85-7.72s-10.85-5.69-14.44-10.53c-6.76-9.12-6-22.28-12.92-31.27q.69,9.08,1.36,18.15c.42,5.54-.43,11,3.14,14.8,3,3.17,8.87,5.6,13,7,8.34,2.76,17.33,6.85,25.68,9.6"/></g><polygon class="cls-10" points="529.63 286.33 533.87 312.48 529.86 305.07 529.63 286.33"/><path class="cls-6" d="M466.75,270.19a5,5,0,0,1-1.14.09l-3.09.07c-2.61.07-6.21.2-10.18.49s-7.56.66-10.15,1l-3.07.37a4.46,4.46,0,0,1-1.14.07,5.33,5.33,0,0,1,1.11-.27c.72-.15,1.76-.33,3.05-.53,2.59-.4,6.18-.85,10.16-1.13s7.6-.36,10.22-.33c1.31,0,2.36,0,3.1.08A4.32,4.32,0,0,1,466.75,270.19Z"/><path class="cls-6" d="M468.14,295.22c0,.14-6.41.79-14.35,1.45s-14.38,1.07-14.39.93,6.41-.79,14.35-1.45S468.13,295.08,468.14,295.22Z"/><path class="cls-6" d="M470.51,321.54a6.12,6.12,0,0,1-1,.58c-.67.35-1.66.8-2.9,1.33A59.94,59.94,0,0,1,446.14,328c-1.35.05-2.44.06-3.19,0a6.17,6.17,0,0,1-1.17-.09,4.47,4.47,0,0,1,1.17-.11c.75,0,1.83-.1,3.17-.2a73.44,73.44,0,0,0,10.33-1.53,75.31,75.31,0,0,0,10-3c1.26-.48,2.26-.89,2.95-1.18A4.68,4.68,0,0,1,470.51,321.54Z"/><path class="cls-6" d="M487.94,335a26.74,26.74,0,0,0-4.86,3.9,26.17,26.17,0,0,0-3.39,5.24,4.71,4.71,0,0,1,.54-1.79,14,14,0,0,1,2.46-3.79,14.19,14.19,0,0,1,3.52-2.84A5,5,0,0,1,487.94,335Z"/><path class="cls-6" d="M505.67,352.36a19.14,19.14,0,0,1,5.23-9.56c.12.1-1.42,2-2.85,4.65S505.81,352.41,505.67,352.36Z"/><path class="cls-6" d="M477.73,255.47a95.78,95.78,0,0,1-14,2.52,95.14,95.14,0,0,1,14-2.52Z"/><path class="cls-6" d="M524.65,257.6a88.5,88.5,0,0,1-9.61-.87,90.26,90.26,0,0,1-9.55-1.4,90,90,0,0,1,9.61.88A92,92,0,0,1,524.65,257.6Z"/><path class="cls-6" d="M528.66,279.43a2.63,2.63,0,0,1-.61,0h-8.23c-5.46,0-13,0-21.33.25s-15.87.56-21.32.84l-6.46.34L469,281a2.59,2.59,0,0,1-.61,0,2.79,2.79,0,0,1,.61-.1l1.75-.17c1.52-.14,3.72-.32,6.45-.51,5.45-.38,13-.78,21.33-1s15.88-.2,21.34-.1c2.73.05,4.94.11,6.47.17l1.76.08A2.7,2.7,0,0,1,528.66,279.43Z"/><path class="cls-6" d="M529.24,307.07c0,.14-12.86,1.11-28.73,2.15s-28.75,1.78-28.76,1.63,12.85-1.1,28.73-2.15S529.23,306.93,529.24,307.07Z"/><path class="cls-6" d="M527.87,331.42a5.36,5.36,0,0,1-1.08.46c-.71.27-1.74.63-3,1.05-2.57.84-6.15,1.89-10.16,2.86s-7.69,1.65-10.36,2.07c-1.33.21-2.41.36-3.16.44a4.57,4.57,0,0,1-1.18.08,5.93,5.93,0,0,1,1.14-.28l3.14-.6c2.65-.51,6.3-1.26,10.3-2.22s7.58-2,10.17-2.7l3.07-.89A5.2,5.2,0,0,1,527.87,331.42Z"/><path class="cls-6" d="M548.44,287.28A91.28,91.28,0,0,1,539.1,290a88.06,88.06,0,0,1-9.47,2.18,182.77,182.77,0,0,1,18.81-4.86Z"/><path class="cls-6" d="M538.63,268.6a17.86,17.86,0,0,1-4.14,1,17.18,17.18,0,0,1-4.23.49,18,18,0,0,1,4.14-1A17.78,17.78,0,0,1,538.63,268.6Z"/><path class="cls-7" d="M468.37,274.4c-.1,0-.25-1.66-1.17-4.18a21,21,0,0,0-14.86-13.35c-2.59-.64-4.28-.62-4.27-.72a4.68,4.68,0,0,1,1.17,0,18.1,18.1,0,0,1,3.19.4,20.34,20.34,0,0,1,15.12,13.59,18,18,0,0,1,.74,3.12A4.56,4.56,0,0,1,468.37,274.4Z"/><path class="cls-7" d="M526.78,261.06a82.94,82.94,0,0,1,1.73,9.15,84,84,0,0,1,1.21,9.22,85.31,85.31,0,0,1-1.73-9.14A83.64,83.64,0,0,1,526.78,261.06Z"/><path class="cls-8" d="M581.42,408.45s37.68,10.43,39.19,11c2.27.8,1.89,9.12-1.65,9-1.67-.06-28.94,1-32.38.8s-13.84-4.31-13.84-4.31Z"/><path class="cls-7" d="M597.11,422.83c.19,0,.45-2,1.66-4.05s2.79-3.31,2.67-3.47-1.94.92-3.21,3.16A6.77,6.77,0,0,0,597.11,422.83Z"/><path class="cls-7" d="M593.19,421.05c.18,0,.56-1.75,1.57-3.72s2.18-3.35,2-3.48-1.58,1.11-2.62,3.2S593,421,593.19,421.05Z"/><path class="cls-7" d="M589.5,420.06c.19,0,0-1.89.88-4s2.19-3.39,2-3.52-1.76,1-2.64,3.29S589.35,420.11,589.5,420.06Z"/><path class="cls-7" d="M590.17,415.19a6.56,6.56,0,0,0,.4-2.8,12.89,12.89,0,0,0-.38-3.07,12.64,12.64,0,0,0-.56-1.75,2.09,2.09,0,0,0-.6-.92,1,1,0,0,0-1.3.06,1.69,1.69,0,0,0-.5,1.06,6.84,6.84,0,0,0-.05,1,8.26,8.26,0,0,0,.24,1.84,10.79,10.79,0,0,0,1.15,2.88,7.32,7.32,0,0,0,1.7,2.27c.08-.06-.55-.93-1.3-2.47a12.31,12.31,0,0,1-1-2.8,8.8,8.8,0,0,1-.18-1.72c0-.58,0-1.31.35-1.59a.38.38,0,0,1,.5,0,1.74,1.74,0,0,1,.41.66,14.85,14.85,0,0,1,.57,1.66,15.15,15.15,0,0,1,.5,3C590.24,414.11,590.07,415.18,590.17,415.19Z"/><path class="cls-7" d="M590.12,414.81a5.24,5.24,0,0,0-2.43-.39,11,11,0,0,0-2.67.33,5.77,5.77,0,0,0-1.54.56,1.58,1.58,0,0,0-.85,1.72,1.86,1.86,0,0,0,1.36,1.35,3.45,3.45,0,0,0,1.69,0,6.48,6.48,0,0,0,2.44-1.21,7,7,0,0,0,1.76-1.72,16.4,16.4,0,0,0-2,1.36,6.81,6.81,0,0,1-2.31,1,3.15,3.15,0,0,1-1.4,0,1.31,1.31,0,0,1-.92-.9,1,1,0,0,1,.56-1.05,5.81,5.81,0,0,1,1.37-.53,12.75,12.75,0,0,1,2.54-.45C589.18,414.76,590.11,414.91,590.12,414.81Z"/><path class="cls-7" d="M602.9,423.23c.19,0,0-1.63.75-3.4s2-2.8,1.84-2.95-1.64.74-2.43,2.72S602.75,423.3,602.9,423.23Z"/><path class="cls-7" d="M576.61,425a8.38,8.38,0,0,0,1.46.69,34.58,34.58,0,0,0,4.19,1.3,60.28,60.28,0,0,0,14.39,1.36c5.64-.06,10.73-.32,14.42-.47l4.37-.23a8.44,8.44,0,0,0,1.6-.17,7.91,7.91,0,0,0-1.61-.07l-4.37,0-14.41.28a67.14,67.14,0,0,1-14.29-1.17C578.76,425.78,576.66,424.85,576.61,425Z"/><path class="cls-7" d="M575.5,425.83c0,.09,1.08-.52,2.82-1.28a13.08,13.08,0,0,1,7.13-1.18c2.84.43,4.85,2.34,6.16,3.66a23.23,23.23,0,0,0,2.18,2.22,12,12,0,0,0-1.85-2.52,14.74,14.74,0,0,0-2.5-2.34,9,9,0,0,0-3.89-1.65,12.47,12.47,0,0,0-7.42,1.41A9.8,9.8,0,0,0,575.5,425.83Z"/><path class="cls-8" d="M536.82,399.7S501.17,423.05,499.89,424c-1.92,1.45.28,8.35,3.61,7.16,1.57-.57,31.49-8.89,34.71-10.14s11.88-8.31,11.88-8.31Z"/><path class="cls-7" d="M526.23,418.17c.16,0-.47-2.09-2.38-3.82a6.82,6.82,0,0,0-4-2c-.06.18,1.83.86,3.59,2.5S526.06,418.25,526.23,418.17Z"/><path class="cls-7" d="M529.44,415.28c.15-.06-.54-1.85-2.18-3.51s-3.4-2.39-3.46-2.24,1.47,1.1,3,2.68S529.27,415.37,529.44,415.28Z"/><path class="cls-7" d="M532.65,413.22c.16,0,0-2-1.56-3.92s-3.49-2.5-3.52-2.34,1.63,1,3,2.73S532.46,413.27,532.65,413.22Z"/><path class="cls-7" d="M530.53,408.79c.1-.05-.39-1-.8-2.67a14.23,14.23,0,0,1-.42-3,11.48,11.48,0,0,1,0-1.75,1.6,1.6,0,0,1,.19-.76.36.36,0,0,1,.49-.11c.4.16.62.86.81,1.4a8.71,8.71,0,0,1,.35,1.7,12.37,12.37,0,0,1-.09,3c-.25,1.69-.59,2.72-.49,2.75a7.58,7.58,0,0,0,.93-2.68,11.3,11.3,0,0,0,.23-3.09,8.76,8.76,0,0,0-.34-1.83,6.55,6.55,0,0,0-.35-.93,1.67,1.67,0,0,0-.8-.87,1,1,0,0,0-1.26.33,2.21,2.21,0,0,0-.29,1.07,12.42,12.42,0,0,0,0,1.83,13,13,0,0,0,.57,3.05A6.85,6.85,0,0,0,530.53,408.79Z"/><path class="cls-7" d="M530.46,408.41c0,.09.88-.34,2.32-.69a12.12,12.12,0,0,1,2.55-.34,5.52,5.52,0,0,1,1.47.09,1,1,0,0,1,.85.83,1.28,1.28,0,0,1-.6,1.13,2.88,2.88,0,0,1-1.33.44,6.58,6.58,0,0,1-2.5-.25,16.75,16.75,0,0,0-2.33-.68,6.72,6.72,0,0,0,2.19,1.11,6.46,6.46,0,0,0,2.7.4,3.37,3.37,0,0,0,1.61-.51,1.87,1.87,0,0,0,.89-1.69,1.59,1.59,0,0,0-1.34-1.38,5.78,5.78,0,0,0-1.64-.08,11.48,11.48,0,0,0-2.64.5A5.29,5.29,0,0,0,530.46,408.41Z"/><path class="cls-7" d="M508,429.88c0,.05.6-.36.87-1.39a5.27,5.27,0,0,0-.66-3.86,13.76,13.76,0,0,0-1.2-1.78,6.38,6.38,0,0,0-1.21-1.3,2.11,2.11,0,0,0-1.14-.48c-.3,0-.45.06-.44.1a3.24,3.24,0,0,1,1.29.72,7.55,7.55,0,0,1,1,1.3,18.68,18.68,0,0,1,1.11,1.74,5.49,5.49,0,0,1,.79,3.47A14.81,14.81,0,0,1,508,429.88Z"/><path class="cls-7" d="M520.84,420.31c.17,0,.12-1.79-1.25-3.41s-3.13-2-3.14-1.85,1.44.77,2.65,2.25S520.66,420.35,520.84,420.31Z"/><path class="cls-7" d="M546.42,414a11.73,11.73,0,0,0-1.57,1.07,43.51,43.51,0,0,1-4.39,2.69,58,58,0,0,1-7,3.11c-2.7,1-5.72,2-8.93,2.89-6.41,1.84-12.22,3.53-16.41,4.79l-4.95,1.52a12.49,12.49,0,0,0-1.8.64,9.52,9.52,0,0,0,1.86-.4l5-1.33c4.23-1.15,10-2.77,16.47-4.62,3.21-.93,6.25-1.9,9-2.94a51.49,51.49,0,0,0,7-3.27,34.84,34.84,0,0,0,4.33-2.88A11.58,11.58,0,0,0,546.42,414Z"/><path class="cls-7" d="M547.74,414.46a10.06,10.06,0,0,0-3-.8,12.47,12.47,0,0,0-7.49.92,8.8,8.8,0,0,0-3.21,2.75,14.39,14.39,0,0,0-1.67,3,11.55,11.55,0,0,0-1,3,23.78,23.78,0,0,0,1.39-2.78,11.34,11.34,0,0,1,4.76-5.36,13.09,13.09,0,0,1,7.15-1C546.55,414.3,547.72,414.56,547.74,414.46Z"/><path class="cls-7" d="M610.94,341.32s10.7,3.82,10.74,15.82c.09,23-46.41,48.29-46.41,48.29l-61.89-41-3.88-1.57S593,331.48,610.94,341.32Z"/><path class="cls-6" d="M544.73,385.14a13.06,13.06,0,0,0,1.61-1.09c1-.74,2.46-1.83,4.23-3.2,3.55-2.74,8.37-6.62,13.55-11.07s9.76-8.64,13-11.72c1.62-1.55,2.92-2.81,3.8-3.7a11.39,11.39,0,0,0,1.32-1.43,11,11,0,0,0-1.49,1.25l-3.93,3.55c-3.32,3-7.93,7.12-13.11,11.57s-10,8.38-13.41,11.2l-4.11,3.35A10.51,10.51,0,0,0,544.73,385.14Z"/><path class="cls-6" d="M593.47,349.91c0-.15-2.73-.42-6,.54s-5.41,2.67-5.3,2.79,2.36-1.28,5.48-2.18S593.48,350.1,593.47,349.91Z"/><path class="cls-6" d="M588.14,346.29c0-.15-2,.72-3.67,2.76s-2.08,4.14-1.92,4.17.85-1.87,2.41-3.78S588.24,346.45,588.14,346.29Z"/><path class="cls-7" d="M614.35,419c0-.07-.74-.22-1.6.49a5.79,5.79,0,0,0-1.79,3.59,7,7,0,0,0,.57,4c.43.94.92,1.38,1,1.34s-.25-.58-.56-1.51a8,8,0,0,1-.35-3.7,6.18,6.18,0,0,1,1.46-3.35C613.71,419.16,614.36,419.13,614.35,419Z"/><path class="cls-2" d="M606.52,308.69l-17.61,47.43a6.81,6.81,0,0,1-6.49,4.45L485.5,359.3v-7.37l36,1.32,15.27-47.34a3.87,3.87,0,0,1,3.69-2.68l62.52.18A3.86,3.86,0,0,1,606.52,308.69Z"/><path class="cls-7" d="M606.52,308.69s0-.05,0-.15a4.05,4.05,0,0,0,.12-.44,3.71,3.71,0,0,0,0-1.78,3.84,3.84,0,0,0-1.7-2.29,3.7,3.7,0,0,0-1.76-.56c-.67,0-1.39,0-2.15,0l-26.08,0-18.28,0-10.26,0H541a4.21,4.21,0,0,0-2.58.57,3.72,3.72,0,0,0-1.6,2.1l-15.22,47.26,0,.11h-.11l-36-1.31.16-.16v7.37l-.16-.16,61,.82,26.49.36,6.11.09,3,0a7.21,7.21,0,0,0,2.82-.41,6.73,6.73,0,0,0,3.89-3.74c.64-1.73,1.27-3.41,1.89-5.06,4.91-13.17,8.88-23.81,11.62-31.17,1.37-3.66,2.44-6.5,3.17-8.44s1.12-2.94,1.12-2.94-.36,1-1.07,3-1.76,4.8-3.11,8.47c-2.72,7.36-6.66,18-11.53,31.2l-1.88,5.06a7,7,0,0,1-4,3.88,7.31,7.31,0,0,1-2.9.43l-3,0-6.1-.07-26.5-.34-60.94-.78h-.16v-7.68h.17l36,1.32-.15.1c5.49-17,10.64-32.93,15.26-47.25a4,4,0,0,1,1.72-2.25,4.49,4.49,0,0,1,2.71-.6l5.4,0,10.26,0,18.28.07,26.08.12c.76,0,1.48,0,2.16,0a3.88,3.88,0,0,1,3.5,2.93,3.74,3.74,0,0,1,0,1.8A3.57,3.57,0,0,1,606.52,308.69Z"/><path class="cls-1" d="M563.54,326.63a4.32,4.32,0,0,1,4.71.5,3.8,3.8,0,0,1,.93,4.17,4.13,4.13,0,0,1-3.54,2.47,3.71,3.71,0,0,1-3.74-2.47c-.45-1.55.05-3.86,1.64-4.67"/><path class="cls-7" d="M585.7,408s-87.34-55.95-91.2-58.14c-3.28-1.87-12.05-7.27-20.7-4.89s-16.41,10.15-20.29,21.49c-2.22,6.47-3.26,17.53-3.76,25.81a38.35,38.35,0,0,0,9,27.31c2.95,3.42,6.58,6.4,10.9,7.74.91.28,1.86.53,2.83.74,16.53,3.58,33.52-3.84,42.8-18l2-3.11s57.2,21,58.1,20.72Z"/><path class="cls-6" d="M499,353a.75.75,0,0,1-.22-.12l-.61-.42c-.53-.37-1.32-.92-2.36-1.58a46.37,46.37,0,0,0-9.27-4.72,25.09,25.09,0,0,0-7-1.47,20,20,0,0,0-8,1.31,26,26,0,0,0-7.73,4.69,34.92,34.92,0,0,0-3.42,3.36,24.8,24.8,0,0,0-2.84,4,41.17,41.17,0,0,0-3.77,9c-.82,3-1.48,6.05-2.11,8.9a81.63,81.63,0,0,0-2,15.32,55.54,55.54,0,0,0,.8,10.39c.19,1.22.4,2.15.54,2.79l.14.72a.8.8,0,0,1,0,.25s0-.08-.08-.24-.12-.42-.2-.71c-.16-.63-.41-1.56-.63-2.78a51.73,51.73,0,0,1-1-10.43,80,80,0,0,1,1.91-15.41c.62-2.87,1.26-5.85,2.09-8.94a41.45,41.45,0,0,1,3.81-9.12,24.59,24.59,0,0,1,2.9-4.12,36,36,0,0,1,3.48-3.41,26.49,26.49,0,0,1,7.89-4.75,20.37,20.37,0,0,1,8.22-1.29,24.7,24.7,0,0,1,7.09,1.56,43.5,43.5,0,0,1,9.26,4.89c1,.69,1.8,1.27,2.31,1.66l.59.46Z"/><path class="cls-6" d="M477.53,392.23s.15.08.47.21l1.44.57,5.54,2.13,20.6,7.76c8.75,3.27,19.23,7.15,31,11.43s24.8,9,38.72,13.68l.25.09.13-.24,6.83-13c1.19-2.28,2.37-4.55,3.48-6.66l.13-.25-.24-.16-66.7-42.34-20-12.64-5.44-3.39-1.42-.87c-.32-.19-.5-.28-.5-.28s.15.12.46.33l1.39.92L499,353l19.93,12.81,66.59,42.5-.11-.41-3.48,6.65c-2.34,4.47-4.64,8.88-6.83,13.05l.38-.15c-13.91-4.7-27-9.37-38.73-13.61l-31-11.3-20.67-7.58-5.58-2-1.45-.51A5,5,0,0,0,477.53,392.23Z"/><path d="M482.05,206.63a44.56,44.56,0,0,1-3.88-9.28,15.13,15.13,0,0,1,.51-9.88c.82-1.79,2.09-3.36,2.73-5.22.88-2.56.52-5.58,2.11-7.77,2.47-3.43,7.77-2.63,11.6-4.43,3-1.39,5.06-4.41,8.2-5.41,2.74-.88,5.72,0,8.37,1.09s5.22,2.58,8.08,3a57.15,57.15,0,0,0,6.14,0,8.06,8.06,0,0,1,5.67,2c1.45,1.46,1.75,4.15.19,5.48,3.58-.61,7,3,6.92,6.61s-2.79,6.84-6.1,8.35-7.09,1.61-10.71,1.33c-10.27-.8-20.59-4.7-27.58-12.27"/><path class="cls-11" d="M484.26,193.78l-7,50.85a15.27,15.27,0,0,0,13.8,17.29h0a15.28,15.28,0,0,0,16.46-13.15c.52-3.83,1-7,1-7.41,0,0,13.12.56,15.81-12.12,1.31-6.13,3-19,4.33-30.61a24.15,24.15,0,0,0-19.27-26.48l-1.22-.25C494.82,170,485.76,180.35,484.26,193.78Z"/><path class="cls-12" d="M508.62,241.18a30.14,30.14,0,0,1-15.63-8s2.09,9.93,15,11.32Z"/><path class="cls-7" d="M523,209.44a1.85,1.85,0,0,1-2.12,1.48,1.76,1.76,0,0,1-1.54-2,1.84,1.84,0,0,1,2.11-1.48A1.78,1.78,0,0,1,523,209.44Z"/><path class="cls-7" d="M524.72,204.33c-.27.19-1.44-1.1-3.4-1.49s-3.58.31-3.74,0c-.09-.12.23-.5.94-.83a5.15,5.15,0,0,1,3.06-.32,4.93,4.93,0,0,1,2.65,1.48C524.74,203.77,524.85,204.24,524.72,204.33Z"/><path class="cls-7" d="M504.77,206.3a1.85,1.85,0,0,1-2.11,1.48,1.78,1.78,0,0,1-1.55-2,1.86,1.86,0,0,1,2.12-1.49A1.77,1.77,0,0,1,504.77,206.3Z"/><path class="cls-7" d="M505.44,200.85c-.27.2-1.44-1.1-3.4-1.48s-3.58.3-3.74,0c-.09-.13.23-.51.94-.84a5.08,5.08,0,0,1,3.06-.31,4.86,4.86,0,0,1,2.65,1.48C505.45,200.3,505.57,200.77,505.44,200.85Z"/><path class="cls-7" d="M509.64,216.76a13.42,13.42,0,0,1,3.29.06c.51.05,1,.05,1.15-.28a2.54,2.54,0,0,0,0-1.54c-.23-1.3-.46-2.67-.71-4.1-1-5.82-1.57-10.56-1.33-10.6s1.21,4.65,2.18,10.47c.22,1.43.44,2.8.65,4.11a3,3,0,0,1-.14,2,1.28,1.28,0,0,1-1,.56,3.88,3.88,0,0,1-.87,0A12.94,12.94,0,0,1,509.64,216.76Z"/><path class="cls-7" d="M503.62,217c.32,0-.1,2.17,1.41,4s3.82,2.08,3.78,2.38c0,.14-.59.32-1.55.15a5.37,5.37,0,0,1-3.17-1.87,4.72,4.72,0,0,1-1-3.36C503.13,217.4,503.48,216.92,503.62,217Z"/><path d="M507.48,193.3c-.3.49-2.2-.15-4.55-.33s-4.33.07-4.54-.47c-.09-.25.34-.69,1.19-1.05a7.52,7.52,0,0,1,3.53-.5,7.77,7.77,0,0,1,3.39,1.1C507.27,192.56,507.61,193.06,507.48,193.3Z"/><path d="M525.13,198.53c-.43.37-1.68-.36-3.3-.7s-3.05-.3-3.27-.83c-.09-.25.21-.65.9-.95a4.62,4.62,0,0,1,2.83-.19,4.67,4.67,0,0,1,2.46,1.42C525.23,197.85,525.33,198.34,525.13,198.53Z"/><path class="cls-11" d="M483.42,203.4c-.2-.13-8.22-4.33-9.68,4.42s7.62,8.41,7.68,8.16S483.42,203.4,483.42,203.4Z"/><path class="cls-12" d="M479.3,212.22s-.17.08-.45.16a1.54,1.54,0,0,1-1.14-.17c-.87-.49-1.4-2.09-1.18-3.67a5,5,0,0,1,.79-2.11,1.75,1.75,0,0,1,1.34-1,.79.79,0,0,1,.83.57c.08.26,0,.43,0,.45s.21-.12.2-.49a1,1,0,0,0-.25-.6,1.19,1.19,0,0,0-.81-.37,2.21,2.21,0,0,0-1.82,1.09,5.24,5.24,0,0,0-.93,2.35c-.24,1.78.39,3.58,1.59,4.15a1.6,1.6,0,0,0,1.43,0C479.25,212.43,479.33,212.24,479.3,212.22Z"/><path class="cls-13" d="M531.22,186.82c-1.5,3.24-9.22,4.48-14.88,2.78-5.22-1.58-7.11-4.89-10.43-7.78-2.1-1.82-2.1-1.82-5.52-2.18-2.77-.28-5,2.48-7.09,4.31,1.17,7-1.93,13.84-4.94,20.21A3.49,3.49,0,0,1,487,206c-1.19.59-2.6-.34-3.31-1.45a10.94,10.94,0,0,1-1.23-6.14,36.54,36.54,0,0,1,2.9-14.09,24.82,24.82,0,0,1,9.15-10.95,23.54,23.54,0,0,1,17.4-2.88,28.87,28.87,0,0,1,15.25,9.16,16.89,16.89,0,0,1,4.11,7.21"/><path class="cls-7" d="M513.42,208c.08,0,.05-.75.4-2a8.43,8.43,0,0,1,3.1-4.5,8.21,8.21,0,0,1,7.74-1.11,8.05,8.05,0,0,1,3.76,2.84,8.08,8.08,0,0,1,0,9.6,8,8,0,0,1-3.76,2.84,8.21,8.21,0,0,1-7.74-1.11,8.37,8.37,0,0,1-3.1-4.5c-.35-1.28-.32-2-.4-2a1.65,1.65,0,0,0,0,.54,7,7,0,0,0,.17,1.56,8.52,8.52,0,0,0,3.06,4.83,8.76,8.76,0,1,0,0-13.86,8.49,8.49,0,0,0-3.06,4.83,7,7,0,0,0-.17,1.56A1.65,1.65,0,0,0,513.42,208Z"/><path class="cls-7" d="M492.67,204.35c.08,0,.05-.76.4-2a8.41,8.41,0,0,1,3.1-4.49,8.24,8.24,0,0,1,7.74-1.12,8.07,8.07,0,0,1,3.76,2.85,8.07,8.07,0,0,1,0,9.59,8,8,0,0,1-3.76,2.85,8.21,8.21,0,0,1-7.74-1.11,8.46,8.46,0,0,1-3.1-4.5c-.35-1.28-.32-2-.4-2a1.6,1.6,0,0,0,0,.54,7,7,0,0,0,.17,1.56,8.47,8.47,0,0,0,3.06,4.82,8.75,8.75,0,1,0,0-13.85,8.49,8.49,0,0,0-3.06,4.83,6.88,6.88,0,0,0-.17,1.55A1.69,1.69,0,0,0,492.67,204.35Z"/><path class="cls-7" d="M509.77,204.64c.08.18,1.2-.34,2.49.05s1.94,1.43,2.11,1.33,0-.37-.25-.81a3.08,3.08,0,0,0-1.66-1.19,3.13,3.13,0,0,0-2,.08C509.94,204.31,509.72,204.56,509.77,204.64Z"/><path class="cls-7" d="M480.92,202.11c0,.19,2.79.31,6.23.26s6.22-.24,6.22-.44-2.8-.31-6.23-.27S480.91,201.91,480.92,202.11Z"/><path class="cls-1" d="M535.3,178.47a2.42,2.42,0,0,1-.13.84,4.21,4.21,0,0,1-1.31,1.88,5.78,5.78,0,0,1-3.15,1.29,15.74,15.74,0,0,1-4.17-.22,71.16,71.16,0,0,1-7.43-1.5c-.93-.24-1.69-.46-2.21-.62l-.59-.19c-.14,0-.21-.07-.2-.08l.21,0,.61.15,2.22.56c1.88.45,4.5,1,7.42,1.43a16.34,16.34,0,0,0,4.12.24,5.76,5.76,0,0,0,3.07-1.21,4.15,4.15,0,0,0,1.33-1.8A6.2,6.2,0,0,0,535.3,178.47Z"/><path class="cls-1" d="M537.24,180.46a8.07,8.07,0,0,1-.75,2.39,10.2,10.2,0,0,1-9.86,5.9,8.09,8.09,0,0,1-2.46-.47,5.3,5.3,0,0,1,.66.12,10,10,0,0,0,1.8.2,10.37,10.37,0,0,0,9.73-5.81,10.91,10.91,0,0,0,.68-1.69A5.66,5.66,0,0,1,537.24,180.46Z"/></g></g></svg>