<svg xmlns="http://www.w3.org/2000/svg" viewBox="0 0 701.5 385.34"><defs><style>.cls-1{fill:#ff725e;}.cls-2{fill:#263238;}.cls-3{fill:#bc4946;}.cls-4{fill:#ebebeb;}.cls-5{fill:#f5f5f5;}.cls-6{fill:#455a64;}.cls-7{fill:#e0e0e0;}.cls-8{fill:#fafafa;}.cls-11,.cls-9{opacity:0.3;}.cls-10{fill:#fff;}.cls-11{isolation:isolate;}.cls-12{fill:#ffbe9d;}.cls-13{fill:#eb996e;}.cls-14{fill:#0f0e0e;}</style></defs><g id="Layer_2" data-name="Layer 2"><g id="Layer_1-2" data-name="Layer 1"><g id="Background_Complete" data-name="Background Complete"><path class="cls-1" d="M668.5,302a23,23,0,0,1,13.7-1.7c2.5.4,5.1,1.1,6.8,3s2,5.1.1,6.8a7.3,7.3,0,0,1-4.3,1.1c-3.6,0-7.6-.7-10.5,1.5-1.7,1.2-2.7,3.3-4.7,3.9a4.63,4.63,0,0,1-5.1-2.3,8.56,8.56,0,0,1-.6-5.9A8.68,8.68,0,0,1,668.5,302Z"/><path class="cls-1" d="M658.9,283.6c2.5,3.6,7.5,2.4,9.8.2s3.3-5.4,4.2-8.5c2-7,4-14.4,2.5-21.5a11.28,11.28,0,0,0-2.8-5.8,6.26,6.26,0,0,0-5.9-2c-2.5.7-4,3.1-5.2,5.4a52.52,52.52,0,0,0-5.1,22c.1,3.5.5,7.3,2.5,10.2"/><path class="cls-1" d="M651.9,288.8c2.8-3.3,3.3-8.1,2.1-12.2a23.9,23.9,0,0,0-7.2-10.5,39.25,39.25,0,0,0-12.9-7.6,14.19,14.19,0,0,0-5.8-1,6.23,6.23,0,0,0-4.9,2.9c-1.3,2.6,0,5.7,1.4,8.3a92.71,92.71,0,0,0,8.5,12.9c2.5,3.3,5.5,6.5,9.3,8s7.9,1.3,10-1.4"/><path class="cls-2" d="M658.8,338.5a8.75,8.75,0,0,0,.2-1.6c.1-1.2.3-2.7.4-4.5a48.4,48.4,0,0,1,1-6.6,50.41,50.41,0,0,1,2.4-7.8,29.38,29.38,0,0,1,4-7.1,14.6,14.6,0,0,1,5-4.2,12.8,12.8,0,0,1,4.2-1.3,7.77,7.77,0,0,0,1.6-.2,4.85,4.85,0,0,0-1.7,0,13.56,13.56,0,0,0-4.4,1.1,14.56,14.56,0,0,0-5.3,4.2,28.53,28.53,0,0,0-4.1,7.2,55.26,55.26,0,0,0-2.4,7.9c-.4,2.2-.7,4.4-.9,6.7-.1,1.9-.2,3.5-.2,4.5C658.7,337.4,658.7,337.9,658.8,338.5Z"/><path class="cls-2" d="M659.1,335v-3c0-1.9,0-4.7.1-8.1.2-6.8.8-14.1,1.9-24.4,1.1-9.7,2.5-21,4-28.3.3-1.7.7-3.2,1-4.5s.5-2.5.8-3.4a14.91,14.91,0,0,0,.5-2.1,2,2,0,0,0,.1-.8c-.1.2-.2.5-.3.7a14.24,14.24,0,0,0-.6,2.1c-.2.9-.6,2-.9,3.4s-.7,2.8-1.1,4.5a235.86,235.86,0,0,0-4.2,26.3c-1.1,10.3-1.6,19.8-1.7,26.6,0,3.4,0,6.2.1,8.1a18.55,18.55,0,0,1,.1,2.2A6.37,6.37,0,0,1,659.1,335Z"/><path class="cls-2" d="M659.1,316.8a8.85,8.85,0,0,0,0-2.3c-.1-1.5-.3-3.6-.7-6.2-.5-3-1.2-6-2-9a68.08,68.08,0,0,0-3.8-10.7,57.49,57.49,0,0,0-11.1-17.3,19.47,19.47,0,0,0-2.6-2.4,11,11,0,0,1-1.1-1l-1-.7a10,10,0,0,0-1.9-1.2,66.39,66.39,0,0,1,6.3,5.6A61.61,61.61,0,0,1,652,288.8a78.64,78.64,0,0,1,3.8,10.6,73.16,73.16,0,0,1,2.1,9,56.18,56.18,0,0,1,.9,6.1C658.9,315.3,659,316.1,659.1,316.8Z"/><polygon class="cls-3" points="641.6 348.9 643.4 373.8 675.4 373.8 677.2 348.9 641.6 348.9"/><rect class="cls-3" x="638.5" y="339" width="42.6" height="9.8"/><polygon class="cls-4" points="638.5 372.8 638.5 375.5 640.5 375.5 680.3 375.5 680.3 372.8 638.5 372.8"/><polygon class="cls-3" points="642.4 380.3 640.5 375.5 678.8 375.5 676.5 380.3 642.4 380.3"/><path class="cls-5" d="M676.6,357a.22.22,0,0,1-.2.2,2.65,2.65,0,0,1-.5.6l-1.9,2.4-.1.1-.1-.1-4.6-6.3h.3l-4.5,6.4-.1.2-.2-.2-5.3-6.4h.3l-.3.4-4.8,6-.2.2-.1-.2c-1.6-2.3-3.2-4.4-4.5-6.4h.3l-5.5,6.3-.1.1-.1-.1c-.7-1.2-1.3-2.2-1.7-2.9l-.5-.8a.37.37,0,0,1-.1-.3l.2.2.5.7,1.8,2.9h-.2l5.5-6.4.1-.2.1.2,4.6,6.4h-.3l4.8-6,.3-.4.2-.2.2.2,5.3,6.4h-.3l4.5-6.4.1-.2.1.2,4.5,6.4H674l1.9-2.3.5-.6C676.6,357.1,676.6,357,676.6,357Z"/><path class="cls-2" d="M677.7,348.7c0,.1-8,.2-17.9.2s-17.9-.1-17.9-.2,8-.2,17.9-.2S677.7,348.6,677.7,348.7Z"/><path class="cls-5" d="M679.3,375.8c0,.1-8.7.2-19.5.2s-19.5-.1-19.5-.2,8.7-.2,19.5-.2S679.3,375.7,679.3,375.8Z"/></g><g id="Device"><path class="cls-6" d="M85,28.2H595.9a6.7,6.7,0,0,1,6.7,6.7V361A14.62,14.62,0,0,1,588,375.6H91.8A14.62,14.62,0,0,1,77.2,361h0V36A7.81,7.81,0,0,1,85,28.2Z"/><path class="cls-6" d="M55.3,349.9H624.5v16.7a13.66,13.66,0,0,1-13.7,13.7H69a13.72,13.72,0,0,1-13.7-13.7V349.9Z"/><rect class="cls-7" x="91.4" y="42" width="495.7" height="293.4"/><polygon class="cls-2" points="288.2 349.9 295.2 361.2 394.6 361.2 401.2 349.9 288.2 349.9"/><rect class="cls-2" x="106.1" y="59" width="467.5" height="276.4"/><path class="cls-7" d="M142,327.3c-.2,0-.4-58.9-.4-131.5s.2-131.5.4-131.5.4,58.8.4,131.5S142.2,327.3,142,327.3Z"/><path class="cls-7" d="M132.5,88.2c0,.2-3.4.4-7.6.4s-7.6-.2-7.6-.4,3.4-.4,7.6-.4S132.5,87.9,132.5,88.2Z"/><path class="cls-7" d="M133.1,73.3c0,.2-3.4.4-7.6.4s-7.6-.2-7.6-.4,3.4-.4,7.6-.4S133.1,73,133.1,73.3Z"/><path class="cls-7" d="M132.5,104.3c0,.2-3.4.4-7.6.4s-7.6-.2-7.6-.4,3.4-.4,7.6-.4S132.5,104,132.5,104.3Z"/><path class="cls-7" d="M132.5,120.3c0,.2-3.4.4-7.6.4s-7.6-.2-7.6-.4,3.4-.4,7.6-.4S132.5,120.1,132.5,120.3Z"/><path class="cls-7" d="M132.5,136.4c0,.2-3.4.4-7.6.4s-7.6-.2-7.6-.4,3.4-.4,7.6-.4S132.5,136.2,132.5,136.4Z"/><path class="cls-7" d="M132.5,152.5c0,.2-3.4.4-7.6.4s-7.6-.2-7.6-.4,3.4-.4,7.6-.4S132.5,152.3,132.5,152.5Z"/><path class="cls-7" d="M132.5,168.6c0,.2-3.4.4-7.6.4s-7.6-.2-7.6-.4,3.4-.4,7.6-.4S132.5,168.4,132.5,168.6Z"/><path class="cls-7" d="M132.5,184.7c0,.2-3.4.4-7.6.4s-7.6-.2-7.6-.4,3.4-.4,7.6-.4S132.5,184.4,132.5,184.7Z"/><path class="cls-7" d="M132.5,200.8c0,.2-3.4.4-7.6.4s-7.6-.2-7.6-.4,3.4-.4,7.6-.4S132.5,200.5,132.5,200.8Z"/><path class="cls-7" d="M132.5,216.8c0,.2-3.4.4-7.6.4s-7.6-.2-7.6-.4,3.4-.4,7.6-.4S132.5,216.6,132.5,216.8Z"/><path class="cls-7" d="M132.5,232.9c0,.2-3.4.4-7.6.4s-7.6-.2-7.6-.4,3.4-.4,7.6-.4S132.5,232.7,132.5,232.9Z"/><path class="cls-7" d="M132.5,249c0,.2-3.4.4-7.6.4s-7.6-.2-7.6-.4,3.4-.4,7.6-.4S132.5,248.8,132.5,249Z"/><path class="cls-7" d="M132.5,265.1c0,.2-3.4.4-7.6.4s-7.6-.2-7.6-.4,3.4-.4,7.6-.4S132.5,264.9,132.5,265.1Z"/><path class="cls-7" d="M132.5,281.2c0,.2-3.4.4-7.6.4s-7.6-.2-7.6-.4,3.4-.4,7.6-.4S132.5,280.9,132.5,281.2Z"/><path class="cls-7" d="M132.5,297.2c0,.2-3.4.4-7.6.4s-7.6-.2-7.6-.4,3.4-.4,7.6-.4S132.5,297,132.5,297.2Z"/><path class="cls-7" d="M132.5,313.3c0,.2-3.4.4-7.6.4s-7.6-.2-7.6-.4,3.4-.4,7.6-.4S132.5,313.1,132.5,313.3Z"/><path class="cls-1" d="M193.4,87.2c0,.2-8.8.4-19.7.4s-19.7-.1-19.7-.4,8.8-.4,19.7-.4S193.4,87,193.4,87.2Z"/><path class="cls-1" d="M193.4,313.3c0,.2-8.8.4-19.7.4s-19.7-.2-19.7-.4,8.8-.4,19.7-.4S193.4,313.1,193.4,313.3Z"/><path class="cls-1" d="M248.3,120.3c0,.2-16.5.4-36.9.4s-36.9-.2-36.9-.4,16.5-.4,36.9-.4S248.3,120.1,248.3,120.3Z"/><path class="cls-7" d="M333.6,120.3c0,.2-16.5.4-36.9.4s-36.9-.2-36.9-.4,16.5-.4,36.9-.4S333.6,120.1,333.6,120.3Z"/><path class="cls-7" d="M301,136.4c0,.2-24.3.4-54.3.4s-54.3-.2-54.3-.4,24.3-.4,54.3-.4S301,136.2,301,136.4Z"/><path class="cls-7" d="M301,152.5c0,.2-24.3.4-54.3.4s-54.3-.2-54.3-.4,24.3-.4,54.3-.4S301,152.3,301,152.5Z"/><path class="cls-7" d="M375.8,200.8c0,.2-24.3.4-54.3.4s-54.4-.2-54.4-.4,24.3-.4,54.4-.4S375.8,200.5,375.8,200.8Z"/><path class="cls-7" d="M343.5,168.6c0,.2-24.3.4-54.3.4s-54.4-.2-54.4-.4,24.3-.4,54.4-.4S343.5,168.4,343.5,168.6Z"/><path class="cls-7" d="M476.3,168.6c0,.2-24.3.4-54.3.4s-54.4-.2-54.4-.4,24.3-.4,54.4-.4S476.3,168.4,476.3,168.6Z"/><path class="cls-8" d="M430.1,136.4c0,.2-24.3.4-54.3.4s-54.3-.2-54.3-.4,24.3-.4,54.3-.4S430.1,136.2,430.1,136.4Z"/><path class="cls-8" d="M505.2,200.8c0,.2-24.3.4-54.3.4s-54.3-.2-54.3-.4,24.3-.4,54.3-.4S505.2,200.5,505.2,200.8Z"/><path class="cls-6" d="M490.2,152.5c0,.2-37.8.4-84.4.4s-84.4-.2-84.4-.4,37.8-.4,84.4-.4S490.2,152.3,490.2,152.5Z"/><path class="cls-8" d="M193.4,104.3c0,.2-8.8.4-19.7.4s-19.7-.2-19.7-.4,8.8-.4,19.7-.4S193.4,104,193.4,104.3Z"/><path class="cls-8" d="M193.4,297.2c0,.2-8.8.4-19.7.4s-19.7-.2-19.7-.4,8.8-.4,19.7-.4S193.4,297,193.4,297.2Z"/><path class="cls-8" d="M212.9,168.6c0,.2-8.8.4-19.7.4s-19.7-.2-19.7-.4,8.8-.4,19.7-.4S212.9,168.4,212.9,168.6Z"/><path class="cls-1" d="M528.8,168.6c0,.2-8.8.4-19.7.4s-19.7-.2-19.7-.4,8.8-.4,19.7-.4S528.8,168.4,528.8,168.6Z"/><path class="cls-1" d="M248.3,232.8c0,.2-16.5.4-36.9.4s-36.9-.2-36.9-.4,16.5-.4,36.9-.4S248.3,232.6,248.3,232.8Z"/><path class="cls-7" d="M333.6,232.8c0,.2-16.5.4-36.9.4s-36.9-.2-36.9-.4,16.5-.4,36.9-.4S333.6,232.6,333.6,232.8Z"/><path class="cls-7" d="M301,248.9c0,.2-24.3.4-54.3.4s-54.3-.2-54.3-.4,24.3-.4,54.3-.4S301,248.7,301,248.9Z"/><path class="cls-7" d="M301,265c0,.2-24.3.4-54.3.4s-54.3-.2-54.3-.4,24.3-.4,54.3-.4S301,264.8,301,265Z"/><path class="cls-7" d="M343.5,281.1c0,.2-24.3.4-54.3.4s-54.4-.2-54.4-.4,24.3-.4,54.4-.4S343.5,280.8,343.5,281.1Z"/><path class="cls-7" d="M476.3,281.1c0,.2-24.3.4-54.3.4s-54.4-.2-54.4-.4,24.3-.4,54.4-.4S476.3,280.8,476.3,281.1Z"/><path class="cls-8" d="M430.1,248.9c0,.2-24.3.4-54.3.4s-54.3-.2-54.3-.4,24.3-.4,54.3-.4S430.1,248.7,430.1,248.9Z"/><path class="cls-6" d="M490.2,265c0,.2-37.8.4-84.4.4s-84.4-.2-84.4-.4,37.8-.4,84.4-.4S490.2,264.8,490.2,265Z"/><path class="cls-8" d="M212.9,281.1c0,.2-8.8.4-19.7.4s-19.7-.2-19.7-.4,8.8-.4,19.7-.4S212.9,280.8,212.9,281.1Z"/><path class="cls-1" d="M528.8,281.1c0,.2-8.8.4-19.7.4s-19.7-.2-19.7-.4,8.8-.4,19.7-.4S528.8,280.8,528.8,281.1Z"/><path class="cls-2" d="M539.3,360.1c0,.1-100.6.3-224.8.3s-224.8-.1-224.8-.3,100.6-.3,224.8-.3S539.3,360,539.3,360.1Z"/></g><g id="Plant"><path class="cls-1" d="M73,271.9A57.22,57.22,0,0,0,18.5,257a98.62,98.62,0,0,0,55.1,17.2"/><path class="cls-1" d="M54.5,206.5c2.3-16-4-34.1-16-45.8-.4,16,6.3,33.9,16,45.8"/><path class="cls-1" d="M64.1,236.9a85.69,85.69,0,0,0-39.3-37.6,54.36,54.36,0,0,0,39.5,37.8"/><path class="cls-1" d="M66.1,242.7c-9.7.3-19.5-.1-28.9-2.6s-18.4-7.2-24.6-14.7a96.4,96.4,0,0,1,53.3,16.3"/><path class="cls-1" d="M61.2,223.4c4.9-18.4,13-31.2,27.5-41.5a38.29,38.29,0,0,1-27.5,41.5"/><path class="cls-1" d="M97.7,255.2A27.16,27.16,0,0,0,81.1,230c.9,9.5,8.4,20.5,16.6,25.2"/><path class="cls-1" d="M102.4,239.7A40.75,40.75,0,0,1,129,205c-3.3,15.4-12.2,28.2-26.6,34.7"/><path class="cls-1" d="M95.4,267.3c3.4-4.9,9-7.9,14.8-9.4s11.8-1.6,17.8-1.8a41.74,41.74,0,0,1-32.1,13.4"/><path class="cls-1" d="M88.5,306.6A45.54,45.54,0,0,1,144,332.9c-20.2-3.8-40.1-12.8-55.5-26.3"/><path class="cls-1" d="M66.3,292.9c3.3,9.9,2.7,21.9-4.8,30.4a36.73,36.73,0,0,1,4.8-30.4"/><path class="cls-1" d="M53.2,287.4a37.32,37.32,0,0,1-20.6,30.3,1.94,1.94,0,0,1-1.8.3c-.9-.4-1-1.6-.9-2.6,1.5-12.7,10.9-25,23.3-28"/><path class="cls-1" d="M44.7,286.1a30.9,30.9,0,0,1-22.3,9.8A31.1,31.1,0,0,1,0,286.3c14.2-1.5,30.6-2.5,44.7-.2"/><path class="cls-2" d="M42.5,172.6a1.58,1.58,0,0,0,.1.4l.4,1.2c.4,1.1,1,2.6,1.7,4.6s1.7,4.4,2.7,7.3c.5,1.4,1.1,2.9,1.6,4.6l1.8,5.1c2.5,7.2,5.3,15.8,8.3,25.4s6.1,20.3,9.1,31.5,5.7,22,8,31.8,4.1,18.7,5.5,26.2c.4,1.9.7,3.7,1,5.3s.6,3.3.8,4.8c.5,3,1,5.5,1.2,7.6s.6,3.7.8,4.9a8.32,8.32,0,0,1,.2,1.3.6.6,0,0,0,.1.4v-.4a10.5,10.5,0,0,0-.2-1.3c-.2-1.1-.4-2.8-.6-4.9s-.7-4.7-1.2-7.7c-.2-1.5-.5-3.1-.8-4.8s-.6-3.5-1-5.4c-1.3-7.5-3.2-16.4-5.4-26.2s-4.9-20.6-7.9-31.8-6.2-21.9-9.2-31.5-5.9-18.2-8.4-25.4q-1.05-2.7-1.8-5.1L47.6,186c-1-2.8-2-5.3-2.8-7.3L43,174.1c-.2-.5-.4-.9-.5-1.2C42.7,172.9,42.6,172.7,42.5,172.6Z"/><path class="cls-2" d="M120.5,213.2c-.1.1-.2.1-.2.2l-.7.7c-.6.6-1.4,1.6-2.5,2.8a115.37,115.37,0,0,0-8.4,11.1,72.36,72.36,0,0,0-8.7,18.7c-2.3,7.4-3.8,15.9-5.2,24.8-2.9,17.7-6.4,33.6-9,45-1.3,5.7-2.3,10.3-3.1,13.6-.3,1.6-.6,2.8-.8,3.7a4.4,4.4,0,0,0-.2,1v.3c0-.1.1-.2.1-.3a2.15,2.15,0,0,0,.2-1c.2-.9.5-2.1.9-3.7.8-3.2,1.9-7.9,3.2-13.5,2.7-11.5,6.3-27.3,9.2-45,1.4-8.9,2.9-17.3,5.2-24.7a73.23,73.23,0,0,1,8.6-18.6,100.52,100.52,0,0,1,8.2-11.2c1-1.3,1.9-2.2,2.4-2.9l.6-.8Z"/><path class="cls-2" d="M40.4,285.5a.9.9,0,0,0,.5.1l1.5.2,1.1.1,1.3.2c.9.1,1.9.3,3,.5l1.8.4,1.9.5c1.3.3,2.7.8,4.1,1.2a60.18,60.18,0,0,1,9,4,50.72,50.72,0,0,1,8.1,5.6,29.12,29.12,0,0,1,3.1,3,20.94,20.94,0,0,1,2.4,2.8,24.84,24.84,0,0,1,1.8,2.5,8.17,8.17,0,0,1,1.2,2c.3.5.6.9.8,1.3a1.38,1.38,0,0,0,.3.4c0-.2-.1-.3-.2-.5l-.7-1.3a8.17,8.17,0,0,0-1.2-2,20.29,20.29,0,0,0-1.8-2.6A33.57,33.57,0,0,0,76,301a29.12,29.12,0,0,0-3.1-3,45.5,45.5,0,0,0-8.1-5.7,61.3,61.3,0,0,0-9.1-4c-1.5-.4-2.8-.9-4.2-1.2l-1.9-.5-1.8-.3c-1.1-.2-2.2-.3-3.1-.4l-1.3-.1-1.1-.1-1.4-.1A.75.75,0,0,0,40.4,285.5Z"/><path class="cls-2" d="M36.4,213.6a4.74,4.74,0,0,0,1,1l2.9,2.5c2.5,2.1,5.9,5,9.8,8.2s7.3,6,9.9,8.1l3,2.4a5,5,0,0,0,1.2.8,4.74,4.74,0,0,0-1-1l-2.9-2.5c-2.5-2.1-5.9-5-9.8-8.2s-7.3-6-9.9-8.1l-3-2.4A8.34,8.34,0,0,0,36.4,213.6Z"/><path class="cls-2" d="M32.9,232.3c0,.1,7.4,2.5,16.7,5.2s16.8,4.8,16.8,4.7S59,239.7,49.7,237,32.9,232.2,32.9,232.3Z"/><path class="cls-2" d="M60.4,224.9a4.44,4.44,0,0,0,.8-1.1c.5-.8,1.2-1.8,2-3,1.7-2.5,4-6,6.8-9.6s5.5-6.9,7.5-9.1l2.4-2.7a3.92,3.92,0,0,0,.8-1,9,9,0,0,0-1,.9c-.6.6-1.5,1.5-2.5,2.6a109.4,109.4,0,0,0-7.6,9.1c-2.8,3.7-5.1,7.2-6.7,9.7-.8,1.3-1.4,2.4-1.8,3.1A4.13,4.13,0,0,0,60.4,224.9Z"/><path class="cls-2" d="M86.3,235.3a17.48,17.48,0,0,0,1.8,2.9c1.1,1.8,2.6,4.2,4.2,6.9s2.9,5.3,3.8,7.1c.5,1,1,2,1.6,3a16.59,16.59,0,0,0-1.2-3.1,62.59,62.59,0,0,0-3.7-7.2c-1.6-2.7-3.2-5.2-4.3-6.9A19.86,19.86,0,0,0,86.3,235.3Z"/><path class="cls-2" d="M95.2,267.8a25.9,25.9,0,0,0,3.8-1.7c2.3-1,5.6-2.4,9.2-3.7s7.1-2.2,9.6-2.9,4-1,4-1.1a4.1,4.1,0,0,0-1.1.1q-1,.15-3,.6a84.79,84.79,0,0,0-18.9,6.6c-1.2.6-2.1,1-2.7,1.4A5.5,5.5,0,0,0,95.2,267.8Z"/><path class="cls-2" d="M88.2,306.6a1.21,1.21,0,0,0,.5.1l1.3.3,5,1.1a148.47,148.47,0,0,1,16.2,4.3,74.43,74.43,0,0,1,15.1,7.1c1.8,1.1,3.2,2.2,4.2,2.9a14.31,14.31,0,0,0,1.5,1.1,1.38,1.38,0,0,1-.3-.4c-.2-.2-.6-.5-1-.9-1.3-1.1-2.7-2.1-4.1-3.1a64.54,64.54,0,0,0-15.2-7.3,134,134,0,0,0-16.3-4.1l-5-1A5.92,5.92,0,0,1,88.2,306.6Z"/><path class="cls-2" d="M63,316.2c.2,0,1-5.2,2-11.7s1.6-11.7,1.4-11.8-1,5.2-2,11.7S62.8,316.2,63,316.2Z"/><path class="cls-2" d="M36.7,306.7a32.18,32.18,0,0,0,2.4-2.8c1.4-1.8,3.4-4.2,5.6-6.9s4.3-5,5.8-6.7c.8-.9,1.6-1.8,2.4-2.8-.3.2-.5.4-.8.6-.5.4-1.1,1.1-1.9,1.9-1.6,1.6-3.7,4-5.9,6.6s-4.2,5.1-5.5,7c-.7.9-1.2,1.7-1.6,2.2C37,306.1,36.9,306.4,36.7,306.7Z"/><polygon class="cls-1" points="106.2 331 106.2 344 103 344 91.4 380.4 65.9 380.4 54.7 344.4 50.4 344 50.4 331 106.2 331"/><g class="cls-9"><polygon points="106.2 331 106.2 344 103 344 91.4 380.4 65.9 380.4 54.7 344.4 50.4 344 50.4 331 106.2 331"/></g><path class="cls-2" d="M52.5,344.4c0,.1,11.3.3,25.2.3s25.2-.1,25.2-.3-11.3-.3-25.2-.3S52.5,344.2,52.5,344.4Z"/><path class="cls-2" d="M34.1,260.9a9.83,9.83,0,0,0,1.6.5l4.5,1.1c3.8.9,9,2.4,14.6,4.2s10.6,3.9,14.2,5.4l4.2,1.9a4.42,4.42,0,0,0,1.6.6,10.93,10.93,0,0,0-1.5-.8c-1-.5-2.4-1.2-4.2-2a144.33,144.33,0,0,0-14.2-5.6,139.94,139.94,0,0,0-14.7-4.1c-1.9-.4-3.5-.7-4.5-.9A3.81,3.81,0,0,0,34.1,260.9Z"/><path class="cls-8" d="M61,364.6c0,.1,7.9.3,17.7.3s17.7-.1,17.7-.3-7.9-.3-17.7-.3S61,364.4,61,364.6Z"/><path class="cls-8" d="M60,361.6c0,.1,8.4.3,18.8.3s18.8-.1,18.8-.3-8.4-.3-18.8-.3S60,361.4,60,361.6Z"/></g><g id="Floor"><path class="cls-2" d="M685.3,380.6c0,.1-152.4.3-340.4.3s-340.5-.2-340.5-.3,152.4-.3,340.5-.3S685.3,380.5,685.3,380.6Z"/></g><g id="Speech_Bubbles" data-name="Speech Bubbles"><polygon class="cls-8" points="591.9 0.2 323.9 0.2 323.9 166.2 549.5 166.2 563.5 198.3 575.9 166.2 591.9 166.2 591.9 0.2"/><path class="cls-2" d="M591.9.2c0,1.6.1,64,.2,166v.2H575.9l.2-.1c-3.9,10.1-8,20.9-12.4,32.1l-.2.5-.2-.5c-4.4-10.1-9.1-20.9-14-32.1l.2.1H323.7V0h.2l268,.2L323.9.4l.2-.2v166l-.3-.3H549.6l.1.1,14,32.1h-.4c4.3-11.2,8.5-22.1,12.4-32.1h16.2l-.2.2C591.8,64.2,591.9,1.9,591.9.2Z"/><path class="cls-2" d="M591.8,16.4c0,.2-59.9.4-133.7.4s-133.7-.2-133.7-.4,59.9-.4,133.7-.4S591.8,16.2,591.8,16.4Z"/><path class="cls-2" d="M338.2,9.1A2.2,2.2,0,1,1,336,6.9h0A2.22,2.22,0,0,1,338.2,9.1Z"/><path class="cls-2" d="M346.1,9.1a2.2,2.2,0,1,1-2.2-2.2h0A2.22,2.22,0,0,1,346.1,9.1Z"/><path class="cls-2" d="M354.1,9.1a2.2,2.2,0,1,1-2.2-2.2h0A2.22,2.22,0,0,1,354.1,9.1Z"/><path class="cls-2" d="M353.2,46.1l-6.4,2.5,6.4,2.4v1.5l-8-3.2V47.8l8-3.2Z"/><path class="cls-2" d="M359.8,39.8h1.6l-5.9,16.9h-1.6Z"/><path class="cls-2" d="M369.9,47.8v1.5l-8,3.2V51l6.4-2.5L361.9,46V44.5Z"/><path class="cls-2" d="M371.9,53.7a1.16,1.16,0,0,1,1.2-1.2h0a1.16,1.16,0,0,1,1.2,1.2h0a1.3,1.3,0,0,1-1.1,1.3h-.1a1.24,1.24,0,0,1-1.2-1.3Z"/><path class="cls-2" d="M376,53.7a1.16,1.16,0,0,1,1.2-1.2h.1a1.16,1.16,0,0,1,1.2,1.2h0a1.3,1.3,0,0,1-1.1,1.3h0a1.16,1.16,0,0,1-1.2-1.2C376,53.8,376,53.8,376,53.7Z"/><path class="cls-2" d="M380.1,53.7a1.16,1.16,0,0,1,1.2-1.2h.1a1.16,1.16,0,0,1,1.2,1.2h0a1.3,1.3,0,0,1-1.1,1.3h-.1a1.21,1.21,0,0,1-1.3-1.3Z"/><path class="cls-6" d="M522.4,69.8c0,.2-39.6.4-88.5.4s-88.5-.2-88.5-.4,39.6-.4,88.5-.4S522.4,69.6,522.4,69.8Z"/><path class="cls-2" d="M551.3,70.3c0,.2-3.8.4-8.5.4s-8.5-.2-8.5-.4,3.8-.4,8.5-.4S551.3,70.1,551.3,70.3Z"/><path class="cls-2" d="M576.1,70.3c0,.2-4.2.4-9.3.4s-9.3-.2-9.3-.4,4.2-.4,9.3-.4S576.1,70.1,576.1,70.3Z"/><path class="cls-6" d="M458.1,84.7c0,.2-25.2.4-56.2.4s-56.2-.2-56.2-.4,25.2-.4,56.2-.4S458.1,84.5,458.1,84.7Z"/><path class="cls-6" d="M457.3,140.4c0,.2-25.2.4-56.2.4s-56.2-.2-56.2-.4,25.2-.4,56.2-.4S457.3,140.2,457.3,140.4Z"/><path class="cls-2" d="M499,84.7c0,.2-6.9.4-15.3.4s-15.3-.2-15.3-.4,6.9-.4,15.3-.4S499,84.5,499,84.7Z"/><path class="cls-2" d="M498.6,140.4c0,.2-6.9.4-15.3.4s-15.3-.2-15.3-.4,6.9-.4,15.3-.4S498.6,140.2,498.6,140.4Z"/><path class="cls-1" d="M353,92.3c0,.2-1.7.4-3.8.4s-3.8-.2-3.8-.4,1.7-.4,3.8-.4S353,92.1,353,92.3Z"/><path class="cls-2" d="M379.2,92.5c0,.2-3.7.4-8.2.4s-8.2-.2-8.2-.4,3.7-.4,8.2-.4S379.2,92.3,379.2,92.5Z"/><path class="cls-2" d="M395.9,92.5c0,.2-3.2.4-7.1.4s-7.1-.2-7.1-.4,3.2-.4,7.1-.4S395.9,92.3,395.9,92.5Z"/><path class="cls-2" d="M417.1,92.5c0,.2-3.2.4-7.2.4s-7.2-.2-7.2-.4,3.2-.4,7.2-.4S417.1,92.3,417.1,92.5Z"/><path class="cls-2" d="M435.7,92.5c0,.2-2.9.4-6.5.4s-6.5-.2-6.5-.4,2.9-.4,6.5-.4S435.7,92.3,435.7,92.5Z"/><path class="cls-2" d="M497.1,92.5c0,.2-12.9.4-28.8.4s-28.8-.2-28.8-.4,12.9-.4,28.8-.4S497.1,92.3,497.1,92.5Z"/><path class="cls-1" d="M352,102c0,.2-1.5.4-3.3.4s-3.3-.2-3.3-.4,1.5-.4,3.3-.4S352,101.8,352,102Z"/><path class="cls-1" d="M352.2,111.9c0,.2-1.5.4-3.4.4s-3.4-.2-3.4-.4,1.5-.4,3.4-.4S352.2,111.7,352.2,111.9Z"/><path class="cls-1" d="M352.2,123.2c0,.2-1.5.4-3.4.4s-3.4-.2-3.4-.4,1.5-.4,3.4-.4S352.2,123,352.2,123.2Z"/><path class="cls-2" d="M414.2,122.7c0,.2-11.4.4-25.4.4s-25.4-.2-25.4-.4,11.4-.4,25.4-.4S414.2,122.4,414.2,122.7Z"/><path class="cls-2" d="M409.8,111.9c0,.2-10.8.4-24.2.4s-24.2-.2-24.2-.4,10.8-.4,24.2-.4S409.8,111.7,409.8,111.9Z"/><path class="cls-2" d="M526.7,101.5c0,.2-36.9.4-82.4.4s-82.4-.2-82.4-.4,36.9-.4,82.4-.4S526.7,101.3,526.7,101.5Z"/><polygon class="cls-8" points="608.4 68.1 608.4 209.1 586.5 227.4 608.4 227.4 610.5 227.4 701.1 227.4 701.1 68.1 608.4 68.1"/><path class="cls-2" d="M608.4,68.1h24.9l67.9-.1h.2v.2c0,42.6,0,98.2.1,159.3v.3H585.9l.5-.4L608.3,209l-.1.2c0-42.2.1-77.4.1-102.2,0-12.3,0-22.1.1-28.7V68.8c0-.4-.1-.7,0-.7-.1,0-.1.3-.1.7v9.6c0,6.7,0,16.4.1,28.8,0,24.7.1,59.9.1,102.1v.1l-.1.1-21.9,18.3-.2-.4H701l-.3.3c0-61.2,0-116.8.1-159.3l.2.2-67.8-.1H609.9Z"/><path class="cls-2" d="M616.8,75.1a1.9,1.9,0,1,1-1.9-1.9,1.9,1.9,0,0,1,1.9,1.9Z"/><path class="cls-2" d="M623.6,75.1a1.9,1.9,0,1,1-1.9-1.9,1.9,1.9,0,0,1,1.9,1.9Z"/><path class="cls-2" d="M630.4,75.1a1.9,1.9,0,1,1-1.9-1.9,1.9,1.9,0,0,1,1.9,1.9Z"/><path class="cls-1" d="M675.6,118.6c0,.2-11.8.3-26.3.3s-26.3-.1-26.3-.3,11.8-.3,26.3-.3S675.6,118.4,675.6,118.6Z"/><path class="cls-1" d="M686.6,131.3c0,.2-14.3.3-32,.3s-32-.1-32-.3,14.3-.3,32-.3S686.6,131.2,686.6,131.3Z"/><path class="cls-1" d="M689.2,179c0,.2-15.3.3-34.1.3s-34.1-.2-34.1-.3,15.3-.3,34.1-.3S689.2,178.8,689.2,179Z"/><path class="cls-1" d="M628,137.8a17.75,17.75,0,0,1-6.5,0A17.75,17.75,0,0,1,628,137.8Z"/><path class="cls-1" d="M650.4,138a83,83,0,0,1-14.1,0c0-.2,3.2-.3,7-.3S650.4,137.8,650.4,138Z"/><path class="cls-1" d="M664.8,138a61.15,61.15,0,0,1-12.1,0c0-.2,2.7-.3,6-.3S664.8,137.8,664.8,138Z"/><path class="cls-1" d="M627.2,146.1a13.22,13.22,0,0,1-5.6,0A13.21,13.21,0,0,1,627.2,146.1Z"/><path class="cls-1" d="M627.4,154.6a14.17,14.17,0,0,1-5.8,0A14.17,14.17,0,0,1,627.4,154.6Z"/><path class="cls-1" d="M627.4,164.2a14.17,14.17,0,0,1-5.8,0A14.17,14.17,0,0,1,627.4,164.2Z"/><path class="cls-1" d="M680.4,163.8c0,.2-9.7.3-21.7.3s-21.7-.1-21.7-.3,9.7-.3,21.7-.3S680.4,163.6,680.4,163.8Z"/><path class="cls-1" d="M676.6,154.6c0,.2-9.3.3-20.7.3s-20.7-.1-20.7-.3,9.3-.3,20.7-.3S676.6,154.4,676.6,154.6Z"/><path class="cls-1" d="M631.6,191.6a14.17,14.17,0,0,1-5.8,0A14.17,14.17,0,0,1,631.6,191.6Z"/><path class="cls-1" d="M631.6,201.3a14.17,14.17,0,0,1-5.8,0A14.17,14.17,0,0,1,631.6,201.3Z"/><path class="cls-1" d="M684.7,200.8c0,.2-9.7.3-21.7.3s-21.7-.1-21.7-.3,9.7-.3,21.7-.3S684.7,200.7,684.7,200.8Z"/><path class="cls-1" d="M680.8,191.6c0,.2-9.3.3-20.7.3s-20.7-.1-20.7-.3,9.3-.3,20.7-.3S680.8,191.5,680.8,191.6Z"/><path class="cls-1" d="M692,145.7c0,.2-12.6.3-28.2.3s-28.2-.1-28.2-.3,12.6-.3,28.2-.3S692,145.5,692,145.7Z"/><path class="cls-2" d="M700.3,82.5c0,.2-20.4.3-45.5.3s-45.5-.1-45.5-.3,20.4-.3,45.5-.3S700.3,82.3,700.3,82.5Z"/><path class="cls-1" d="M642.3,110.9a153.75,153.75,0,0,1-19.2,0c0-.2,4.3-.3,9.6-.3S642.3,110.7,642.3,110.9Z"/><path class="cls-1" d="M631.4,93.5a34.65,34.65,0,0,1-9.1,0c0-.2,2-.3,4.5-.3S631.4,93.3,631.4,93.5Z"/></g><g id="Character"><path class="cls-10" d="M551.2,298.9,571.3,279l-35.9-61.5a34.15,34.15,0,0,0-13.8-9.6L509,203.1l-31.5-5.8-22.3,8.8a13.46,13.46,0,0,0-8.4,14l5.8,49.2,3.4,64,81.1-14.1-8.2-23.7.3-36.9Z"/><path class="cls-2" d="M529.8,293.9c.2,0,.2-12.8.1-28.6s-.4-28.6-.6-28.6-.2,12.8-.1,28.6S529.6,293.9,529.8,293.9Z"/><path class="cls-10" d="M526.8,303.3l-49-19.7a11.11,11.11,0,0,1-7-9.5l-3.6-47s.4-20-12.1-21l-7.1,2.8c-9.2,4.9-11.5,18.2-10.2,28.6,1.8,14.7,2.5,35.4,4.5,48.1,1.6,10.4,7.9,18.6,17.8,22.2l60.4,13.1Z"/><path class="cls-2" d="M467.9,234.2a4.1,4.1,0,0,1,.1,1.1c.1.8.2,1.8.3,3.1.2,2.8.6,6.6,1,11.4s.9,10.6,1.5,16.9c.1,1.6.3,3.2.4,4.9a42.61,42.61,0,0,0,.6,5,8.33,8.33,0,0,0,2.4,4.4,16.17,16.17,0,0,0,4.5,2.8c13.5,5.9,26,10.7,35,14.1l10.7,4,2.9,1.1c.3.1.7.3,1,.4l-1-.3-3-1c-2.6-.9-6.3-2.1-10.8-3.8-9.1-3.3-21.6-8-35.1-13.9a17.55,17.55,0,0,1-4.7-2.9,9.53,9.53,0,0,1-2.6-4.7,44.29,44.29,0,0,1-.6-5.1c-.1-1.7-.3-3.3-.4-4.9-.5-6.4-.9-12.1-1.3-16.9s-.6-8.7-.8-11.4c-.1-1.3-.1-2.3-.2-3.1A5.28,5.28,0,0,0,467.9,234.2Z"/><path class="cls-2" d="M439.8,259.8a1.27,1.27,0,0,1,.1.6,14.05,14.05,0,0,0,.2,1.8c.1,1.7.4,3.9.6,6.7s.6,6.2,1.1,9.9a95.84,95.84,0,0,0,2.2,11.9,20.34,20.34,0,0,0,2.4,5.7,31.6,31.6,0,0,0,3.7,4.5,30.77,30.77,0,0,0,7.9,5.9,28.92,28.92,0,0,0,8.6,2.8H466a11,11,0,0,1-1.8-.2,21.14,21.14,0,0,1-6.4-2.2,31.18,31.18,0,0,1-8.1-5.9,28.18,28.18,0,0,1-3.8-4.6,18.11,18.11,0,0,1-2.5-5.9,97.41,97.41,0,0,1-2.2-12c-.5-3.7-.8-7.1-1-9.9s-.3-5.1-.4-6.7v-2.4Z"/><path class="cls-2" d="M460.8,292.6a6.22,6.22,0,0,1,.9-2.6,16,16,0,0,1,4.1-5.2,15.09,15.09,0,0,1,5.8-3.2,8.57,8.57,0,0,1,2.7-.5c0,.1-1,.3-2.6.9a19.23,19.23,0,0,0-9.7,8.3A10.91,10.91,0,0,1,460.8,292.6Z"/><g class="cls-9"><path d="M512.7,297.7c-5.2-3-10.4-5.2-15.9-7.7s-10.9-5.7-14.4-10.5c-6.8-9.1-6-22.3-12.9-31.3l1.4,18.2c.4,5.5-.4,11,3.1,14.8,3,3.2,8.9,5.6,13,7,8.4,2.7,17.4,6.8,25.7,9.5"/></g><polygon class="cls-11" points="529.3 240.3 533.6 266.4 529.6 259 529.3 240.3"/><path class="cls-6" d="M466.5,224.1a4.48,4.48,0,0,1-1.1.1l-3.1.1c-2.6.1-6.2.2-10.2.5s-7.5.7-10.1,1l-3.1.4a4.48,4.48,0,0,1-1.1.1l1.1-.3c.7-.1,1.8-.3,3-.5,2.6-.4,6.2-.8,10.2-1.1a95.8,95.8,0,0,1,10.2-.3,26.34,26.34,0,0,1,3.1.1C465.7,224,466.1,224.1,466.5,224.1Z"/><path class="cls-6" d="M467.9,249.2c0,.1-6.4.8-14.4,1.4s-14.4,1.1-14.4.9,6.4-.8,14.4-1.4S467.8,249,467.9,249.2Z"/><path class="cls-6" d="M470.2,275.5a8.79,8.79,0,0,1-1,.6,21.44,21.44,0,0,1-2.9,1.3,60,60,0,0,1-20.5,4.6,16.87,16.87,0,0,1-3.2,0,4.87,4.87,0,0,1-1.2-.1,4.87,4.87,0,0,1,1.2-.1c.8,0,1.8-.1,3.2-.2a71.05,71.05,0,0,0,20.3-4.5c1.2-.5,2.3-.9,3-1.2A4.87,4.87,0,0,1,470.2,275.5Z"/><path class="cls-6" d="M487.6,289a26.25,26.25,0,0,0-4.9,3.9,29,29,0,0,0-3.4,5.2,12.09,12.09,0,0,1,.5-1.8,13.74,13.74,0,0,1,6-6.6A6.7,6.7,0,0,1,487.6,289Z"/><path class="cls-6" d="M505.4,306.3a19.68,19.68,0,0,1,5.2-9.6c.1.1-1.4,2-2.9,4.7S505.5,306.4,505.4,306.3Z"/><path class="cls-6" d="M477.4,209.4a95.53,95.53,0,0,1-14,2.5,42.59,42.59,0,0,1,6.9-1.5A60.57,60.57,0,0,1,477.4,209.4Z"/><path class="cls-6" d="M524.4,211.6a77.89,77.89,0,0,1-9.6-.9c-3.2-.3-6.4-.8-9.5-1.4a77.89,77.89,0,0,1,9.6.9A80.7,80.7,0,0,1,524.4,211.6Z"/><path class="cls-6" d="M528.4,233.4h-8.8c-5.5,0-13,0-21.3.3s-15.9.6-21.3.8l-6.5.3-1.8.1h-.6a1.27,1.27,0,0,1,.6-.1l1.8-.2c1.5-.1,3.7-.3,6.5-.5,5.5-.4,13-.8,21.3-1s15.9-.2,21.4-.1c2.7,0,4.9.1,6.5.2l1.8.1A1,1,0,0,1,528.4,233.4Z"/><path class="cls-6" d="M528.9,261c0,.1-12.8,1.1-28.7,2.1s-28.8,1.8-28.8,1.6,12.9-1.1,28.7-2.1S528.9,260.9,528.9,261Z"/><path class="cls-6" d="M527.6,285.4a11.73,11.73,0,0,1-1.1.5c-.7.3-1.7.6-3,1-2.6.8-6.2,1.9-10.2,2.9s-7.7,1.7-10.4,2.1a25.06,25.06,0,0,1-3.2.4,4.87,4.87,0,0,1-1.2.1c.4-.1.8-.2,1.1-.3l3.1-.6c2.6-.5,6.3-1.2,10.3-2.2s7.6-2,10.2-2.7l3.1-.9A3.45,3.45,0,0,1,527.6,285.4Z"/><path class="cls-6" d="M548.1,241.2a81.44,81.44,0,0,1-9.3,2.7c-3.1.9-6.3,1.6-9.5,2.2a81.44,81.44,0,0,1,9.3-2.7C541.8,242.5,544.9,241.8,548.1,241.2Z"/><path class="cls-6" d="M538.3,222.5a18.9,18.9,0,0,1-4.1,1,20.07,20.07,0,0,1-4.2.5,39.1,39.1,0,0,1,8.3-1.5Z"/><path class="cls-2" d="M468.1,228.3c-.1,0-.3-1.7-1.2-4.2A21.16,21.16,0,0,0,452,210.7c-2.6-.6-4.3-.6-4.3-.7a2.44,2.44,0,0,1,1.2,0,17.5,17.5,0,0,1,3.2.4A20.25,20.25,0,0,1,467.2,224c.3,1,.6,2.1.8,3.1A5.74,5.74,0,0,1,468.1,228.3Z"/><path class="cls-2" d="M526.5,215a72.72,72.72,0,0,1,1.7,9.1,72.41,72.41,0,0,1,1.2,9.2c-.7-3-1.3-6.1-1.7-9.1A70.13,70.13,0,0,1,526.5,215Z"/><path class="cls-1" d="M581.1,362.4s37.7,10.4,39.2,11c2.3.8,1.9,9.1-1.6,9-1.7-.1-28.9,1-32.4.8s-13.8-4.3-13.8-4.3Z"/><path class="cls-2" d="M596.8,376.8c.2,0,.4-2,1.7-4s2.8-3.3,2.7-3.5a7.08,7.08,0,0,0-3.2,3.2A6.52,6.52,0,0,0,596.8,376.8Z"/><path class="cls-2" d="M592.9,375c.2,0,.6-1.7,1.6-3.7s2.2-3.4,2-3.5a8.19,8.19,0,0,0-2.6,3.2C592.8,373.1,592.7,375,592.9,375Z"/><path class="cls-2" d="M589.2,374c.2,0,0-1.9.9-4a27,27,0,0,1,2.1-3.5,5.46,5.46,0,0,0-2.6,3.3C588.8,372.1,589,374.1,589.2,374Z"/><path class="cls-2" d="M589.9,369.1a6.58,6.58,0,0,0,.4-2.8,11,11,0,0,0-.4-3.1,4.92,4.92,0,0,0-.6-1.7,1.46,1.46,0,0,0-.6-.9.94.94,0,0,0-1.3.1,1.61,1.61,0,0,0-.5,1.1v1a11,11,0,0,0,.2,1.8,10.47,10.47,0,0,0,1.2,2.9,7.64,7.64,0,0,0,1.7,2.3,19.52,19.52,0,0,0-1.3-2.5,13.32,13.32,0,0,1-1-2.8,9.85,9.85,0,0,1-.2-1.7c0-.6,0-1.3.3-1.6a.45.45,0,0,1,.5,0,1.61,1.61,0,0,1,.4.7c.2.5.4,1.1.6,1.7a14.68,14.68,0,0,1,.5,2.9C589.9,368.1,589.8,369.1,589.9,369.1Z"/><path class="cls-2" d="M589.8,368.8a5.07,5.07,0,0,0-2.4-.4,12.41,12.41,0,0,0-2.7.3,4,4,0,0,0-1.5.6,1.48,1.48,0,0,0-.8,1.7,2,2,0,0,0,1.4,1.4,4.85,4.85,0,0,0,1.7,0,6.42,6.42,0,0,0,2.5-1.2,9.76,9.76,0,0,0,1.8-1.7,14.29,14.29,0,0,0-2,1.4,6.71,6.71,0,0,1-2.3,1,3.3,3.3,0,0,1-1.4,0,1.35,1.35,0,0,1-.9-.9,1.1,1.1,0,0,1,.6-1,5.78,5.78,0,0,1,1.4-.5,10.86,10.86,0,0,1,2.5-.4A9.59,9.59,0,0,1,589.8,368.8Z"/><path class="cls-2" d="M602.6,377.2c.2,0,0-1.6.7-3.4s2-2.8,1.8-3-1.6.7-2.4,2.7A4.71,4.71,0,0,0,602.6,377.2Z"/><path class="cls-2" d="M576.3,378.9a6.89,6.89,0,0,0,1.5.7,33.76,33.76,0,0,0,4.2,1.3,62.83,62.83,0,0,0,14.4,1.4c5.7-.1,10.7-.3,14.4-.5l4.4-.2a8.75,8.75,0,0,0,1.6-.2,8.6,8.6,0,0,0-1.6-.1h-4.4l-14.4.3a68.5,68.5,0,0,1-14.3-1.2C578.5,379.7,576.4,378.8,576.3,378.9Z"/><path class="cls-2" d="M575.2,379.8a24.77,24.77,0,0,0,2.8-1.3,12.49,12.49,0,0,1,7.1-1.2c2.8.4,4.9,2.4,6.2,3.7a22.84,22.84,0,0,0,2.2,2.2,11.38,11.38,0,0,0-1.8-2.5,10.86,10.86,0,0,0-2.5-2.3,8.32,8.32,0,0,0-3.9-1.6,12.65,12.65,0,0,0-7.4,1.4A7.44,7.44,0,0,0,575.2,379.8Z"/><path class="cls-1" d="M536.5,353.6S500.8,377,499.6,378c-1.9,1.5.3,8.4,3.6,7.2,1.6-.6,31.5-8.9,34.7-10.1s11.9-8.3,11.9-8.3Z"/><path class="cls-2" d="M525.9,372.1c.2,0-.5-2.1-2.4-3.8s-4-2.2-4-2,1.8.9,3.6,2.5A26.36,26.36,0,0,1,525.9,372.1Z"/><path class="cls-2" d="M529.1,369.2c.2-.1-.5-1.9-2.2-3.5s-3.4-2.4-3.5-2.2,1.5,1.1,3,2.7S529,369.3,529.1,369.2Z"/><path class="cls-2" d="M532.3,367.2c.2,0,0-2-1.6-3.9s-3.5-2.5-3.5-2.3a26.09,26.09,0,0,1,3,2.7A19.66,19.66,0,0,1,532.3,367.2Z"/><path class="cls-2" d="M530.2,362.7c.1,0-.4-1-.8-2.7a15.44,15.44,0,0,1-.4-3v-1.8a2.35,2.35,0,0,1,.2-.8c.1-.2.3-.2.5-.1.4.2.6.9.8,1.4a5.08,5.08,0,0,1,.3,1.7,10.07,10.07,0,0,1-.1,3c-.2,1.7-.6,2.7-.5,2.8a6.18,6.18,0,0,0,.9-2.7,10.8,10.8,0,0,0,.2-3.1,11.27,11.27,0,0,0-.3-1.8l-.3-.9a1.76,1.76,0,0,0-.8-.9.93.93,0,0,0-1.2.3,2,2,0,0,0-.3,1.1V357a14.5,14.5,0,0,0,.6,3A5.6,5.6,0,0,0,530.2,362.7Z"/><path class="cls-2" d="M530.2,362.4a21.42,21.42,0,0,0,2.3-.7,20.24,20.24,0,0,1,2.6-.4,7.57,7.57,0,0,1,1.5.1c.4.1.8.4.8.8a1.15,1.15,0,0,1-.6,1.1,2.2,2.2,0,0,1-1.3.4,7.07,7.07,0,0,1-2.5-.2,20.16,20.16,0,0,0-2.3-.7,6.5,6.5,0,0,0,2.2,1.1,6.35,6.35,0,0,0,2.7.4,3,3,0,0,0,1.6-.5,2,2,0,0,0,.9-1.7,1.59,1.59,0,0,0-1.3-1.4,8.6,8.6,0,0,0-1.6-.1,12.82,12.82,0,0,0-2.7.5A5.76,5.76,0,0,0,530.2,362.4Z"/><path class="cls-2" d="M507.7,383.8c0,.1.6-.4.9-1.4a5.41,5.41,0,0,0-.7-3.9l-1.2-1.8a4.89,4.89,0,0,0-1.2-1.3,2.22,2.22,0,0,0-1.1-.5c-.3,0-.5.1-.4.1a3.29,3.29,0,0,1,1.3.7,6.42,6.42,0,0,1,1,1.3,10.81,10.81,0,0,1,1.1,1.8,6,6,0,0,1,.8,3.5C508,382.8,507.9,383.3,507.7,383.8Z"/><path class="cls-2" d="M520.5,374.3c.2,0,.1-1.8-1.2-3.4s-3.1-2-3.1-1.8a31.73,31.73,0,0,1,2.7,2.2A8.22,8.22,0,0,1,520.5,374.3Z"/><path class="cls-2" d="M546.1,367.9a15.26,15.26,0,0,0-1.6,1.1,39.92,39.92,0,0,1-4.4,2.7,62.12,62.12,0,0,1-7,3.1c-2.7,1-5.7,2-8.9,2.9-6.4,1.9-12.2,3.5-16.4,4.8l-4.9,1.5-1.8.6a12.86,12.86,0,0,0,1.9-.4l5-1.3c4.2-1.1,10-2.8,16.5-4.6q4.8-1.35,9-3a49.43,49.43,0,0,0,7-3.3,32.35,32.35,0,0,0,4.3-2.9A7.1,7.1,0,0,0,546.1,367.9Z"/><path class="cls-2" d="M547.4,368.4a11.14,11.14,0,0,0-3-.8,12.18,12.18,0,0,0-7.5.9,8.67,8.67,0,0,0-3.2,2.8,14.59,14.59,0,0,0-1.7,3,11.76,11.76,0,0,0-1,3,24.37,24.37,0,0,0,1.4-2.8,11,11,0,0,1,4.8-5.4,13.5,13.5,0,0,1,7.2-1C546.3,368.2,547.4,368.5,547.4,368.4Z"/><path class="cls-2" d="M610.7,295.3s10.7,3.8,10.7,15.8c.1,23-46.4,48.3-46.4,48.3l-61.9-41-3.9-1.6S592.7,285.4,610.7,295.3Z"/><path class="cls-6" d="M544.4,339.1A9.06,9.06,0,0,0,546,338c1-.7,2.5-1.8,4.2-3.2,3.5-2.7,8.4-6.6,13.5-11.1s9.8-8.6,13-11.7c1.6-1.5,2.9-2.8,3.8-3.7a8.64,8.64,0,0,0,1.3-1.4l-1.5,1.2-3.9,3.5c-3.3,3-7.9,7.1-13.1,11.6s-10,8.4-13.4,11.2l-4.1,3.4A16.61,16.61,0,0,0,544.4,339.1Z"/><path class="cls-6" d="M593.2,303.9c0-.2-2.7-.4-6,.5a11.83,11.83,0,0,0-5.3,2.8c.1.2,2.4-1.3,5.5-2.2A46.62,46.62,0,0,1,593.2,303.9Z"/><path class="cls-6" d="M587.8,300.2a8.2,8.2,0,0,0-3.7,2.8c-1.7,2.1-2.1,4.1-1.9,4.2s.9-1.9,2.4-3.8S587.9,300.4,587.8,300.2Z"/><path class="cls-2" d="M614,373c0-.1-.7-.2-1.6.5a6.21,6.21,0,0,0-1.8,3.6,6.8,6.8,0,0,0,.6,4c.4.9.9,1.4,1,1.3s-.2-.6-.6-1.5a7.79,7.79,0,0,1-.3-3.7,5.81,5.81,0,0,1,1.5-3.4C613.4,373.1,614.1,373.1,614,373Z"/><path class="cls-7" d="M606.2,262.6,588.6,310a6.93,6.93,0,0,1-6.5,4.5l-96.9-1.3v-7.4l36,1.3,15.3-47.4a3.87,3.87,0,0,1,3.7-2.7l62.5.2a3.88,3.88,0,0,1,3.8,3.9A3.34,3.34,0,0,1,606.2,262.6Z"/><path class="cls-2" d="M606.2,262.6v-.1a.6.6,0,0,0,.1-.4,5.44,5.44,0,0,0,0-1.8,3.64,3.64,0,0,0-1.7-2.3,4.78,4.78,0,0,0-1.8-.6H540.5a4,4,0,0,0-2.6.6,3.75,3.75,0,0,0-1.6,2.1l-15.2,47.3v.1H521l-36-1.3.2-.2v7.4l-.1-.2,60.9.8,26.5.4,6.1.1h3a6.58,6.58,0,0,0,2.8-.4,6.49,6.49,0,0,0,3.9-3.7c.6-1.7,1.3-3.4,1.9-5.1,4.9-13.2,8.9-23.8,11.6-31.2,1.4-3.7,2.4-6.5,3.2-8.5s1.2-2.9,1.2-3c0,.1-.3,1.1-1,3.1s-1.8,4.8-3.1,8.5c-2.7,7.4-6.7,18-11.5,31.2l-1.9,5.1a6.85,6.85,0,0,1-6.9,4.3h-3l-6.1-.1-26.5-.3-61-.8H485v-7.7h.2l36,1.3-.2.1,15.3-47.2a4.14,4.14,0,0,1,1.7-2.2,4.31,4.31,0,0,1,2.7-.6h15.7l18.3.1,26.1.1H603a3,3,0,0,1,1.8.6,3.92,3.92,0,0,1,1.7,2.3,5.44,5.44,0,0,1,0,1.8C606.4,262.3,606.3,262.5,606.2,262.6Z"/><path class="cls-10" d="M563.2,280.6a4.26,4.26,0,0,1,4.7.5,3.85,3.85,0,0,1,.9,4.2,4.2,4.2,0,0,1-3.5,2.5,3.58,3.58,0,0,1-3.7-2.5c-.4-1.6,0-3.9,1.6-4.7"/><path class="cls-2" d="M585.4,362s-87.3-56-91.2-58.2c-3.3-1.9-12.1-7.3-20.7-4.9s-16.4,10.1-20.3,21.5c-2.2,6.5-3.2,17.6-3.8,25.8a38.3,38.3,0,0,0,9,27.3c3,3.4,6.6,6.4,10.9,7.7a28.64,28.64,0,0,0,2.8.7c16.5,3.6,33.5-3.8,42.8-18l2-3.1s57.2,21,58.1,20.7Z"/><path class="cls-6" d="M498.7,306.9a.31.31,0,0,1-.2-.1l-.6-.4c-.5-.4-1.3-.9-2.4-1.6a45.1,45.1,0,0,0-9.3-4.7,28.23,28.23,0,0,0-7-1.5,19.8,19.8,0,0,0-8,1.3,26.56,26.56,0,0,0-7.7,4.7,27.3,27.3,0,0,0-3.4,3.4,22.11,22.11,0,0,0-2.8,4,41.92,41.92,0,0,0-3.8,9c-.8,3-1.5,6.1-2.1,8.9a79.19,79.19,0,0,0-2,15.3,51.53,51.53,0,0,0,.8,10.4c.2,1.2.4,2.2.5,2.8l.1.7v.2a.35.35,0,0,0-.1-.2l-.2-.7a21.25,21.25,0,0,1-.6-2.8,51.65,51.65,0,0,1-1-10.4,79.11,79.11,0,0,1,1.9-15.4c.6-2.9,1.3-5.8,2.1-8.9a42.71,42.71,0,0,1,3.8-9.1,23.39,23.39,0,0,1,2.9-4.1,28.12,28.12,0,0,1,3.5-3.4,28.8,28.8,0,0,1,7.9-4.8,20.77,20.77,0,0,1,8.2-1.3,25.18,25.18,0,0,1,7.1,1.6,45.86,45.86,0,0,1,9.3,4.9c1,.7,1.8,1.3,2.3,1.7l.6.5Z"/><path class="cls-6" d="M477.2,346.2l.5.2,1.4.6,5.5,2.1,20.6,7.8c8.8,3.3,19.2,7.1,31,11.4s24.8,9,38.7,13.7l.3.1.1-.2,6.8-13,3.5-6.6.1-.3-.2-.1-66.7-42.3-20-12.6-5.4-3.4-1.4-.9-.5-.3a2.23,2.23,0,0,0,.5.3l1.4.9,5.4,3.5,19.9,12.8,66.6,42.5-.1-.4-3.5,6.6-6.8,13,.4-.1c-13.9-4.7-27-9.4-38.7-13.6l-31-11.3L484.9,349l-5.6-2-1.5-.5A1.2,1.2,0,0,0,477.2,346.2Z"/><path d="M481.8,160.6a50.77,50.77,0,0,1-3.9-9.3,15.29,15.29,0,0,1,.5-9.9c.8-1.8,2.1-3.4,2.7-5.2.9-2.6.5-5.6,2.1-7.8,2.5-3.4,7.8-2.6,11.6-4.4,3-1.4,5.1-4.4,8.2-5.4,2.7-.9,5.7,0,8.4,1.1s5.2,2.6,8.1,2.9c2,.1,4.1.1,6.2,0a8,8,0,0,1,5.7,2c1.4,1.5,1.7,4.2.2,5.5,3.6-.6,7,3,6.9,6.6s-2.8,6.8-6.1,8.4-7.1,1.6-10.7,1.3c-10.3-.8-20.6-4.7-27.6-12.3"/><path class="cls-12" d="M484,147.7l-7,50.8a15.23,15.23,0,0,0,13,17.2c.3,0,.5.1.8.1h0a15.34,15.34,0,0,0,16.5-13.1c.5-3.8,1-7,1-7.4,0,0,13.1.6,15.8-12.1,1.3-6.1,3-19,4.3-30.6a24.13,24.13,0,0,0-19.3-26.5l-1.2-.2C494.5,124,485.5,134.3,484,147.7Z"/><path class="cls-13" d="M508.3,195.1a30,30,0,0,1-15.6-8s2.1,9.9,15,11.3Z"/><path class="cls-2" d="M522.7,163.4a1.89,1.89,0,0,1-2.1,1.5,1.67,1.67,0,0,1-1.5-2h0a1.89,1.89,0,0,1,2.1-1.5,1.8,1.8,0,0,1,1.5,2Z"/><path class="cls-2" d="M524.4,158.3c-.3.2-1.4-1.1-3.4-1.5s-3.6.3-3.7,0c-.1-.1.2-.5,1-.8a5.11,5.11,0,0,1,3-.3,5.23,5.23,0,0,1,2.7,1.5C524.4,157.7,524.6,158.2,524.4,158.3Z"/><path class="cls-2" d="M504.5,160.2a1.89,1.89,0,0,1-2.1,1.5,1.67,1.67,0,0,1-1.5-2h0a1.89,1.89,0,0,1,2.1-1.5,1.94,1.94,0,0,1,1.5,2Z"/><path class="cls-2" d="M505.1,154.8c-.3.2-1.5-1.1-3.4-1.5s-3.6.3-3.8,0c-.1-.1.2-.5,1-.8a5.19,5.19,0,0,1,3-.3,4.61,4.61,0,0,1,2.6,1.5C505.2,154.2,505.3,154.7,505.1,154.8Z"/><path class="cls-2" d="M509.3,170.7a12.17,12.17,0,0,1,3.3.1c.5,0,1,0,1.2-.3a2.2,2.2,0,0,0,0-1.6c-.2-1.3-.5-2.7-.7-4.1-1-5.8-1.6-10.6-1.3-10.6s1.2,4.6,2.2,10.5c.2,1.4.4,2.8.7,4.1a3.38,3.38,0,0,1-.1,2,1.33,1.33,0,0,1-1,.6,2.77,2.77,0,0,1-.9-.1A9.74,9.74,0,0,1,509.3,170.7Z"/><path class="cls-2" d="M503.3,170.9c.3.1-.1,2.2,1.4,4s3.8,2.1,3.8,2.4c0,.1-.6.3-1.5.1a5.34,5.34,0,0,1-3.2-1.9,4.47,4.47,0,0,1-1-3.4A1.45,1.45,0,0,1,503.3,170.9Z"/><path d="M507.2,147.2c-.3.5-2.2-.1-4.5-.3s-4.3.1-4.5-.5c-.1-.3.3-.7,1.2-1.1a8.28,8.28,0,0,1,3.5-.5,8,8,0,0,1,3.4,1.1C507,146.5,507.3,147,507.2,147.2Z"/><path d="M524.8,152.5c-.4.4-1.7-.4-3.3-.7s-3-.3-3.3-.8c-.1-.2.2-.6.9-.9a4.5,4.5,0,0,1,2.8-.2,5.22,5.22,0,0,1,2.5,1.4C524.9,151.8,525,152.3,524.8,152.5Z"/><path class="cls-12" d="M483.1,157.4c-.2-.1-8.2-4.3-9.7,4.4s7.6,8.4,7.7,8.2S483.1,157.4,483.1,157.4Z"/><path class="cls-13" d="M479,166.2l-.4.2a1.39,1.39,0,0,1-1.1-.2c-.9-.5-1.4-2.1-1.2-3.7a4.85,4.85,0,0,1,.8-2.1,2.12,2.12,0,0,1,1.3-1,.76.76,0,0,1,.8.6.78.78,0,0,1,0,.5c0,.1.2-.1.2-.5a1.42,1.42,0,0,0-.2-.6,1.59,1.59,0,0,0-2.6.7,5,5,0,0,0-.9,2.4c-.2,1.8.4,3.6,1.6,4.1a1.7,1.7,0,0,0,1.4,0C479,166.4,479,166.2,479,166.2Z"/><path class="cls-14" d="M530.9,140.8c-1.5,3.2-9.2,4.5-14.9,2.8-5.2-1.6-7.1-4.9-10.4-7.8-2.1-1.8-2.1-1.8-5.5-2.2-2.8-.3-5,2.5-7.1,4.3,1.2,6.9-1.9,13.8-4.9,20.2a4.2,4.2,0,0,1-1.4,1.8c-1.2.6-2.6-.3-3.3-1.5a10.82,10.82,0,0,1-1.2-6.1,36.31,36.31,0,0,1,2.9-14.1,24.28,24.28,0,0,1,9.1-10.9,23.55,23.55,0,0,1,17.4-2.9,29.25,29.25,0,0,1,15.3,9.2,17.62,17.62,0,0,1,4,7.2"/><path class="cls-2" d="M513.1,161.9a18.72,18.72,0,0,1,.4-2,8.38,8.38,0,0,1,3.1-4.5,7.9,7.9,0,0,1,7.7-1.1,8.28,8.28,0,0,1,3.8,2.9,8.1,8.1,0,0,1,0,9.6,8.45,8.45,0,0,1-3.8,2.9,8.16,8.16,0,0,1-7.7-1.1,8.38,8.38,0,0,1-3.1-4.5c-.3-1.4-.3-2.1-.4-2.2v.6a10,10,0,0,0,.2,1.6,8.1,8.1,0,0,0,3.1,4.8,8.63,8.63,0,0,0,12.2-1.5c0-.1.1-.1.1-.2a8.78,8.78,0,0,0-12.1-12.4c-.1.1-.2.1-.3.2a8.59,8.59,0,0,0-3.1,4.8,7.77,7.77,0,0,0-.2,1.6A.9.9,0,0,1,513.1,161.9Z"/><path class="cls-2" d="M492.4,158.3a18.72,18.72,0,0,1,.4-2,8.38,8.38,0,0,1,3.1-4.5,7.9,7.9,0,0,1,7.7-1.1,8.28,8.28,0,0,1,3.8,2.9,8.1,8.1,0,0,1,0,9.6,8.45,8.45,0,0,1-3.8,2.9,8.16,8.16,0,0,1-7.7-1.1,8.38,8.38,0,0,1-3.1-4.5,8.27,8.27,0,0,1-.4-2.2v.6a10,10,0,0,0,.2,1.6,8.1,8.1,0,0,0,3.1,4.8,8.63,8.63,0,0,0,12.2-1.5c0-.1.1-.1.1-.2a8.77,8.77,0,0,0-12.2-12.3c-.1,0-.1.1-.2.2a8.59,8.59,0,0,0-3.1,4.8,7.77,7.77,0,0,0-.2,1.6C492.4,158,492.4,158.1,492.4,158.3Z"/><path class="cls-2" d="M509.5,158.6c.1.2,1.2-.4,2.5,0s1.9,1.4,2.1,1.3,0-.4-.2-.8a3.14,3.14,0,0,0-3.7-1.1C509.6,158.3,509.4,158.5,509.5,158.6Z"/><path class="cls-2" d="M480.6,156.1c0,.2,2.8.3,6.2.3s6.2-.2,6.2-.4-2.8-.3-6.2-.3S480.6,155.9,480.6,156.1Z"/><path class="cls-10" d="M535,132.4a2,2,0,0,1-.1.8,4.07,4.07,0,0,1-1.3,1.9,6.07,6.07,0,0,1-3.2,1.3,19.72,19.72,0,0,1-4.2-.2c-2.5-.4-5-.9-7.4-1.5-.9-.2-1.7-.5-2.2-.6l-.6-.2c-.1,0-.1,0-.2-.1h.2l.6.1,2.2.6c1.9.4,4.5,1,7.4,1.4a14.13,14.13,0,0,0,4.1.2,6,6,0,0,0,3.1-1.2,3.8,3.8,0,0,0,1.3-1.8A1.3,1.3,0,0,0,535,132.4Z"/><path class="cls-10" d="M537,134.4a7.54,7.54,0,0,1-.8,2.4,10.37,10.37,0,0,1-9.9,5.9,7.42,7.42,0,0,1-2.5-.5l.7.1a11,11,0,0,0,1.8.2,10.42,10.42,0,0,0,9.7-5.8,8.65,8.65,0,0,0,.7-1.7Z"/></g></g></g></svg>
