<svg xmlns="http://www.w3.org/2000/svg" viewBox="0 0 701.4 385.26"><defs><style>.cls-1{fill:#ebebeb;}.cls-2{fill:#e0e0e0;}.cls-3{fill:#f5f5f5;}.cls-4{fill:#455a64;}.cls-5{fill:#263238;}.cls-6{fill:#ff725e;}.cls-7{fill:#fafafa;}.cls-8,.cls-9{opacity:0.3;}.cls-10{fill:#fff;}.cls-11{fill:#ffbe9d;}.cls-12{fill:#eb996e;}.cls-13{fill:#0f0e0e;}</style></defs><g id="Layer_2" data-name="Layer 2"><g id="Background_Complete" data-name="Background Complete"><path class="cls-1" d="M668.47,302c4.16-2.15,9.07-2.42,13.69-1.66,2.48.41,5.07,1.15,6.76,3s2,5.15.07,6.75a6.49,6.49,0,0,1-4.26,1.08c-3.62,0-7.64-.68-10.53,1.5-1.65,1.24-2.74,3.3-4.72,3.92a4.68,4.68,0,0,1-5.13-2.29,8,8,0,0,1-.58-5.88A9,9,0,0,1,668.47,302Z"/><path class="cls-1" d="M658.93,283.6c2.55,3.64,7.5,2.43,9.79.21s3.26-5.43,4.15-8.5c2-7,4-14.36,2.55-21.5a12,12,0,0,0-2.75-5.84,6.21,6.21,0,0,0-5.91-2c-2.5.66-4,3.1-5.17,5.43a51.18,51.18,0,0,0-5.06,22c0,3.54.4,7.26,2.4,10.18"/><path class="cls-1" d="M651.94,288.82c2.77-3.28,3.29-8.07,2.06-12.18a23.51,23.51,0,0,0-7.21-10.46,38.88,38.88,0,0,0-12.91-7.62,13.85,13.85,0,0,0-5.81-1,6.09,6.09,0,0,0-4.88,2.94c-1.35,2.6-.05,5.74,1.36,8.3A97.79,97.79,0,0,0,633,281.74c2.54,3.28,5.45,6.51,9.33,8s7.9,1.31,9.95-1.38"/><path class="cls-2" d="M658.76,338.45a8.25,8.25,0,0,0,.23-1.65c.12-1.21.26-2.72.44-4.51s.49-4.16,1-6.62a51,51,0,0,1,2.41-7.8,28.69,28.69,0,0,1,4-7.07,15,15,0,0,1,5-4.19,14.18,14.18,0,0,1,4.25-1.32,8.22,8.22,0,0,0,1.64-.23,7.19,7.19,0,0,0-1.67,0,12.77,12.77,0,0,0-4.43,1.15,14.81,14.81,0,0,0-5.31,4.23,28.17,28.17,0,0,0-4.14,7.2,48,48,0,0,0-2.38,7.94,56,56,0,0,0-.88,6.69c-.14,1.92-.2,3.47-.22,4.54A7.25,7.25,0,0,0,658.76,338.45Z"/><path class="cls-2" d="M659.07,335a3.32,3.32,0,0,0,0-.77V332c0-1.9,0-4.66.1-8.06.16-6.8.75-14.11,1.88-24.43,1.07-9.7,2.51-21,4-28.33.32-1.67.65-3.18,1-4.49s.54-2.46.78-3.38.38-1.57.52-2.13a3.29,3.29,0,0,0,.13-.75,3.64,3.64,0,0,0-.27.72c-.16.55-.37,1.24-.63,2.1s-.57,2-.9,3.35-.71,2.81-1.07,4.48a248.2,248.2,0,0,0-4.23,26.29c-1.13,10.33-1.64,19.75-1.69,26.56,0,3.41,0,6.17.12,8.08.06.89.1,1.61.14,2.19A3.83,3.83,0,0,0,659.07,335Z"/><path class="cls-2" d="M659.12,316.82a15.38,15.38,0,0,0,0-2.29c-.08-1.47-.29-3.6-.7-6.2a80.55,80.55,0,0,0-2-9,74,74,0,0,0-3.78-10.7,56.65,56.65,0,0,0-11.1-17.28,27.93,27.93,0,0,0-2.61-2.43c-.4-.34-.76-.68-1.12-.95l-1-.69a13.88,13.88,0,0,0-1.93-1.24,68.67,68.67,0,0,1,6.32,5.64A60.18,60.18,0,0,1,652,288.86a84.12,84.12,0,0,1,3.81,10.6,90.14,90.14,0,0,1,2.14,9c.48,2.58.75,4.69.92,6.14A13.57,13.57,0,0,0,659.12,316.82Z"/><polygon class="cls-2" points="641.57 348.85 643.39 373.77 675.41 373.77 677.23 348.85 641.57 348.85"/><rect class="cls-2" x="638.47" y="339.03" width="42.57" height="9.82"/><polygon class="cls-1" points="638.47 372.82 638.47 375.55 640.47 375.55 680.34 375.55 680.34 372.82 638.47 372.82"/><polygon class="cls-2" points="642.43 380.34 640.47 375.55 678.82 375.55 676.53 380.34 642.43 380.34"/><path class="cls-3" d="M676.63,357a1,1,0,0,1-.15.23c-.13.16-.28.37-.48.63l-1.86,2.39-.08.1-.08-.11-4.59-6.34h.27l-4.52,6.39-.14.2-.16-.19-5.35-6.36h.31l-.29.37-4.79,6-.16.2-.14-.21c-1.63-2.29-3.15-4.44-4.52-6.38h.26l-5.55,6.33-.1.12-.08-.13c-.73-1.23-1.32-2.21-1.74-2.93l-.45-.77a1.61,1.61,0,0,1-.13-.28s.07.08.18.25l.5.74,1.83,2.88-.18,0,5.47-6.41.14-.16.12.17,4.56,6.36h-.31l4.78-6,.29-.37.15-.2.16.19,5.33,6.38h-.29l4.55-6.35.14-.19.13.19,4.48,6.4H674l1.94-2.33.52-.6C676.56,357.06,676.62,357,676.63,357Z"/><path class="cls-3" d="M677.67,348.69c0,.11-8,.2-17.92.2s-17.92-.09-17.92-.2,8-.2,17.92-.2S677.67,348.58,677.67,348.69Z"/><path class="cls-3" d="M679.29,375.81c0,.11-8.72.2-19.47.2s-19.48-.09-19.48-.2,8.72-.2,19.48-.2S679.29,375.7,679.29,375.81Z"/></g><g id="Device"><path class="cls-4" d="M85,28.21H595.91a6.74,6.74,0,0,1,6.74,6.74V361.07a14.57,14.57,0,0,1-14.57,14.57H91.84a14.57,14.57,0,0,1-14.57-14.57V36A7.75,7.75,0,0,1,85,28.21Z"/><path class="cls-4" d="M55.3,349.94H624.51a0,0,0,0,1,0,0v16.68a13.72,13.72,0,0,1-13.72,13.72H69A13.72,13.72,0,0,1,55.3,366.62V349.94a0,0,0,0,1,0,0Z"/><rect class="cls-2" x="91.37" y="42.01" width="495.7" height="293.4"/><polygon class="cls-5" points="288.17 349.94 295.23 361.17 394.62 361.17 401.18 349.94 288.17 349.94"/><rect class="cls-5" x="106.08" y="59.01" width="467.48" height="276.4"/><path class="cls-2" d="M142,327.3c-.24,0-.44-58.87-.44-131.47s.2-131.48.44-131.48.44,58.85.44,131.48S142.19,327.3,142,327.3Z"/><path class="cls-2" d="M132.52,88.18c0,.24-3.4.44-7.59.44s-7.6-.2-7.6-.44,3.4-.44,7.6-.44S132.52,87.94,132.52,88.18Z"/><path class="cls-2" d="M133.1,73.26c0,.24-3.4.44-7.59.44s-7.59-.2-7.59-.44,3.4-.44,7.59-.44S133.1,73,133.1,73.26Z"/><path class="cls-2" d="M132.52,104.26c0,.25-3.4.44-7.59.44s-7.6-.19-7.6-.44,3.4-.43,7.6-.43S132.52,104,132.52,104.26Z"/><path class="cls-2" d="M132.52,120.35c0,.24-3.4.44-7.59.44s-7.6-.2-7.6-.44,3.4-.44,7.6-.44S132.52,120.1,132.52,120.35Z"/><path class="cls-2" d="M132.52,136.43c0,.24-3.4.44-7.59.44s-7.6-.2-7.6-.44,3.4-.44,7.6-.44S132.52,136.19,132.52,136.43Z"/><path class="cls-2" d="M132.52,152.51c0,.24-3.4.44-7.59.44s-7.6-.2-7.6-.44,3.4-.44,7.6-.44S132.52,152.27,132.52,152.51Z"/><path class="cls-2" d="M132.52,168.59c0,.25-3.4.44-7.59.44s-7.6-.19-7.6-.44,3.4-.43,7.6-.43S132.52,168.35,132.52,168.59Z"/><path class="cls-2" d="M132.52,184.68c0,.24-3.4.44-7.59.44s-7.6-.2-7.6-.44,3.4-.44,7.6-.44S132.52,184.43,132.52,184.68Z"/><path class="cls-2" d="M132.52,200.76c0,.24-3.4.44-7.59.44s-7.6-.2-7.6-.44,3.4-.44,7.6-.44S132.52,200.52,132.52,200.76Z"/><path class="cls-2" d="M132.52,216.84c0,.24-3.4.44-7.59.44s-7.6-.2-7.6-.44,3.4-.44,7.6-.44S132.52,216.6,132.52,216.84Z"/><path class="cls-2" d="M132.52,232.92c0,.25-3.4.44-7.59.44s-7.6-.19-7.6-.44,3.4-.43,7.6-.43S132.52,232.68,132.52,232.92Z"/><path class="cls-2" d="M132.52,249c0,.24-3.4.43-7.59.43s-7.6-.19-7.6-.43,3.4-.44,7.6-.44S132.52,248.76,132.52,249Z"/><path class="cls-2" d="M132.52,265.09c0,.24-3.4.44-7.59.44s-7.6-.2-7.6-.44,3.4-.44,7.6-.44S132.52,264.85,132.52,265.09Z"/><path class="cls-2" d="M132.52,281.17c0,.24-3.4.44-7.59.44s-7.6-.2-7.6-.44,3.4-.44,7.6-.44S132.52,280.93,132.52,281.17Z"/><path class="cls-2" d="M132.52,297.25c0,.25-3.4.44-7.59.44s-7.6-.19-7.6-.44,3.4-.44,7.6-.44S132.52,297,132.52,297.25Z"/><path class="cls-2" d="M132.52,313.34c0,.24-3.4.43-7.59.43s-7.6-.19-7.6-.43,3.4-.44,7.6-.44S132.52,313.09,132.52,313.34Z"/><path class="cls-6" d="M193.39,87.23c0,.25-8.82.44-19.7.44S154,87.48,154,87.23s8.82-.44,19.71-.44S193.39,87,193.39,87.23Z"/><path class="cls-6" d="M193.39,313.34c0,.24-8.82.43-19.7.43s-19.71-.19-19.71-.43,8.82-.44,19.71-.44S193.39,313.09,193.39,313.34Z"/><path class="cls-6" d="M248.28,120.35c0,.24-16.51.44-36.87.44s-36.87-.2-36.87-.44,16.5-.44,36.87-.44S248.28,120.1,248.28,120.35Z"/><path class="cls-2" d="M333.56,120.35c0,.24-16.51.44-36.87.44s-36.88-.2-36.88-.44,16.51-.44,36.88-.44S333.56,120.1,333.56,120.35Z"/><path class="cls-2" d="M301,136.43c0,.24-24.33.44-54.34.44s-54.34-.2-54.34-.44,24.32-.44,54.34-.44S301,136.19,301,136.43Z"/><path class="cls-2" d="M301,152.51c0,.24-24.33.44-54.34.44s-54.34-.2-54.34-.44,24.32-.44,54.34-.44S301,152.27,301,152.51Z"/><path class="cls-2" d="M375.78,200.76c0,.24-24.34.44-54.34.44s-54.35-.2-54.35-.44,24.33-.44,54.35-.44S375.78,200.52,375.78,200.76Z"/><path class="cls-2" d="M343.49,168.59c0,.25-24.33.44-54.33.44s-54.35-.19-54.35-.44,24.33-.43,54.35-.43S343.49,168.35,343.49,168.59Z"/><path class="cls-2" d="M476.3,168.59c0,.25-24.33.44-54.33.44s-54.35-.19-54.35-.44,24.33-.43,54.35-.43S476.3,168.35,476.3,168.59Z"/><path class="cls-7" d="M430.12,136.43c0,.24-24.33.44-54.34.44s-54.34-.2-54.34-.44,24.32-.44,54.34-.44S430.12,136.19,430.12,136.43Z"/><path class="cls-7" d="M505.19,200.76c0,.24-24.33.44-54.34.44s-54.34-.2-54.34-.44,24.32-.44,54.34-.44S505.19,200.52,505.19,200.76Z"/><path class="cls-4" d="M490.2,152.51c0,.24-37.78.44-84.38.44s-84.38-.2-84.38-.44,37.77-.44,84.38-.44S490.2,152.27,490.2,152.51Z"/><path class="cls-7" d="M193.39,104.26c0,.25-8.82.44-19.7.44s-19.71-.19-19.71-.44,8.82-.43,19.71-.43S193.39,104,193.39,104.26Z"/><path class="cls-7" d="M193.39,297.25c0,.25-8.82.44-19.7.44S154,297.5,154,297.25s8.82-.44,19.71-.44S193.39,297,193.39,297.25Z"/><path class="cls-7" d="M212.92,168.59c0,.25-8.82.44-19.71.44s-19.71-.19-19.71-.44,8.83-.43,19.71-.43S212.92,168.35,212.92,168.59Z"/><path class="cls-6" d="M528.81,168.59c0,.25-8.82.44-19.7.44s-19.71-.19-19.71-.44,8.82-.43,19.71-.43S528.81,168.35,528.81,168.59Z"/><path class="cls-6" d="M248.28,232.83c0,.24-16.51.44-36.87.44s-36.87-.2-36.87-.44,16.5-.44,36.87-.44S248.28,232.59,248.28,232.83Z"/><path class="cls-2" d="M333.56,232.83c0,.24-16.51.44-36.87.44s-36.88-.2-36.88-.44,16.51-.44,36.88-.44S333.56,232.59,333.56,232.83Z"/><path class="cls-2" d="M301,248.91c0,.24-24.33.44-54.34.44s-54.34-.2-54.34-.44,24.32-.44,54.34-.44S301,248.67,301,248.91Z"/><path class="cls-2" d="M301,265c0,.25-24.33.44-54.34.44s-54.34-.19-54.34-.44,24.32-.43,54.34-.43S301,264.75,301,265Z"/><path class="cls-2" d="M343.49,281.08c0,.24-24.33.43-54.33.43s-54.35-.19-54.35-.43,24.33-.44,54.35-.44S343.49,280.83,343.49,281.08Z"/><path class="cls-2" d="M476.3,281.08c0,.24-24.33.43-54.33.43s-54.35-.19-54.35-.43,24.33-.44,54.35-.44S476.3,280.83,476.3,281.08Z"/><path class="cls-7" d="M430.12,248.91c0,.24-24.33.44-54.34.44s-54.34-.2-54.34-.44,24.32-.44,54.34-.44S430.12,248.67,430.12,248.91Z"/><path class="cls-4" d="M490.2,265c0,.25-37.78.44-84.38.44s-84.38-.19-84.38-.44,37.77-.43,84.38-.43S490.2,264.75,490.2,265Z"/><path class="cls-7" d="M212.92,281.08c0,.24-8.82.43-19.71.43s-19.71-.19-19.71-.43,8.83-.44,19.71-.44S212.92,280.83,212.92,281.08Z"/><path class="cls-6" d="M528.81,281.08c0,.24-8.82.43-19.7.43s-19.71-.19-19.71-.43,8.82-.44,19.71-.44S528.81,280.83,528.81,281.08Z"/><path class="cls-5" d="M539.32,360.09c0,.15-100.64.26-224.76.26s-224.78-.11-224.78-.26,100.62-.26,224.78-.26S539.32,360,539.32,360.09Z"/></g><g id="Plant"><path class="cls-6" d="M73,271.94A57.11,57.11,0,0,0,18.5,257a99.24,99.24,0,0,0,55.1,17.22"/><path class="cls-6" d="M54.48,206.54c2.27-16-4-34.1-16-45.76-.39,15.9,6.32,33.8,16,45.76"/><path class="cls-6" d="M64.09,236.85a85.64,85.64,0,0,0-39.35-37.61A54.08,54.08,0,0,0,64.24,237"/><path class="cls-6" d="M66.08,242.7c-9.69.27-19.5-.07-28.87-2.55s-18.35-7.25-24.59-14.67a96.49,96.49,0,0,1,53.32,16.27"/><path class="cls-6" d="M61.16,223.43c4.92-18.43,13-31.19,27.53-41.52a38.33,38.33,0,0,1-27.53,41.52"/><path class="cls-6" d="M97.74,255.23A27.29,27.29,0,0,0,81.16,230c.81,9.52,8.29,20.54,16.58,25.28"/><path class="cls-6" d="M102.37,239.68A40.65,40.65,0,0,1,129,205c-3.35,15.4-12.25,28.23-26.64,34.68"/><path class="cls-6" d="M95.4,267.27c3.41-4.89,9-7.93,14.76-9.44s11.8-1.64,17.76-1.77a41.5,41.5,0,0,1-32.07,13.36"/><path class="cls-6" d="M88.47,306.57A45.48,45.48,0,0,1,144,332.89c-20.18-3.83-40.1-12.8-55.56-26.32"/><path class="cls-6" d="M66.32,292.91c3.35,9.91,2.7,21.89-4.75,30.43a36.34,36.34,0,0,1,4.75-30.43"/><path class="cls-6" d="M53.22,287.4a37.28,37.28,0,0,1-20.59,30.26,2.29,2.29,0,0,1-1.82.3c-.91-.37-1-1.61-.88-2.58,1.46-12.7,10.87-25,23.29-28"/><path class="cls-6" d="M44.67,286.12a31,31,0,0,1-22.29,9.8A31,31,0,0,1,0,286.35c14.2-1.56,30.58-2.6,44.67-.23"/><path class="cls-5" d="M42.54,172.61s0,.14.13.41l.44,1.2c.4,1.08,1,2.63,1.71,4.6s1.65,4.44,2.67,7.29q.76,2.14,1.64,4.56l1.77,5.14c2.52,7.19,5.31,15.82,8.33,25.42s6.07,20.26,9.13,31.47,5.69,22,8,31.78,4.12,18.7,5.49,26.19q.53,2.81,1,5.34c.29,1.69.56,3.28.81,4.78.51,3,1,5.55,1.25,7.65s.57,3.72.75,4.85c.08.54.15.95.2,1.26a2.39,2.39,0,0,0,.09.43,2.31,2.31,0,0,0,0-.43c0-.32-.09-.73-.16-1.27-.15-1.14-.36-2.78-.64-4.87s-.67-4.69-1.16-7.67c-.24-1.5-.5-3.1-.77-4.79s-.63-3.48-1-5.35c-1.33-7.51-3.19-16.39-5.38-26.23s-4.92-20.58-7.94-31.81-6.18-21.85-9.17-31.47-5.88-18.23-8.44-25.41q-1-2.7-1.81-5.13L47.77,186c-1.05-2.84-2-5.29-2.75-7.26l-1.81-4.57c-.21-.5-.37-.89-.48-1.18A2.43,2.43,0,0,0,42.54,172.61Z"/><path class="cls-5" d="M120.54,213.22a1.83,1.83,0,0,0-.25.23l-.68.72c-.59.63-1.45,1.57-2.52,2.82a99,99,0,0,0-8.36,11.15,74.57,74.57,0,0,0-8.74,18.7c-2.35,7.44-3.8,15.91-5.25,24.75-2.88,17.7-6.43,33.56-9,45-1.29,5.71-2.34,10.34-3.08,13.58-.35,1.58-.62,2.82-.81,3.7-.09.4-.15.71-.2,1a1.05,1.05,0,0,0,0,.33,1.31,1.31,0,0,0,.1-.32c.06-.24.15-.55.25-.95.22-.87.53-2.1.92-3.67.77-3.23,1.88-7.85,3.24-13.54,2.66-11.45,6.27-27.31,9.16-45,1.45-8.85,2.88-17.28,5.18-24.69a75.76,75.76,0,0,1,8.59-18.65,107.49,107.49,0,0,1,8.2-11.21c1-1.27,1.88-2.24,2.44-2.89l.64-.75Z"/><path class="cls-5" d="M40.43,285.51a1.91,1.91,0,0,0,.51.1l1.47.16,1.06.1,1.26.19c.9.14,1.93.27,3.05.52l1.76.35,1.89.48c1.31.29,2.67.77,4.12,1.21a61.35,61.35,0,0,1,9,4,51.22,51.22,0,0,1,8.06,5.6,40.23,40.23,0,0,1,3.09,3A32.77,32.77,0,0,1,78.14,304c.75.87,1.28,1.76,1.81,2.5a18.18,18.18,0,0,1,1.24,2c.3.5.55.92.75,1.27a2.06,2.06,0,0,0,.3.43,1.54,1.54,0,0,0-.2-.48l-.67-1.33a14.79,14.79,0,0,0-1.17-2,27.74,27.74,0,0,0-1.76-2.57,31,31,0,0,0-2.42-2.9,40.62,40.62,0,0,0-3.09-3,49,49,0,0,0-8.13-5.69,57.91,57.91,0,0,0-9.1-4c-1.46-.43-2.83-.9-4.16-1.18l-1.91-.45-1.79-.32c-1.13-.23-2.17-.33-3.07-.44l-1.27-.14-1.07-.06L41,285.5A2.59,2.59,0,0,0,40.43,285.51Z"/><path class="cls-5" d="M36.38,213.56a7.88,7.88,0,0,0,1,1l2.92,2.53c2.48,2.12,5.94,5,9.77,8.21s7.34,6,9.88,8.09l3,2.4a7.16,7.16,0,0,0,1.16.82,6.63,6.63,0,0,0-1-1l-2.93-2.53c-2.48-2.13-5.93-5-9.77-8.21s-7.33-6-9.87-8.08l-3-2.4A6.72,6.72,0,0,0,36.38,213.56Z"/><path class="cls-5" d="M32.89,232.34c0,.15,7.42,2.48,16.65,5.21s16.77,4.82,16.81,4.68-7.41-2.47-16.65-5.2S32.94,232.2,32.89,232.34Z"/><path class="cls-5" d="M60.42,224.87a6.29,6.29,0,0,0,.77-1.07c.53-.8,1.18-1.81,2-3,1.66-2.52,4-6,6.83-9.62s5.5-6.86,7.48-9.13l2.36-2.7a5.88,5.88,0,0,0,.83-1,6.54,6.54,0,0,0-1,.89c-.61.59-1.46,1.47-2.49,2.58-2.07,2.22-4.82,5.38-7.63,9.06s-5.14,7.16-6.73,9.74c-.79,1.3-1.41,2.35-1.82,3.1A6.28,6.28,0,0,0,60.42,224.87Z"/><path class="cls-5" d="M86.31,235.29a25.57,25.57,0,0,0,1.75,2.88c1.12,1.75,2.63,4.18,4.19,6.93s2.89,5.3,3.82,7.15a25.89,25.89,0,0,0,1.58,3,17.13,17.13,0,0,0-1.23-3.14c-.85-1.9-2.12-4.48-3.69-7.25s-3.15-5.17-4.35-6.88A17.69,17.69,0,0,0,86.31,235.29Z"/><path class="cls-5" d="M95.17,267.78A40.66,40.66,0,0,0,99,266.11c2.33-1,5.58-2.41,9.25-3.7s7.07-2.24,9.55-2.87,4-1,4-1.06a4,4,0,0,0-1.11.11c-.71.11-1.73.3-3,.57a83.45,83.45,0,0,0-18.87,6.61c-1.15.57-2.07,1.05-2.69,1.41A4.83,4.83,0,0,0,95.17,267.78Z"/><path class="cls-5" d="M88.2,306.63s.15.07.46.15l1.34.34,5,1.15a162.32,162.32,0,0,1,16.19,4.27,71.7,71.7,0,0,1,15.11,7.1c1.81,1.15,3.22,2.17,4.17,2.9a14.07,14.07,0,0,0,1.5,1.11,2.35,2.35,0,0,0-.34-.35c-.23-.22-.56-.54-1-.92a42.92,42.92,0,0,0-4.09-3.06A66.09,66.09,0,0,0,111.33,312,137.2,137.2,0,0,0,95,307.89l-5-1A11.92,11.92,0,0,0,88.2,306.63Z"/><path class="cls-5" d="M63,316.2c.15,0,1-5.21,2-11.68s1.6-11.73,1.45-11.76-1,5.21-2,11.68S62.83,316.18,63,316.2Z"/><path class="cls-5" d="M36.72,306.67a27.72,27.72,0,0,0,2.37-2.81c1.42-1.77,3.39-4.2,5.61-6.85s4.28-5,5.78-6.7a27.76,27.76,0,0,0,2.36-2.82,3.73,3.73,0,0,0-.76.65c-.46.44-1.1,1.09-1.89,1.91-1.57,1.64-3.68,4-5.91,6.61s-4.15,5.13-5.49,7c-.68.92-1.21,1.67-1.56,2.2A3.73,3.73,0,0,0,36.72,306.67Z"/><polygon class="cls-6" points="106.21 331.02 106.21 343.99 102.96 343.99 91.43 380.39 65.86 380.39 54.69 344.35 50.36 343.99 50.36 331.02 106.21 331.02"/><g class="cls-8"><polygon points="106.21 331.02 106.21 343.99 102.96 343.99 91.43 380.39 65.86 380.39 54.69 344.35 50.36 343.99 50.36 331.02 106.21 331.02"/></g><path class="cls-5" d="M52.52,344.35c0,.15,11.3.27,25.22.27s25.22-.12,25.22-.27-11.29-.27-25.22-.27S52.52,344.2,52.52,344.35Z"/><path class="cls-5" d="M34.13,260.9a9.23,9.23,0,0,0,1.64.45l4.49,1.08c3.78.93,9,2.36,14.61,4.25s10.64,3.9,14.22,5.44L73.32,274a9.47,9.47,0,0,0,1.57.64,9.92,9.92,0,0,0-1.48-.83c-1-.5-2.39-1.19-4.17-2a150.22,150.22,0,0,0-14.19-5.61c-5.66-1.89-10.89-3.26-14.7-4.11-1.91-.42-3.46-.73-4.54-.91A10.94,10.94,0,0,0,34.13,260.9Z"/><path class="cls-7" d="M61,364.56c0,.15,7.92.28,17.69.28s17.69-.13,17.69-.28-7.92-.27-17.69-.27S61,364.41,61,364.56Z"/><path class="cls-7" d="M60,361.56c0,.15,8.4.27,18.75.27s18.75-.12,18.75-.27-8.39-.28-18.75-.28S60,361.41,60,361.56Z"/></g><g id="Floor"><path class="cls-5" d="M685.34,380.6c0,.14-152.44.26-340.44.26S4.42,380.74,4.42,380.6s152.41-.26,340.48-.26S685.34,380.45,685.34,380.6Z"/></g><g id="Speech_Bubbles" data-name="Speech Bubbles"><polygon class="cls-7" points="591.92 0.24 323.93 0.24 323.93 166.2 549.53 166.2 563.5 198.34 575.88 166.2 591.92 166.2 591.92 0.24"/><path class="cls-5" d="M591.92.24c0,1.61.07,64,.2,166v.2H575.88l.19-.13c-3.87,10.07-8.05,20.93-12.37,32.14l-.19.5-.22-.5c-4.38-10.06-9.11-20.95-14-32.12l.21.14-204,0H323.67v-.26c0-59.14,0-115.28,0-166V0h.24l268,.24-268,.23.24-.23c0,50.68,0,106.82,0,166l-.26-.26h21.59l204,0h.15l.06.14,14,32.14h-.41c4.32-11.21,8.51-22.06,12.4-32.13l0-.13h16.18l-.2.2C591.84,64.2,591.91,1.85,591.92.24Z"/><path class="cls-5" d="M591.78,16.43c0,.2-59.88.37-133.72.37s-133.73-.17-133.73-.37,59.87-.36,133.73-.36S591.78,16.23,591.78,16.43Z"/><path class="cls-5" d="M338.17,9.1A2.2,2.2,0,1,1,336,6.91,2.2,2.2,0,0,1,338.17,9.1Z"/><path class="cls-5" d="M346.12,9.1a2.2,2.2,0,1,1-2.19-2.19A2.2,2.2,0,0,1,346.12,9.1Z"/><path class="cls-5" d="M354.07,9.1a2.2,2.2,0,1,1-2.2-2.19A2.2,2.2,0,0,1,354.07,9.1Z"/><path class="cls-5" d="M353.16,46.12l-6.36,2.46L353.16,51v1.49l-8-3.17V47.81l8-3.18Z"/><path class="cls-5" d="M359.78,39.76h1.56l-5.91,16.89h-1.57Z"/><path class="cls-5" d="M369.91,47.81v1.54l-8,3.17V51l6.38-2.45-6.38-2.46V44.63Z"/><path class="cls-5" d="M371.94,53.72a1.2,1.2,0,0,1,1.22-1.21,1.18,1.18,0,0,1,1.19,1.21A1.2,1.2,0,0,1,373.16,55,1.22,1.22,0,0,1,371.94,53.72Z"/><path class="cls-5" d="M376,53.72a1.19,1.19,0,0,1,1.22-1.21,1.18,1.18,0,0,1,1.18,1.21A1.2,1.2,0,0,1,377.24,55,1.21,1.21,0,0,1,376,53.72Z"/><path class="cls-5" d="M380.09,53.72a1.19,1.19,0,0,1,1.22-1.21,1.18,1.18,0,0,1,1.18,1.21A1.2,1.2,0,0,1,381.31,55,1.21,1.21,0,0,1,380.09,53.72Z"/><path class="cls-4" d="M522.38,69.82c0,.2-39.61.37-88.47.37s-88.48-.17-88.48-.37,39.61-.37,88.48-.37S522.38,69.62,522.38,69.82Z"/><path class="cls-5" d="M551.28,70.34c0,.21-3.8.37-8.5.37s-8.5-.16-8.5-.37,3.81-.36,8.5-.36S551.28,70.14,551.28,70.34Z"/><path class="cls-5" d="M576.13,70.34c0,.21-4.16.37-9.28.37s-9.29-.16-9.29-.37,4.16-.36,9.29-.36S576.13,70.14,576.13,70.34Z"/><path class="cls-4" d="M458.11,84.73c0,.2-25.18.37-56.24.37s-56.23-.17-56.23-.37,25.17-.37,56.23-.37S458.11,84.53,458.11,84.73Z"/><path class="cls-4" d="M457.3,140.36c0,.2-25.18.37-56.23.37s-56.24-.17-56.24-.37S370,140,401.07,140,457.3,140.16,457.3,140.36Z"/><path class="cls-5" d="M499,84.73c0,.2-6.85.37-15.3.37s-15.3-.17-15.3-.37,6.85-.37,15.3-.37S499,84.53,499,84.73Z"/><path class="cls-5" d="M498.65,140.36c0,.2-6.85.37-15.3.37s-15.3-.17-15.3-.37,6.85-.36,15.3-.36S498.65,140.16,498.65,140.36Z"/><path class="cls-6" d="M353,92.31c0,.21-1.7.37-3.8.37s-3.79-.16-3.79-.37,1.7-.36,3.79-.36S353,92.11,353,92.31Z"/><path class="cls-5" d="M379.17,92.47c0,.2-3.69.37-8.24.37s-8.24-.17-8.24-.37,3.69-.36,8.24-.36S379.17,92.27,379.17,92.47Z"/><path class="cls-5" d="M395.91,92.47c0,.2-3.16.37-7.06.37s-7.06-.17-7.06-.37,3.16-.36,7.06-.36S395.91,92.27,395.91,92.47Z"/><path class="cls-5" d="M417.1,92.47c0,.2-3.22.37-7.19.37s-7.2-.17-7.2-.37,3.22-.36,7.2-.36S417.1,92.27,417.1,92.47Z"/><path class="cls-5" d="M435.67,92.47c0,.2-2.93.37-6.54.37s-6.54-.17-6.54-.37,2.93-.36,6.54-.36S435.67,92.27,435.67,92.47Z"/><path class="cls-5" d="M497.14,92.47c0,.2-12.88.37-28.77.37s-28.78-.17-28.78-.37,12.88-.36,28.78-.36S497.14,92.27,497.14,92.47Z"/><path class="cls-6" d="M352,102c0,.2-1.46.37-3.27.37s-3.27-.17-3.27-.37,1.47-.36,3.27-.36S352,101.79,352,102Z"/><path class="cls-6" d="M352.23,111.93c0,.2-1.52.37-3.4.37s-3.4-.17-3.4-.37,1.52-.36,3.4-.36S352.23,111.73,352.23,111.93Z"/><path class="cls-6" d="M352.23,123.18c0,.2-1.52.37-3.4.37s-3.4-.17-3.4-.37,1.52-.37,3.4-.37S352.23,123,352.23,123.18Z"/><path class="cls-5" d="M414.22,122.66c0,.2-11.36.36-25.37.36s-25.37-.16-25.37-.36,11.36-.37,25.37-.37S414.22,122.45,414.22,122.66Z"/><path class="cls-5" d="M409.78,111.93c0,.2-10.84.37-24.2.37s-24.19-.17-24.19-.37,10.83-.36,24.19-.36S409.78,111.73,409.78,111.93Z"/><path class="cls-5" d="M526.7,101.47c0,.2-36.9.37-82.39.37s-82.4-.17-82.4-.37,36.88-.37,82.4-.37S526.7,101.27,526.7,101.47Z"/><polygon class="cls-7" points="608.38 68.11 608.38 209.15 586.45 227.45 608.38 227.45 610.54 227.45 701.14 227.45 701.14 68.11 608.38 68.11"/><path class="cls-5" d="M608.38,68.11l1.62,0,4.8,0,18.47,0,67.87-.11h.2v.2c0,42.57,0,98.17.06,159.34v.26H685.06l-98.61,0h-.66l.51-.43L608.24,209l-.09.18c.05-42.17.09-77.45.12-102.2,0-12.35.05-22.06.06-28.7,0-3.31,0-5.84,0-7.56,0-.85,0-1.49,0-1.94s0-.64,0-.64,0,.23,0,.67,0,1.1,0,2c0,1.73,0,4.28,0,7.6,0,6.65,0,16.39.06,28.76,0,24.71.06,59.94.11,102.05v.11l-.08.07-21.92,18.3-.16-.42,98.61,0h16.08l-.26.26c0-61.17,0-116.77.06-159.34l.2.2-67.75-.11-18.51,0-4.84,0Z"/><path class="cls-5" d="M616.81,75.13a1.88,1.88,0,1,1-1.88-1.88A1.88,1.88,0,0,1,616.81,75.13Z"/><path class="cls-5" d="M623.61,75.13a1.88,1.88,0,1,1-1.88-1.88A1.88,1.88,0,0,1,623.61,75.13Z"/><path class="cls-5" d="M630.41,75.13a1.88,1.88,0,1,1-1.88-1.88A1.88,1.88,0,0,1,630.41,75.13Z"/><path class="cls-6" d="M675.64,118.58c0,.17-11.76.3-26.26.3s-26.26-.13-26.26-.3,11.75-.3,26.26-.3S675.64,118.42,675.64,118.58Z"/><path class="cls-6" d="M686.6,131.34c0,.17-14.31.3-32,.3s-32-.13-32-.3,14.31-.3,32-.3S686.6,131.17,686.6,131.34Z"/><path class="cls-6" d="M689.2,179c0,.16-15.26.3-34.08.3S621,179.11,621,179s15.26-.31,34.08-.31S689.2,178.78,689.2,179Z"/><path class="cls-6" d="M628,137.83a17.7,17.7,0,0,1-6.49,0,17.7,17.7,0,0,1,6.49,0Z"/><path class="cls-6" d="M650.43,138a83,83,0,0,1-14.1,0c0-.17,3.15-.31,7-.31S650.43,137.8,650.43,138Z"/><path class="cls-6" d="M664.75,138a61,61,0,0,1-12.08,0c0-.17,2.7-.31,6-.31S664.75,137.8,664.75,138Z"/><path class="cls-6" d="M627.15,146.11a13.22,13.22,0,0,1-5.6,0,13.22,13.22,0,0,1,5.6,0Z"/><path class="cls-6" d="M627.37,154.62a14.26,14.26,0,0,1-5.82,0,14.26,14.26,0,0,1,5.82,0Z"/><path class="cls-6" d="M627.37,164.24a14.26,14.26,0,0,1-5.82,0,14.26,14.26,0,0,1,5.82,0Z"/><path class="cls-6" d="M680.42,163.79c0,.17-9.72.31-21.71.31S637,164,637,163.79s9.72-.3,21.71-.3S680.42,163.63,680.42,163.79Z"/><path class="cls-6" d="M676.61,154.62c0,.16-9.27.3-20.7.3s-20.7-.14-20.7-.3,9.27-.3,20.7-.3S676.61,154.45,676.61,154.62Z"/><path class="cls-6" d="M631.61,191.65a14.26,14.26,0,0,1-5.82,0,14.26,14.26,0,0,1,5.82,0Z"/><path class="cls-6" d="M631.61,201.28a14.26,14.26,0,0,1-5.82,0,14.26,14.26,0,0,1,5.82,0Z"/><path class="cls-6" d="M684.66,200.83c0,.17-9.72.3-21.71.3s-21.71-.13-21.71-.3,9.71-.3,21.71-.3S684.66,200.66,684.66,200.83Z"/><path class="cls-6" d="M680.85,191.65c0,.17-9.27.3-20.7.3s-20.7-.13-20.7-.3,9.26-.3,20.7-.3S680.85,191.49,680.85,191.65Z"/><path class="cls-6" d="M692,145.66c0,.17-12.62.31-28.18.31s-28.18-.14-28.18-.31,12.62-.3,28.18-.3S692,145.5,692,145.66Z"/><path class="cls-5" d="M700.27,82.49c0,.17-20.37.3-45.49.3s-45.49-.13-45.49-.3,20.36-.3,45.49-.3S700.27,82.32,700.27,82.49Z"/><path class="cls-6" d="M642.31,110.89a154.07,154.07,0,0,1-19.22,0c0-.17,4.3-.3,9.61-.3S642.31,110.72,642.31,110.89Z"/><path class="cls-6" d="M631.43,93.49a34.35,34.35,0,0,1-9.06,0c0-.17,2-.3,4.53-.3S631.43,93.32,631.43,93.49Z"/></g><g id="Character"><path class="cls-6" d="M551.15,298.87,571.29,279l-35.92-61.51a34.66,34.66,0,0,0-13.78-9.59l-12.65-4.81-31.45-5.76-22.32,8.79a13.35,13.35,0,0,0-8.37,14l5.84,49.17,3.44,64,81.13-14.07-8.16-23.68.27-36.91Z"/><path class="cls-5" d="M529.79,293.93c.19,0,.24-12.79.11-28.56s-.38-28.56-.57-28.56-.24,12.79-.11,28.56S529.6,293.93,529.79,293.93Z"/><path class="cls-6" d="M526.82,303.31l-49-19.73a11.22,11.22,0,0,1-7-9.54l-3.58-47s.42-20-12.06-21l-7.11,2.8c-9.18,4.87-11.45,18.24-10.2,28.55,1.77,14.67,2.51,35.42,4.5,48.14,1.63,10.41,7.88,18.65,17.78,22.25l60.38,13.07Z"/><path class="cls-5" d="M467.93,234.21a6.28,6.28,0,0,1,.15,1.08c.08.76.19,1.79.32,3.09.25,2.76.6,6.64,1,11.4s.9,10.56,1.45,16.91c.13,1.59.27,3.22.41,4.89a37.37,37.37,0,0,0,.63,5,8.31,8.31,0,0,0,2.43,4.4,16.72,16.72,0,0,0,4.53,2.82c13.51,5.85,26,10.68,35,14.06l10.74,4,2.92,1.07a7,7,0,0,1,1,.42,7.52,7.52,0,0,1-1-.29l-3-1c-2.57-.85-6.27-2.13-10.82-3.76-9.09-3.28-21.57-8-35.13-13.91a17.1,17.1,0,0,1-4.7-2.93,9,9,0,0,1-2.61-4.74,37,37,0,0,1-.62-5.12q-.21-2.49-.39-4.89c-.5-6.35-.94-12.08-1.32-16.92s-.62-8.66-.83-11.42c-.08-1.3-.14-2.34-.19-3.1A8.13,8.13,0,0,1,467.93,234.21Z"/><path class="cls-5" d="M439.84,259.76a1.94,1.94,0,0,1,.1.63c.05.49.1,1.09.16,1.81.15,1.68.35,3.93.58,6.67s.61,6.16,1.1,9.86A94.25,94.25,0,0,0,444,290.64a17.71,17.71,0,0,0,2.39,5.68,32.43,32.43,0,0,0,3.66,4.5,31.22,31.22,0,0,0,7.85,5.88,29.18,29.18,0,0,0,8.61,2.82,2.26,2.26,0,0,1-.64,0,11.7,11.7,0,0,1-1.82-.23,24.1,24.1,0,0,1-6.37-2.16,30.43,30.43,0,0,1-8.06-5.87,31.7,31.7,0,0,1-3.76-4.56,18.21,18.21,0,0,1-2.5-5.87,89.53,89.53,0,0,1-2.18-12c-.45-3.72-.75-7.07-1-9.9s-.31-5.11-.37-6.69c0-.73,0-1.33,0-1.82A2.63,2.63,0,0,1,439.84,259.76Z"/><path class="cls-5" d="M460.81,292.65a7.05,7.05,0,0,1,.89-2.61,16.58,16.58,0,0,1,4.11-5.25,16.85,16.85,0,0,1,5.83-3.25,7.15,7.15,0,0,1,2.72-.47c0,.11-1,.31-2.56.91a19,19,0,0,0-9.69,8.27C461.27,291.7,460.91,292.68,460.81,292.65Z"/><g class="cls-8"><path d="M512.73,297.71c-5.24-3-10.37-5.24-15.85-7.73s-10.85-5.69-14.43-10.52c-6.77-9.12-6-22.28-12.92-31.28l1.35,18.16c.42,5.54-.43,11,3.14,14.79,3,3.18,8.88,5.61,13,7,8.35,2.76,17.34,6.85,25.68,9.6"/></g><polygon class="cls-9" points="529.33 240.28 533.57 266.43 529.56 259.02 529.33 240.28"/><path class="cls-4" d="M466.45,224.14a5.36,5.36,0,0,1-1.13.08l-3.1.08c-2.61.07-6.21.2-10.18.48s-7.55.67-10.15,1l-3.07.36a4.8,4.8,0,0,1-1.13.08,4.49,4.49,0,0,1,1.1-.28c.72-.14,1.76-.33,3-.53,2.59-.4,6.18-.84,10.16-1.13s7.61-.35,10.22-.33c1.31,0,2.37,0,3.1.09A4.32,4.32,0,0,1,466.45,224.14Z"/><path class="cls-4" d="M467.85,249.17c0,.14-6.42.79-14.35,1.45s-14.39,1.07-14.4.93,6.41-.8,14.35-1.45S467.83,249,467.85,249.17Z"/><path class="cls-4" d="M470.21,275.48a4.75,4.75,0,0,1-1,.58c-.67.35-1.65.81-2.9,1.34A60.24,60.24,0,0,1,445.84,282c-1.34.06-2.43.07-3.19,0a4.69,4.69,0,0,1-1.16-.1,5.73,5.73,0,0,1,1.16-.11c.75,0,1.83-.09,3.17-.19a74,74,0,0,0,10.34-1.54,72.85,72.85,0,0,0,10-3c1.25-.47,2.26-.88,2.95-1.17A5,5,0,0,1,470.21,275.48Z"/><path class="cls-4" d="M487.64,289a26.22,26.22,0,0,0-4.86,3.9,27.16,27.16,0,0,0-3.39,5.23,5.06,5.06,0,0,1,.54-1.79,14.27,14.27,0,0,1,6-6.62A4.85,4.85,0,0,1,487.64,289Z"/><path class="cls-4" d="M505.37,306.31a19.14,19.14,0,0,1,5.24-9.57c.12.1-1.42,2-2.86,4.66S505.52,306.35,505.37,306.31Z"/><path class="cls-4" d="M477.43,209.42a98.81,98.81,0,0,1-14,2.52,49.44,49.44,0,0,1,6.93-1.52A46.21,46.21,0,0,1,477.43,209.42Z"/><path class="cls-4" d="M524.36,211.55a90.29,90.29,0,0,1-9.62-.88,92.53,92.53,0,0,1-9.55-1.39,87.24,87.24,0,0,1,9.62.88A89.37,89.37,0,0,1,524.36,211.55Z"/><path class="cls-4" d="M528.36,233.38a2.63,2.63,0,0,1-.61,0h-8.23c-5.46,0-13,0-21.33.26s-15.86.55-21.32.84l-6.46.34-1.75.08a2.65,2.65,0,0,1-.62,0,2.79,2.79,0,0,1,.61-.1l1.75-.17c1.52-.15,3.72-.32,6.45-.51,5.45-.38,13-.78,21.33-1s15.88-.2,21.35-.11c2.73,0,4.94.11,6.46.18l1.76.08A2.7,2.7,0,0,1,528.36,233.38Z"/><path class="cls-4" d="M528.94,261c0,.14-12.85,1.1-28.72,2.15s-28.75,1.78-28.76,1.63,12.85-1.1,28.72-2.15S528.93,260.87,528.94,261Z"/><path class="cls-4" d="M527.57,285.37a5.76,5.76,0,0,1-1.08.46c-.71.27-1.74.63-3,1.05-2.57.83-6.16,1.89-10.17,2.85s-7.68,1.66-10.35,2.08c-1.34.21-2.42.36-3.17.44a4.56,4.56,0,0,1-1.18.08,6.21,6.21,0,0,1,1.15-.28l3.13-.61c2.65-.51,6.3-1.25,10.3-2.21s7.59-2,10.18-2.71l3.07-.88A4.45,4.45,0,0,1,527.57,285.37Z"/><path class="cls-4" d="M548.14,241.23a89.43,89.43,0,0,1-9.34,2.68,88.06,88.06,0,0,1-9.47,2.18,91.28,91.28,0,0,1,9.34-2.68A92.37,92.37,0,0,1,548.14,241.23Z"/><path class="cls-4" d="M538.33,222.54a16.58,16.58,0,0,1-4.13,1,17.61,17.61,0,0,1-4.24.5,35,35,0,0,1,8.37-1.51Z"/><path class="cls-5" d="M468.08,228.34c-.1,0-.26-1.66-1.17-4.17a21.07,21.07,0,0,0-14.86-13.35c-2.6-.65-4.29-.62-4.28-.72a4.38,4.38,0,0,1,1.18,0,18.31,18.31,0,0,1,3.18.41,20.34,20.34,0,0,1,15.12,13.59,17.32,17.32,0,0,1,.75,3.12A4.49,4.49,0,0,1,468.08,228.34Z"/><path class="cls-5" d="M526.48,215a80.32,80.32,0,0,1,1.73,9.14,81.43,81.43,0,0,1,1.21,9.23,84.58,84.58,0,0,1-1.72-9.14A86,86,0,0,1,526.48,215Z"/><path class="cls-6" d="M581.12,362.4s37.68,10.43,39.19,11c2.27.8,1.89,9.11-1.64,9-1.67-.07-28.94,1-32.39.8s-13.84-4.32-13.84-4.32Z"/><path class="cls-5" d="M596.82,376.78c.19,0,.44-2,1.66-4s2.78-3.32,2.66-3.47a6.79,6.79,0,0,0-3.21,3.16C596.64,374.64,596.66,376.79,596.82,376.78Z"/><path class="cls-5" d="M592.89,375c.18,0,.56-1.74,1.57-3.71s2.19-3.35,2-3.48A7.13,7.13,0,0,0,593.9,371C592.84,373.07,592.73,375,592.89,375Z"/><path class="cls-5" d="M589.2,374c.19,0,0-1.9.88-4s2.19-3.39,2.06-3.53-1.77,1-2.64,3.3S589.05,374.06,589.2,374Z"/><path class="cls-5" d="M589.87,369.14a6.64,6.64,0,0,0,.41-2.8,13.64,13.64,0,0,0-.39-3.08,11.67,11.67,0,0,0-.56-1.74,2.11,2.11,0,0,0-.6-.93,1,1,0,0,0-1.29.07,1.65,1.65,0,0,0-.51,1.06,8.53,8.53,0,0,0,0,1,7.72,7.72,0,0,0,.23,1.84,11.27,11.27,0,0,0,1.16,2.88,7.78,7.78,0,0,0,1.69,2.27c.09-.06-.54-.94-1.3-2.47a12.42,12.42,0,0,1-1-2.81,8,8,0,0,1-.19-1.72c0-.58,0-1.3.35-1.58a.36.36,0,0,1,.5,0,1.62,1.62,0,0,1,.41.66,11.67,11.67,0,0,1,.57,1.66,14.94,14.94,0,0,1,.5,2.94C589.94,368.06,589.77,369.13,589.87,369.14Z"/><path class="cls-5" d="M589.83,368.76a5.33,5.33,0,0,0-2.43-.39,10.46,10.46,0,0,0-2.68.32,5.82,5.82,0,0,0-1.54.57,1.6,1.6,0,0,0-.85,1.72,1.89,1.89,0,0,0,1.36,1.35,3.56,3.56,0,0,0,1.69,0,6.38,6.38,0,0,0,2.45-1.2,6.74,6.74,0,0,0,1.75-1.73,16.4,16.4,0,0,0-2,1.36,6.62,6.62,0,0,1-2.31,1,2.88,2.88,0,0,1-1.4,0,1.29,1.29,0,0,1-.92-.89,1,1,0,0,1,.56-1,6,6,0,0,1,1.37-.54,13.56,13.56,0,0,1,2.54-.44C588.89,368.71,589.81,368.86,589.83,368.76Z"/><path class="cls-5" d="M602.61,377.18c.18,0,0-1.63.74-3.4s2-2.8,1.84-2.95-1.63.74-2.42,2.71S602.45,377.25,602.61,377.18Z"/><path class="cls-5" d="M576.32,378.92a7.66,7.66,0,0,0,1.45.68,31.53,31.53,0,0,0,4.2,1.3,59.62,59.62,0,0,0,14.38,1.37c5.65-.06,10.74-.32,14.43-.47l4.36-.23a8.44,8.44,0,0,0,1.6-.17,7.29,7.29,0,0,0-1.61-.08l-4.37,0-14.41.29a67.14,67.14,0,0,1-14.29-1.17C578.46,379.73,576.36,378.8,576.32,378.92Z"/><path class="cls-5" d="M575.2,379.78c0,.08,1.08-.52,2.82-1.28a13.17,13.17,0,0,1,7.13-1.19c2.84.44,4.86,2.35,6.17,3.67a22.57,22.57,0,0,0,2.17,2.22,11.52,11.52,0,0,0-1.85-2.52,15,15,0,0,0-2.49-2.34,9,9,0,0,0-3.9-1.65,12.51,12.51,0,0,0-7.41,1.4A10.15,10.15,0,0,0,575.2,379.78Z"/><path class="cls-6" d="M536.53,353.65S500.87,377,499.59,378c-1.92,1.45.29,8.36,3.61,7.17,1.57-.57,31.49-8.89,34.71-10.14s11.88-8.32,11.88-8.32Z"/><path class="cls-5" d="M525.94,372.12c.15,0-.48-2.09-2.39-3.82s-4-2.19-4-2,1.82.86,3.59,2.5S525.77,372.2,525.94,372.12Z"/><path class="cls-5" d="M529.14,369.23c.15-.06-.54-1.85-2.17-3.51s-3.4-2.4-3.46-2.25,1.47,1.11,3,2.69S529,369.31,529.14,369.23Z"/><path class="cls-5" d="M532.35,367.17c.16,0,0-2-1.56-3.92s-3.48-2.5-3.51-2.34,1.62,1,3,2.73S532.17,367.21,532.35,367.17Z"/><path class="cls-5" d="M530.24,362.73c.09,0-.4-1-.81-2.66a15.71,15.71,0,0,1-.42-3,15,15,0,0,1,0-1.76,1.59,1.59,0,0,1,.19-.75.37.37,0,0,1,.49-.11c.41.16.62.85.81,1.4a8,8,0,0,1,.35,1.7,12.29,12.29,0,0,1-.09,3c-.25,1.7-.58,2.72-.48,2.76a7.82,7.82,0,0,0,.92-2.68,11.38,11.38,0,0,0,.23-3.1,8.07,8.07,0,0,0-.34-1.82,7.16,7.16,0,0,0-.35-.94,1.66,1.66,0,0,0-.8-.86,1,1,0,0,0-1.25.33,2.18,2.18,0,0,0-.3,1.07,14,14,0,0,0,0,1.83,13,13,0,0,0,.57,3.05A6.54,6.54,0,0,0,530.24,362.73Z"/><path class="cls-5" d="M530.16,362.35c.05.1.89-.33,2.32-.68a12.87,12.87,0,0,1,2.56-.35,5.47,5.47,0,0,1,1.46.1,1,1,0,0,1,.85.83,1.27,1.27,0,0,1-.6,1.13,2.92,2.92,0,0,1-1.33.44,6.61,6.61,0,0,1-2.5-.25,15.18,15.18,0,0,0-2.33-.68,7,7,0,0,0,2.2,1.11,6.44,6.44,0,0,0,2.69.4,3.52,3.52,0,0,0,1.62-.51,1.88,1.88,0,0,0,.88-1.69,1.58,1.58,0,0,0-1.33-1.38,5.82,5.82,0,0,0-1.64-.08,11.47,11.47,0,0,0-2.65.5A5.46,5.46,0,0,0,530.16,362.35Z"/><path class="cls-5" d="M507.74,383.82c.05.06.6-.36.88-1.38a5.26,5.26,0,0,0-.67-3.87,14.13,14.13,0,0,0-1.2-1.78,6.37,6.37,0,0,0-1.21-1.3,2.08,2.08,0,0,0-1.14-.47c-.29,0-.45.06-.44.09a3.4,3.4,0,0,1,1.3.72,8.54,8.54,0,0,1,1,1.3,18.9,18.9,0,0,1,1.12,1.75,5.52,5.52,0,0,1,.78,3.47A13.16,13.16,0,0,1,507.74,383.82Z"/><path class="cls-5" d="M520.54,374.26c.17,0,.12-1.79-1.25-3.42s-3.13-2-3.14-1.84,1.44.76,2.65,2.25S520.36,374.3,520.54,374.26Z"/><path class="cls-5" d="M546.12,367.93a15.57,15.57,0,0,0-1.57,1.08,45.45,45.45,0,0,1-4.39,2.69,58.48,58.48,0,0,1-7,3.11c-2.7,1-5.73,2-8.93,2.88-6.42,1.85-12.23,3.54-16.42,4.8L502.88,384a10.71,10.71,0,0,0-1.79.64,11,11,0,0,0,1.86-.4l5-1.33c4.22-1.15,10-2.77,16.46-4.62,3.21-.93,6.25-1.9,9-2.95a52.78,52.78,0,0,0,7-3.26,34.3,34.3,0,0,0,4.33-2.89A9.16,9.16,0,0,0,546.12,367.93Z"/><path class="cls-5" d="M547.44,368.41a10.06,10.06,0,0,0-3-.8,12.46,12.46,0,0,0-7.49.91,9,9,0,0,0-3.21,2.76,15.62,15.62,0,0,0-1.67,3,11.82,11.82,0,0,0-1,3,22.07,22.07,0,0,0,1.39-2.77c.85-1.66,2.19-4.09,4.76-5.36a13.12,13.12,0,0,1,7.16-1C546.26,368.25,547.42,368.51,547.44,368.41Z"/><path class="cls-5" d="M610.65,295.27s10.69,3.82,10.74,15.81c.08,23-46.42,48.3-46.42,48.3l-61.89-41-3.88-1.57S592.74,285.42,610.65,295.27Z"/><path class="cls-4" d="M544.43,339.09A11.81,11.81,0,0,0,546,338c1-.73,2.46-1.82,4.24-3.19,3.54-2.74,8.36-6.62,13.55-11.07s9.75-8.64,13-11.73c1.62-1.54,2.92-2.81,3.8-3.7a12.73,12.73,0,0,0,1.33-1.42,9.8,9.8,0,0,0-1.5,1.25l-3.93,3.55c-3.32,3-7.93,7.12-13.1,11.57s-9.95,8.37-13.42,11.2l-4.11,3.35A11.36,11.36,0,0,0,544.43,339.09Z"/><path class="cls-4" d="M593.18,303.86c0-.16-2.74-.43-6,.54a12.36,12.36,0,0,0-5.3,2.78c.1.17,2.36-1.27,5.48-2.18S593.18,304.05,593.18,303.86Z"/><path class="cls-4" d="M587.84,300.24c-.05-.15-2,.72-3.66,2.76s-2.09,4.14-1.93,4.16.86-1.86,2.42-3.77S587.94,300.4,587.84,300.24Z"/><path class="cls-5" d="M614.05,373c0-.07-.74-.22-1.6.48a5.81,5.81,0,0,0-1.78,3.6,7,7,0,0,0,.56,4c.44.94.92,1.38,1,1.33s-.25-.58-.56-1.5a8.16,8.16,0,0,1-.35-3.71,6.21,6.21,0,0,1,1.46-3.35C613.41,373.11,614.06,373.08,614.05,373Z"/><path class="cls-2" d="M606.22,262.64l-17.6,47.43a6.83,6.83,0,0,1-6.5,4.45l-96.92-1.27v-7.37l36,1.32,15.26-47.35a3.86,3.86,0,0,1,3.69-2.67l62.52.18A3.86,3.86,0,0,1,606.22,262.64Z"/><path class="cls-5" d="M606.22,262.64s0-.05,0-.15a2.57,2.57,0,0,0,.12-.44,3.71,3.71,0,0,0,0-1.78,3.81,3.81,0,0,0-1.7-2.29,3.7,3.7,0,0,0-1.76-.56c-.66,0-1.39,0-2.15,0l-26.08,0-18.27,0-10.27,0h-5.39a4.26,4.26,0,0,0-2.58.56,3.79,3.79,0,0,0-1.61,2.11l-15.22,47.26,0,.11h-.12l-36-1.31.16-.16v7.37l-.15-.16,60.94.82,26.49.36,6.11.08,3,0a7.06,7.06,0,0,0,2.82-.42,6.7,6.7,0,0,0,3.88-3.73c.64-1.73,1.27-3.41,1.89-5.06,4.91-13.17,8.88-23.81,11.62-31.17,1.38-3.66,2.44-6.5,3.17-8.45s1.12-2.93,1.12-2.93-.35,1-1.06,3-1.77,4.79-3.12,8.46c-2.72,7.37-6.65,18-11.53,31.21l-1.88,5.06a7,7,0,0,1-4,3.88,7.36,7.36,0,0,1-2.91.43l-3,0-6.11-.07-26.49-.34-60.95-.79h-.15v-7.68h.16l36,1.31-.15.11,15.26-47.25a4,4,0,0,1,1.72-2.25,4.51,4.51,0,0,1,2.72-.6l5.39,0,10.27,0,18.27.07,26.08.12c.76,0,1.48,0,2.16,0a3.76,3.76,0,0,1,1.8.58,3.94,3.94,0,0,1,1.71,2.34,3.71,3.71,0,0,1,0,1.8A3.52,3.52,0,0,1,606.22,262.64Z"/><path class="cls-10" d="M563.25,280.57a4.35,4.35,0,0,1,4.71.51,3.81,3.81,0,0,1,.92,4.17,4.12,4.12,0,0,1-3.54,2.47,3.71,3.71,0,0,1-3.74-2.47c-.45-1.55,0-3.86,1.65-4.68"/><path class="cls-5" d="M585.4,362S498.06,306,494.21,303.82c-3.28-1.86-12.06-7.27-20.71-4.88s-16.41,10.15-20.29,21.48C451,326.9,450,338,449.46,346.24a38.3,38.3,0,0,0,9,27.31c2.95,3.42,6.59,6.4,10.9,7.74.91.28,1.86.53,2.83.74,16.53,3.58,33.52-3.84,42.81-18l2-3.1s57.2,21,58.09,20.71Z"/><path class="cls-4" d="M498.72,306.92s-.08,0-.22-.13l-.61-.41c-.54-.37-1.33-.92-2.36-1.59a46.84,46.84,0,0,0-9.28-4.71,25,25,0,0,0-7-1.47,20,20,0,0,0-8,1.31,25.93,25.93,0,0,0-7.72,4.68,36.31,36.31,0,0,0-3.43,3.37,24.8,24.8,0,0,0-2.84,4,40.77,40.77,0,0,0-3.76,9c-.83,3.05-1.49,6.06-2.11,8.9a80.9,80.9,0,0,0-2,15.33,55.57,55.57,0,0,0,.79,10.38c.19,1.22.41,2.16.54,2.79l.14.73a.79.79,0,0,1,0,.25,1.29,1.29,0,0,1-.08-.24l-.19-.71c-.17-.63-.42-1.56-.64-2.78a51.86,51.86,0,0,1-1-10.43,78.62,78.62,0,0,1,1.91-15.42c.62-2.86,1.26-5.84,2.08-8.94a42.07,42.07,0,0,1,3.81-9.11,25.18,25.18,0,0,1,2.9-4.12,35,35,0,0,1,3.49-3.41,26,26,0,0,1,7.88-4.75,20.42,20.42,0,0,1,8.23-1.29,24.85,24.85,0,0,1,7.09,1.56,43.54,43.54,0,0,1,9.26,4.89c1,.69,1.79,1.26,2.31,1.66l.58.46Z"/><path class="cls-4" d="M477.23,346.18l.48.21,1.43.57,5.54,2.13,20.6,7.76c8.75,3.27,19.24,7.15,31,11.43s24.79,9,38.71,13.68l.26.09.12-.24,6.83-13.05,3.48-6.65.14-.26-.25-.15-66.69-42.34-20-12.64-5.44-3.39-1.42-.87-.49-.28s.15.12.46.33l1.39.92,5.38,3.49,19.93,12.8,66.58,42.51-.1-.41-3.49,6.65-6.82,13,.37-.15c-13.91-4.7-27-9.37-38.72-13.62l-31-11.29-20.67-7.58-5.58-2-1.45-.52C477.4,346.22,477.23,346.18,477.23,346.18Z"/><path d="M481.75,160.58a45.19,45.19,0,0,1-3.88-9.29,15.13,15.13,0,0,1,.52-9.88c.81-1.79,2.09-3.36,2.73-5.21.87-2.56.51-5.58,2.1-7.78,2.48-3.42,7.77-2.62,11.6-4.42,3-1.4,5.07-4.41,8.2-5.42,2.74-.88,5.73,0,8.37,1.1s5.23,2.57,8.08,2.95a57.33,57.33,0,0,0,6.15,0,8.13,8.13,0,0,1,5.67,2c1.44,1.46,1.74,4.15.18,5.47,3.59-.61,7,3,6.92,6.61s-2.79,6.84-6.1,8.36-7.08,1.61-10.71,1.33c-10.27-.8-20.59-4.71-27.58-12.27"/><path class="cls-11" d="M484,147.73l-7,50.85a15.26,15.26,0,0,0,13.79,17.29h0a15.28,15.28,0,0,0,16.46-13.15c.52-3.83,1-7,1-7.41,0,0,13.11.56,15.81-12.12,1.3-6.13,3-19,4.32-30.61a24.15,24.15,0,0,0-19.26-26.49l-1.23-.24C494.53,124,485.46,134.3,484,147.73Z"/><path class="cls-12" d="M508.33,195.13a30.15,30.15,0,0,1-15.64-8s2.09,9.93,15,11.32Z"/><path class="cls-5" d="M522.7,163.39a1.84,1.84,0,0,1-2.12,1.48,1.76,1.76,0,0,1-1.54-2,1.85,1.85,0,0,1,2.11-1.48A1.76,1.76,0,0,1,522.7,163.39Z"/><path class="cls-5" d="M524.42,158.27c-.27.2-1.44-1.1-3.4-1.48s-3.58.3-3.74,0c-.08-.12.23-.51,1-.84a5,5,0,0,1,3-.31,4.86,4.86,0,0,1,2.65,1.48C524.44,157.72,524.56,158.19,524.42,158.27Z"/><path class="cls-5" d="M504.48,160.24a1.86,1.86,0,0,1-2.12,1.49,1.77,1.77,0,0,1-1.54-2,1.85,1.85,0,0,1,2.11-1.48A1.78,1.78,0,0,1,504.48,160.24Z"/><path class="cls-5" d="M505.15,154.8c-.28.19-1.45-1.1-3.4-1.49s-3.59.31-3.75,0c-.08-.13.23-.51.95-.84a5,5,0,0,1,3.05-.31,4.86,4.86,0,0,1,2.65,1.48C505.16,154.25,505.28,154.72,505.15,154.8Z"/><path class="cls-5" d="M509.34,170.71a13.42,13.42,0,0,1,3.29.06c.51,0,1,0,1.15-.28a2.57,2.57,0,0,0,0-1.55c-.22-1.3-.46-2.66-.71-4.09-1-5.82-1.56-10.56-1.33-10.6s1.21,4.65,2.18,10.47c.23,1.43.44,2.8.65,4.1a3,3,0,0,1-.13,2,1.27,1.27,0,0,1-1,.57,3.88,3.88,0,0,1-.87-.05A13.24,13.24,0,0,1,509.34,170.71Z"/><path class="cls-5" d="M503.32,170.91c.32.05-.1,2.17,1.42,4s3.82,2.08,3.77,2.38c0,.14-.58.31-1.54.15a5.45,5.45,0,0,1-3.18-1.87,4.72,4.72,0,0,1-1.05-3.36C502.84,171.35,503.18,170.87,503.32,170.91Z"/><path d="M507.18,147.24c-.3.5-2.2-.14-4.55-.33s-4.32.08-4.53-.46c-.09-.26.33-.69,1.18-1.06a7.67,7.67,0,0,1,3.53-.49,7.48,7.48,0,0,1,3.39,1.1C507,146.51,507.31,147,507.18,147.24Z"/><path d="M524.84,152.48c-.44.37-1.69-.36-3.3-.7s-3-.3-3.28-.83c-.09-.25.22-.65.9-.95a4.55,4.55,0,0,1,2.83-.19,4.62,4.62,0,0,1,2.46,1.41C524.93,151.8,525,152.29,524.84,152.48Z"/><path class="cls-11" d="M483.12,157.35c-.2-.14-8.22-4.33-9.68,4.42s7.63,8.41,7.68,8.16S483.12,157.35,483.12,157.35Z"/><path class="cls-12" d="M479,166.17s-.17.08-.44.16a1.57,1.57,0,0,1-1.15-.17c-.86-.49-1.4-2.09-1.18-3.67a5.18,5.18,0,0,1,.79-2.11,1.79,1.79,0,0,1,1.34-1,.78.78,0,0,1,.83.56c.08.27,0,.43,0,.46s.21-.12.2-.49a1,1,0,0,0-.25-.61,1.2,1.2,0,0,0-.81-.36,2.17,2.17,0,0,0-1.82,1.09,5.2,5.2,0,0,0-.93,2.35c-.24,1.77.39,3.57,1.59,4.15a1.69,1.69,0,0,0,1.44,0C479,166.38,479,166.19,479,166.17Z"/><path class="cls-13" d="M530.92,140.77c-1.5,3.23-9.22,4.48-14.88,2.77-5.21-1.57-7.1-4.88-10.42-7.77-2.1-1.83-2.1-1.83-5.53-2.18-2.77-.28-5,2.47-7.09,4.31,1.17,6.95-1.92,13.83-4.94,20.21a3.49,3.49,0,0,1-1.41,1.8c-1.18.58-2.6-.34-3.31-1.46a11,11,0,0,1-1.23-6.14A36.54,36.54,0,0,1,485,138.23a24.8,24.8,0,0,1,9.14-10.95,23.54,23.54,0,0,1,17.4-2.88,28.88,28.88,0,0,1,15.25,9.15,16.86,16.86,0,0,1,4.11,7.22"/><path class="cls-5" d="M513.12,161.92c.08,0,0-.76.4-2a8.5,8.5,0,0,1,3.1-4.49,8.24,8.24,0,0,1,7.74-1.12,8.1,8.1,0,0,1,3.77,2.85,8.11,8.11,0,0,1,0,9.59,8.1,8.1,0,0,1-3.77,2.85,8.22,8.22,0,0,1-7.74-1.11,8.52,8.52,0,0,1-3.1-4.5c-.35-1.28-.32-2-.4-2a2,2,0,0,0,0,.54,6.52,6.52,0,0,0,.18,1.56,8.36,8.36,0,0,0,3.06,4.82,8.72,8.72,0,0,0,12.37-1.72,8.72,8.72,0,0,0,0-10.41A8.7,8.7,0,0,0,516.32,155a8.38,8.38,0,0,0-3.06,4.83,6.45,6.45,0,0,0-.18,1.55A2.15,2.15,0,0,0,513.12,161.92Z"/><path class="cls-5" d="M492.37,158.29c.08,0,.05-.75.4-2a8.52,8.52,0,0,1,3.1-4.5,8.22,8.22,0,0,1,7.74-1.11,8.1,8.1,0,0,1,3.77,2.85,8.11,8.11,0,0,1,0,9.59,8.1,8.1,0,0,1-3.77,2.85,8.24,8.24,0,0,1-7.74-1.12,8.47,8.47,0,0,1-3.1-4.49c-.35-1.28-.32-2-.4-2a2.15,2.15,0,0,0,0,.55,6.45,6.45,0,0,0,.18,1.55,8.38,8.38,0,0,0,3.06,4.83,8.72,8.72,0,0,0,12.37-1.72,8.91,8.91,0,0,0,1.72-5.21,8.8,8.8,0,0,0-1.73-5.2,8.7,8.7,0,0,0-12.36-1.72,8.36,8.36,0,0,0-3.06,4.82,6.52,6.52,0,0,0-.18,1.56A2,2,0,0,0,492.37,158.29Z"/><path class="cls-5" d="M509.47,158.59c.09.17,1.2-.35,2.49,0s1.94,1.43,2.11,1.33,0-.37-.25-.81a3.09,3.09,0,0,0-3.69-1.11C509.64,158.26,509.42,158.51,509.47,158.59Z"/><path class="cls-5" d="M480.62,156.05c0,.2,2.79.32,6.23.27s6.22-.25,6.22-.44-2.79-.32-6.23-.27S480.62,155.86,480.62,156.05Z"/><path class="cls-10" d="M535,132.42a2.57,2.57,0,0,1-.14.83,4.1,4.1,0,0,1-1.31,1.89,5.85,5.85,0,0,1-3.15,1.28,15.72,15.72,0,0,1-4.17-.21,70.37,70.37,0,0,1-7.42-1.5c-.94-.25-1.69-.46-2.21-.62l-.6-.19a1.08,1.08,0,0,1-.2-.08l.21,0,.61.15,2.22.56c1.88.45,4.5,1,7.42,1.43a15.88,15.88,0,0,0,4.12.23,5.74,5.74,0,0,0,3.08-1.21,4.12,4.12,0,0,0,1.32-1.79C535,132.72,535,132.42,535,132.42Z"/><path class="cls-10" d="M537,134.41a8.07,8.07,0,0,1-.75,2.39,10.27,10.27,0,0,1-9.87,5.9,7.88,7.88,0,0,1-2.46-.48l.66.13a12.31,12.31,0,0,0,1.81.2,10.4,10.4,0,0,0,9.72-5.82,9.62,9.62,0,0,0,.68-1.68A3.88,3.88,0,0,1,537,134.41Z"/></g></g></svg>